<svg id="Layer_1" data-name="Layer 1" xmlns="http://www.w3.org/2000/svg" viewBox="0 0 40 40"><title>icon-terrace</title><path d="M40,18.9C40,8.5,31,0,20,0S0,8.5,0,18.9V20H18.9v8.1H12.2a1.1,1.1,0,1,0,0,2.2h6.7v8.5a1.2,1.2,0,0,0,2.4,0V30.3h6.6a1.1,1.1,0,1,0,0-2.2H21.3V20H40V18.9ZM20.6,17.7a.9.9,0,0,0-.5-.1.75.75,0,0,0-.5.1H2.4C3,9.1,10.7,2.2,20,2.2S37,9.1,37.6,17.7Z"/><path d="M1.8,27.1A1.13,1.13,0,0,0,.6,28.2V38.9A1.13,1.13,0,0,0,1.8,40,1.13,1.13,0,0,0,3,38.9V35.7h7v3.2A1.13,1.13,0,0,0,11.2,40a1.13,1.13,0,0,0,1.2-1.1V33.5H3V28.2A1.13,1.13,0,0,0,1.8,27.1Z"/><path d="M39.4,38.9V28.2a1.2,1.2,0,0,0-2.4,0v5.3H27.7v5.4a1.2,1.2,0,0,0,2.4,0V35.7h7v3.2A1.13,1.13,0,0,0,38.3,40,1.18,1.18,0,0,0,39.4,38.9Z"/></svg>