<svg xmlns="http://www.w3.org/2000/svg" viewBox="0 0 75 75"><title>drink</title><path d="M21.06,24.54a5.15,5.15,0,0,0,1.85,3,4.45,4.45,0,0,0,2.78.93h.69A3.29,3.29,0,0,0,27.78,28l1.85,2.08h-9L38,48.84v6H32.18v2.78H46.3V54.86H40.51V48.61L56.94,30.09H33.33l-3.7-3.94a6.41,6.41,0,0,0,.69-3,5.15,5.15,0,0,0-1.85-3A4.69,4.69,0,0,0,25,19.21a3.29,3.29,0,0,0-1.39.46L22,17.82l-2.08,1.85,1.62,1.85A4.41,4.41,0,0,0,21.06,24.54Zm29.86,8.33L39.12,46.06,26.85,32.87h5.32l6.48,6.94L40.74,38l-4.86-5.09ZM27.55,23.61h0A2,2,0,0,1,27.08,25h-.23c0,.23-.23.23-.46.23s-.46.23-.69.23a1.8,1.8,0,0,1-2.08-1.62h0v-.23h0v-.69a.81.81,0,0,1,.23-.46A1.27,1.27,0,0,1,25,21.76h.46A2.49,2.49,0,0,1,27.55,23.61Z"/><path d="M0,0V75H75V0ZM72.22,72.22H2.78V2.78H72.22Z"/></svg>
