<?xml version="1.0" encoding="utf-8"?>
<!-- Generator: Adobe Illustrator 21.1.0, SVG Export Plug-In . SVG Version: 6.00 Build 0)  -->
<svg version="1.1" id="Ebene_1" xmlns="http://www.w3.org/2000/svg" xmlns:xlink="http://www.w3.org/1999/xlink" x="0px" y="0px"
	 viewBox="0 0 45 45" style="enable-background:new 0 0 45 45;" xml:space="preserve">
<title>weibo</title>
<path d="M19,37.5C11.8,38.2,5.6,35,5.1,30.1s5.1-9.3,12.3-10s13.4,2.5,13.9,7.4S26.2,36.8,19,37.5 M33.4,21.8
	c-0.7-0.2-0.9-0.2-0.7-1.2c0.7-1.8,0.7-3.2,0-4.4c-1.4-2.1-5.3-1.9-9.7,0c0,0-1.4,0.7-0.9-0.5c0.7-2.3,0.7-3.9-0.5-5.1
	c-2.3-2.3-8.8,0-14.4,5.6c-4.2,4.2-6.5,8.6-6.5,12.3c0,7.2,9.2,11.6,18.2,11.6c11.8,0,19.9-6.9,19.9-12.5
	C38.7,24.6,35.9,22.7,33.4,21.8"/>
<path d="M41.5,8.6c-2.8-3.1-7-4.5-11.1-3.5l0,0C29.4,5.1,29,6.1,29,7c0.3,0.9,1.1,1.5,2.1,1.4c4.4-1,8.8,1.8,9.7,6.2
	c0.3,1.5,0.2,3-0.2,4.4l0,0c-0.3,0.9,0.2,1.8,1.1,2.1s1.8-0.2,2.1-1.1l0,0C45,16.1,44.2,11.8,41.5,8.6"/>
<path d="M37.1,12.5c-1.3-1.5-3.4-2.1-5.3-1.6c-0.7,0.2-1.4,0.9-1.2,1.6s0.9,1.4,1.6,1.2l0,0c1-0.3,2,0.1,2.5,0.9
	c0.7,0.7,0.9,1.8,0.5,2.8l0,0c-0.3,0.8,0.2,1.6,0.9,1.9s1.6-0.2,1.9-0.9l0,0C38.8,16.4,38.4,14.2,37.1,12.5"/>
<path d="M19.5,29c-0.2,0.5-0.9,0.7-1.2,0.5c-0.5-0.2-0.5-0.7-0.2-1.2c0.2-0.4,0.7-0.7,1.1-0.5c0,0,0,0,0.1,0
	C19.6,28.1,19.7,28.6,19.5,29 M17.2,32c-0.7,1.1-2,1.6-3.2,1.2c-1-0.5-1.4-1.7-0.9-2.7c0.1-0.1,0.1-0.2,0.2-0.3
	c0.6-1.1,2-1.6,3.2-1.2C17.5,29.6,17.8,31,17.2,32 M19.7,24.1c-3.5-0.9-7.1,0.8-8.8,3.9c-1.6,3,0,6.5,3.5,7.6
	c3.6,1.1,7.6-0.5,9.3-3.9c1.2-2.8,0-6-2.8-7.3C20.5,24.3,20.1,24.2,19.7,24.1"/>
</svg>
