<svg xmlns="http://www.w3.org/2000/svg" viewBox="0 0 34 34"><title>icon-gift-box</title><path d="M20,31h7.18A1.8,1.8,0,0,0,29,29.26h0V15.14H20Z"/><path d="M5,29.25A1.8,1.8,0,0,0,6.83,31H14V15.14H5Z"/><path d="M29.14,9H20V14.1h9.15A1.8,1.8,0,0,0,31,12.36h0V10.76A1.81,1.81,0,0,0,29.14,9Z"/><path d="M3,10.76v1.61a1.8,1.8,0,0,0,1.85,1.75H14V9H4.87A1.81,1.81,0,0,0,3,10.76Z"/><path d="M26.55,7.11a2.21,2.21,0,0,0,.51-2C26.76,3.8,25.29,3,23.2,3a9.91,9.91,0,0,0-2.7.39,8.05,8.05,0,0,0-1.61.66,3.43,3.43,0,0,0-1.12-.48A3.77,3.77,0,0,0,17,3.46a3.81,3.81,0,0,0-.81.12,3.35,3.35,0,0,0-1.09.47,8.15,8.15,0,0,0-1.57-.66A9.93,9.93,0,0,0,10.81,3C8.72,3,7.25,3.8,7,5.08a2.21,2.21,0,0,0,.51,2c.81.88,2.38,1.32,4.94,1.32H21.6C24.17,8.43,25.75,8,26.55,7.11ZM13.78,6.35H12.42c-2.56,0-3.11-.45-3.19-.55s-.09-.08,0-.32.52-.41,1.63-.41a7.61,7.61,0,0,1,2,.31,5.56,5.56,0,0,1,1,.39A2.85,2.85,0,0,0,13.78,6.35Zm6.39-.59a5.74,5.74,0,0,1,1-.39,7.6,7.6,0,0,1,2-.3c1.11,0,1.59.32,1.63.41a.51.51,0,0,1,0,.31s-.64.55-3.19.55h-1.4a2.85,2.85,0,0,0-.09-.59Z"/></svg>