<svg xmlns="http://www.w3.org/2000/svg" viewBox="0 0 34 34"><title>icon-michelin</title><path d="M19.82,6.52c.76-.51.51-.89,0-1.27-1.4-1-4.71-1-5.85.13-.25.25-.13.64-.25,1.15a13.71,13.71,0,0,0-2.54.76,8.58,8.58,0,0,0-5.6,8.27A6.35,6.35,0,0,1,4,20c-2,2.54-1.53,5.47.13,8a11.07,11.07,0,0,0,1.65,1.91c.64.76,1.15,1.91.64,2a3.5,3.5,0,0,1-2.29-.13c-2.42-1.65-3.44-4.07-3.69-7a9.25,9.25,0,0,1,1.78-6.74,1.37,1.37,0,0,0,.25-1c0-5,3.05-10.43,8.52-12.21.25-.13.64-.25.76-.51,2.16-2.8,8.14-2.93,10.31,0a2.77,2.77,0,0,0,1,.64A11.61,11.61,0,0,1,31,17.08a1.78,1.78,0,0,0,.38,1.15c3.56,3.82,2,10.69-1.65,13.61a2.39,2.39,0,0,1-1.91.25,1.25,1.25,0,0,1-.38-1,5.65,5.65,0,0,1,1-1.4c1.78-1.91,3.18-4.07,2.67-6.87a6.17,6.17,0,0,0-2.42-3.94,1.39,1.39,0,0,1-.25-1.27A9.16,9.16,0,0,0,21.09,6.77,5.6,5.6,0,0,1,19.82,6.52Z"/><path d="M24.4,27.26A7.72,7.72,0,0,1,25.29,26c.25-.25.64-.25.89-.51a3.93,3.93,0,0,1,.25,1A7.62,7.62,0,0,1,22,30.69a11.28,11.28,0,0,1-11.58-1.78A1.71,1.71,0,0,1,9.64,28a1.12,1.12,0,0,1,.13-.89.6.6,0,0,1,.76.13,10.36,10.36,0,0,0,5.34,2.8,5.51,5.51,0,0,1,.64.13c1.91.13,1.91.13,2.16-1.78a7.36,7.36,0,0,1,1.78-4.33,2,2,0,0,1,2.29-.64c.89.25,1.15,1,1.27,1.91a9.63,9.63,0,0,1,.13,1.91Z"/><path d="M16.39,15.8a17.82,17.82,0,0,1-.76,3.05,3.4,3.4,0,0,1-3.05,2.54A3.71,3.71,0,0,1,9,19.49a7.35,7.35,0,0,1,.64-8,3.15,3.15,0,0,1,5.47.76A19.94,19.94,0,0,1,16.39,15.8Zm-2.16,3.44.38-.38a6.57,6.57,0,0,0-.38-6.49,2.34,2.34,0,0,0-4.07.25,5.88,5.88,0,0,0-.76,4.83,10.72,10.72,0,0,0,.76,1.78c.13,0,.25-.13.38-.13v-2a1.94,1.94,0,0,1,1.78-1.91,1.74,1.74,0,0,1,1.91,1.65Z"/><path d="M26.06,16.06a29.71,29.71,0,0,1-.89,3.18,3.44,3.44,0,0,1-2.93,2.29,3.35,3.35,0,0,1-3.31-1.91,7.1,7.1,0,0,1,.51-8,8.23,8.23,0,0,1,1.15-1,3.08,3.08,0,0,1,3.56.51C25.55,12.5,25.8,14.15,26.06,16.06Zm-6.23,3.05h.25c0-.38-.13-.76-.13-1.15s.13-.76.13-1.15A2,2,0,0,1,22,15.17a1.8,1.8,0,0,1,1.91,1.53,5.22,5.22,0,0,1,.13,1.4,3.16,3.16,0,0,0,.13,1c1.65-2.16,1.27-5.85-.64-7.38a2,2,0,0,0-2.93,0,6.24,6.24,0,0,0-1.4,2.54A5,5,0,0,0,19.82,19.11Z"/></svg>