<svg xmlns="http://www.w3.org/2000/svg" viewBox="0 0 75 75"><title>stoppwatch</title><path d="M16,39.81a21.53,21.53,0,0,0,43.06,0A21.27,21.27,0,0,0,53.7,25.69l1.39-1.39.93.93,1.85-1.85-3.7-3.7-1.85,1.85.93.93-1.39,1.39a22.54,22.54,0,0,0-12.73-5.32V16.44h1.16V13.89H35.19v2.78h1.16v1.85a21.06,21.06,0,0,0-12.73,5.32l-1.39-1.39.93-.93-2.08-1.85-3.7,3.47L19.21,25l.93-.93,1.39,1.39A21.36,21.36,0,0,0,16,39.81ZM37.5,21.06A18.75,18.75,0,1,1,18.75,39.81,18.67,18.67,0,0,1,37.5,21.06Z"/><path d="M37.5,44.44a4.75,4.75,0,0,0,4.63-4.63,6.76,6.76,0,0,0-.46-2.08l7.41-7.41-1.85-1.85-7.41,7.41a4.5,4.5,0,0,0-5.32,7.18A3.73,3.73,0,0,0,37.5,44.44Zm-1.16-6A1.7,1.7,0,0,1,37.73,38a3.29,3.29,0,0,1,1.39.46,1.7,1.7,0,0,1,.46,1.39,3.29,3.29,0,0,1-.46,1.39,1.82,1.82,0,0,1-2.55,0,1.7,1.7,0,0,1-.46-1.39C35.65,39.35,35.88,38.89,36.34,38.43Z"/><path d="M0,0V75H75V0ZM72.22,72.22H2.78V2.78H72.22Z"/></svg>
