<?xml version="1.0" encoding="utf-8"?>
<!-- Generator: Adobe Illustrator 21.1.0, SVG Export Plug-In . SVG Version: 6.00 Build 0)  -->
<svg version="1.1" id="Ebene_1" xmlns="http://www.w3.org/2000/svg" xmlns:xlink="http://www.w3.org/1999/xlink" x="0px" y="0px"
	 viewBox="0 0 45 45" style="enable-background:new 0 0 45 45;" xml:space="preserve">
<title>twitter</title>
<path d="M43.3,8.6c-1.5,0.8-3.2,1.3-4.9,1.5c1.9-1.2,3.3-3,3.9-5.1c-1.7,1-3.5,1.8-5.4,2.3c-1.6-1.8-3.8-2.8-6.2-2.8
	c-4.6,0-8.5,4.1-8.5,9.3c-0.1,0.7,0,1.4,0.3,2.1C15.3,15.5,9.1,11.7,4.7,6c-0.8,1.4-1.3,3-1.3,4.6c0,3,1.4,5.9,3.9,7.7
	c-1.3-0.1-2.7-0.4-3.9-1l0,0c-0.1,4.3,2.8,8,7,9.1c-0.8,0.2-1.5,0.3-2.3,0.3c-0.5,0-1.1,0-1.5-0.3c1,3.6,4.2,6.2,8,6.4
	c-2.9,2.5-6.7,3.9-10.5,3.9c-0.7,0-1.4-0.1-2-0.3c3.9,2.7,8.4,4.1,13.1,4.1c15.7,0,24.4-14.1,24.4-26.2V13
	C41,11.8,42.3,10.3,43.3,8.6z"/>
</svg>
