<svg xmlns="http://www.w3.org/2000/svg" viewBox="0 0 26 26"><title>icon-bed</title><path d="M23.9,17.15v4.2H26v-6.2H2.1V6.65a.91.91,0,0,0-.3-.7.91.91,0,0,0-.7-.3.91.91,0,0,0-.7.3.55.55,0,0,0-.4.6v14.8H2.1v-4.2H23.9Z"/><path d="M5.4,10.75a2,2,0,0,0,1.4-.6,1.76,1.76,0,0,0,.6-1.3,1.61,1.61,0,0,0-.6-1.3A1.82,1.82,0,0,0,5.4,7a1.49,1.49,0,0,0-1.3.6,1.76,1.76,0,0,0-.6,1.3,1.61,1.61,0,0,0,.6,1.3A1.29,1.29,0,0,0,5.4,10.75Z"/><path d="M26,13.45v-2.5a1.28,1.28,0,0,0-.4-1,2.22,2.22,0,0,0-1.1-.5L9.4,7.95H9.3a1,1,0,0,0-1,1v2.9H4.5c-.6,0-1,.3-1,.8s.3.8,1,.8Z"/></svg>