<svg xmlns="http://www.w3.org/2000/svg" width="13" height="13" viewBox="0 0 13 13">
	<title>icon-twitter-comment</title>
  <path d="M7.87.01L5.14 0C2.26 0 0 2.26 0 5.14c0 2.7 2.1 4.74 4.91 4.85v2.52c0 .07.03.19.08.27.1.14.26.22.42.22.09 0 .18-.03.26-.08.18-.11 4.26-2.72 5.33-3.62 1.25-1.06 2-2.61 2-4.15v-.01C13 2.26 10.74.01 7.87.01zm2.49 8.53c-.75.63-3.2 2.24-4.46 3.06V9.5c0-.27-.22-.49-.49-.49h-.26C2.74 9.01.99 7.38.99 5.14.99 2.81 2.81.99 5.14.99L7.87 1c2.33 0 4.15 1.82 4.15 4.14-.01 1.26-.63 2.53-1.66 3.4z"/>
</svg>