<svg id="Layer_1" data-name="Layer 1" xmlns="http://www.w3.org/2000/svg" viewBox="0 0 40 40"><title>icon-bar</title><path d="M35.7,9.9a1.06,1.06,0,0,0,.2-1.2,1.2,1.2,0,0,0-1-.7H26.6l1.3-2.7a2.41,2.41,0,0,0,3-1.2,2.57,2.57,0,0,0-1-3.1l.3-.6A.37.37,0,0,0,30-.1a.37.37,0,0,0-.5.2l-.3.6a2.41,2.41,0,0,0-3,1.2,2.46,2.46,0,0,0,1,3.1L25.8,8H5.1a1.2,1.2,0,0,0-1,.7,1.06,1.06,0,0,0,.2,1.2L19,25.3V38.1H14.9a1,1,0,0,0-1,1,.94.94,0,0,0,1,1H25.1a1,1,0,0,0,1-1,.94.94,0,0,0-1-1H21V25.3Zm-10.9.3-1.4,3H12.1L20,21.5l7.9-8.3H24.2l1.4-3h6.7L20,23.2,7.6,10.2Z"/></svg>