<?xml version="1.0" encoding="utf-8"?>
<!-- Generator: Adobe Illustrator 21.1.0, SVG Export Plug-In . SVG Version: 6.00 Build 0)  -->
<svg version="1.1" id="Ebene_1" xmlns="http://www.w3.org/2000/svg" xmlns:xlink="http://www.w3.org/1999/xlink" x="0px" y="0px"
	 viewBox="0 0 45 45" style="enable-background:new 0 0 45 45;" xml:space="preserve">
<title>pinterest</title>
<path d="M23.6,2C12.5,2,6.7,10.1,6.7,16.8c0,4.2,1.6,7.6,4.9,9c0.5,0.2,0.9,0,1.2-0.7c0-0.5,0.5-1.4,0.5-1.8c0.2-0.7,0-0.7-0.2-1.4
	c-1.1-1.3-1.7-2.9-1.6-4.6C11.3,11.1,16.2,6.1,22.3,6c0.2,0,0.4,0,0.6,0c6.3,0,9.7,3.9,9.7,9c0,6.7-3,12.5-7.4,12.5
	c-2,0.1-3.7-1.4-3.8-3.4c0-0.4,0-0.8,0.1-1.2c0.7-3,2.1-6.3,2.1-8.3c0-1.9-0.9-3.5-3.2-3.5c-2.5,0-4.6,2.5-4.6,6
	c0,1.3,0.2,2.5,0.7,3.7c0,0-2.5,10.9-3,13c-0.6,3-0.6,6,0,9c0,0.2,0.5,0.2,0.5,0.2c1.9-2.2,3.3-4.8,4.2-7.6c0.2-1.2,1.6-6.5,1.6-6.5
	c1.3,1.9,3.5,3,5.8,3c7.6,0,12.7-6.9,12.7-16.2C38.7,8.5,32.7,2,23.6,2z"/>
</svg>
