<svg xmlns="http://www.w3.org/2000/svg" viewBox="0 0 75 75"><title>pinterest</title><path d="M72.22,2.78V72.45H2.78V2.78H72.22M75,0H0V75.23H75.23V0Z"/><path d="M38.43,16.9c-11.11,0-16.9,8.1-16.9,14.81,0,4.17,1.62,7.64,4.86,9,.46.23.93,0,1.16-.69,0-.46.46-1.39.46-1.85.23-.69,0-.69-.23-1.39a7,7,0,0,1-1.62-4.63A11.13,11.13,0,0,1,37.73,20.83c6.25,0,9.72,3.94,9.72,9,0,6.71-3,12.5-7.41,12.5a3.62,3.62,0,0,1-3.7-4.63c.69-3,2.08-6.25,2.08-8.33,0-1.85-.93-3.47-3.24-3.47-2.55,0-4.63,2.55-4.63,6a8.94,8.94,0,0,0,.69,3.7s-2.55,10.88-3,13a22,22,0,0,0,0,9c0,.23.46.23.46.23a22.17,22.17,0,0,0,4.17-7.64c.23-1.16,1.62-6.48,1.62-6.48a6.86,6.86,0,0,0,5.79,3c7.64,0,12.73-6.94,12.73-16.2C53.47,23.38,47.45,16.9,38.43,16.9Z"/></svg>
