<svg xmlns="http://www.w3.org/2000/svg" viewBox="0 0 35 35"><title>info</title><path d="M25.17,0.623H2.175C0.972,0.623,0,1.597,0,2.799v21.747c0,1.199,0.972,2.175,2.175,2.175H25.17    c1.198,0,2.174-0.976,2.174-2.175V2.799C27.344,1.597,26.368,0.623,25.17,0.623z M25.213,22.866c0,1.011-0.825,1.837-1.838,1.837    H3.937c-1.018,0-1.837-0.826-1.837-1.837V4.479c0-1.013,0.819-1.837,1.837-1.837h19.438c1.013,0,1.838,0.824,1.838,1.837V22.866z" fill="#0080c8" /><path d="M15.873,19.939c-1.076,0.81-1.82,1.216-2.229,1.216c-0.269,0-0.401-0.19-0.401-0.57c0-0.706,0.52-2.985,1.559-6.839    c0.383-1.431,0.623-2.381,0.722-2.85c0.1-0.475,0.151-0.838,0.151-1.097c0-0.562-0.195-0.844-0.588-0.844    c-0.398,0-0.95,0.188-1.652,0.562c-0.699,0.378-1.697,1.032-2.994,1.967l-0.043,0.189l0.143,0.326l0.158,0.058    c1.066-0.618,1.668-0.966,1.803-1.035c0.131-0.071,0.271-0.106,0.412-0.106c0.221,0,0.33,0.161,0.33,0.487    c0,0.275-0.133,1.031-0.393,2.271c-0.262,1.24-0.704,2.967-1.324,5.177c-0.171,0.601-0.316,1.147-0.437,1.638    c-0.118,0.492-0.177,0.951-0.177,1.377c0,0.337,0.08,0.628,0.243,0.876c0.161,0.248,0.384,0.373,0.673,0.373    c0.198,0,0.447-0.064,0.75-0.194c0.299-0.128,0.803-0.433,1.508-0.907c0.705-0.479,1.393-0.974,2.06-1.49l0.028-0.168    l-0.156-0.372L15.873,19.939z" fill="#0080c8" /><path d="M15.345,4.231c-0.459,0-0.847,0.193-1.166,0.581C13.86,5.198,13.7,5.644,13.7,6.149c0,0.36,0.112,0.658,0.336,0.887    s0.502,0.343,0.836,0.343c0.449,0,0.82-0.204,1.116-0.607c0.298-0.407,0.443-0.868,0.443-1.382c0-0.369-0.101-0.657-0.299-0.857    C15.932,4.334,15.666,4.231,15.345,4.231z" fill="#0080c8" /></svg>