<svg xmlns="http://www.w3.org/2000/svg" viewBox="0 0 75 75"><title>instagram</title><path d="M72.22,2.78V72.22H2.78V2.78H72.22M75,0H0V75H75V0Z"/><path d="M49.31,18.52H25.69a7.21,7.21,0,0,0-7.18,7.18V49.07a7.31,7.31,0,0,0,7.41,7.41H49.31a7.31,7.31,0,0,0,7.41-7.41V25.69A7.57,7.57,0,0,0,49.31,18.52Zm2.08,4.4h.93V29.4H45.83V22.92ZM31.94,33.56a6.9,6.9,0,0,1,5.56-2.78,7.25,7.25,0,0,1,5.56,2.78,7.8,7.8,0,0,1,1.16,3.94,6.71,6.71,0,1,1-13.43,0A7.8,7.8,0,0,1,31.94,33.56ZM52.78,49.31a3.66,3.66,0,0,1-3.7,3.7H25.69a3.66,3.66,0,0,1-3.7-3.7V33.8h5.79a10.81,10.81,0,0,0-.69,3.94,10.42,10.42,0,0,0,20.83,0,10.81,10.81,0,0,0-.69-3.94H53V49.31Z"/></svg>
