<svg xmlns="http://www.w3.org/2000/svg" width="75" height="75" viewBox="0 0 75 75">
  <title>icon-share-square</title>
  <path d="M0 0v75h75V0H0zm72.22 72.22H2.78V2.78h69.45l-.01 69.44z"/>
  <path d="M60.38 34.96L42.33 19.45c-.4-.3-.92-.38-1.39-.23-.43.22-.7.67-.69 1.16v9.03c-14.58.46-21.53 7.64-24.77 13.66a35.66 35.66 0 0 0-3.7 12.51v.93c.07.7.69 1.21 1.39 1.16.75-.05 1.34-.64 1.39-1.39v-.46c.46-10.88 20.6-13.19 25.93-13.66v9.03c-.01.49.26.94.69 1.16.46.27 1.04.17 1.39-.23L60.62 36.6c.24-.25.41-.58.46-.93-.23-.24-.23-.47-.7-.71zM42.79 48.62v-7.63c-.1-.72-.67-1.29-1.39-1.39-.93 0-17.36.93-25.46 7.87 2.78-6.94 9.26-15.51 25.46-15.51.35-.06.67-.22.93-.46.29-.22.46-.56.46-.93v-7.4L57.61 35.9 42.79 48.62z"/>
</svg>