<svg xmlns="http://www.w3.org/2000/svg" viewBox="0 0 75 75"><title>weibo</title><path d="M72.22,2.78V72.45H2.78V2.78H72.22M75,0H0V75H75V0Z"/><path d="M34,52.55c-7.18.69-13.43-2.55-13.89-7.41s5.09-9.26,12.27-10,13.43,2.55,13.89,7.41S41.2,51.85,34,52.55M48.38,36.81c-.69-.23-.93-.23-.69-1.16.69-1.85.69-3.24,0-4.4-1.39-2.08-5.32-1.85-9.72,0,0,0-1.39.69-.93-.46.69-2.31.69-3.94-.46-5.09-2.31-2.31-8.8,0-14.35,5.56-4.17,4.17-6.48,8.56-6.48,12.27C15.74,50.69,25,55.09,34,55.09c11.81,0,19.91-6.94,19.91-12.5-.23-3-3-4.86-5.56-5.79"/><path d="M56.48,23.61a11.26,11.26,0,0,0-11.11-3.47h0c-.93,0-1.39.93-1.39,1.85a2,2,0,0,0,2.08,1.39A8.17,8.17,0,0,1,55.56,34h0A1.69,1.69,0,1,0,58.8,35h0a11.93,11.93,0,0,0-2.31-11.34"/><path d="M52.08,27.55a5.25,5.25,0,0,0-5.32-1.62c-.69.23-1.39.93-1.16,1.62s.93,1.39,1.62,1.16h0a2.31,2.31,0,0,1,2.55.93,2.46,2.46,0,0,1,.46,2.78h0a1.46,1.46,0,1,0,2.78.93,5.77,5.77,0,0,0-.93-5.79"/><path d="M34.49,44c-.23.46-.93.69-1.16.46-.46-.23-.46-.69-.23-1.16a.85.85,0,0,1,1.16-.46A1,1,0,0,1,34.49,44m-2.31,3a2.75,2.75,0,0,1-3.24,1.16,2,2,0,0,1-.69-3A2.66,2.66,0,0,1,31.48,44a2.2,2.2,0,0,1,.69,3m2.55-7.87a7.8,7.8,0,0,0-8.8,3.94c-1.62,3,0,6.48,3.47,7.64a7.74,7.74,0,0,0,9.26-3.94,5.51,5.51,0,0,0-3.94-7.64"/></svg>
