<?xml version="1.0" encoding="utf-8"?>
<!-- Generator: Adobe Illustrator 21.1.0, SVG Export Plug-In . SVG Version: 6.00 Build 0)  -->
<svg version="1.1" id="Ebene_1" xmlns="http://www.w3.org/2000/svg" xmlns:xlink="http://www.w3.org/1999/xlink" x="0px" y="0px"
	 viewBox="0 0 45 45" style="enable-background:new 0 0 45 45;" xml:space="preserve">
<title>instagram</title>
<path d="M34.3,3.5H10.7c-4,0-7.2,3.2-7.2,7.2v23.4c-0.1,4,3.2,7.4,7.2,7.4c0.1,0,0.1,0,0.2,0h23.4c4,0.1,7.4-3.2,7.4-7.2
	c0-0.1,0-0.1,0-0.2V10.7C41.5,6.7,38.3,3.6,34.3,3.5z M36.4,7.9h0.9v6.5h-6.5V7.9H36.4z M16.9,18.6c1.3-1.8,3.4-2.8,5.6-2.8
	c2.2,0,4.2,1.1,5.6,2.8c0.7,1.2,1.1,2.5,1.2,3.9c0,3.7-3,6.7-6.7,6.7s-6.7-3-6.7-6.7C15.8,21.1,16.2,19.7,16.9,18.6z M37.8,34.3
	c0,2-1.6,3.7-3.6,3.7c0,0-0.1,0-0.1,0H10.7c-2,0-3.7-1.6-3.7-3.6c0,0,0-0.1,0-0.1V18.8h5.8c-0.5,1.3-0.7,2.6-0.7,3.9
	c0.2,5.8,5,10.3,10.7,10.1c5.5-0.2,9.9-4.6,10.1-10.1c0-1.3-0.2-2.7-0.7-3.9H38v15.5H37.8z"/>
</svg>
