<svg xmlns="http://www.w3.org/2000/svg" viewBox="0 0 34 34"><title>icon-phone-receiver</title><path d="M31,24.84a7.2,7.2,0,0,1-3.66,3.71,8,8,0,0,1-6.37-.39,4.74,4.74,0,0,1-3.51.67c-6-4.32-9.88-15-9.88-15A4.43,4.43,0,0,1,9.28,8.66c3.5-2.06,4.53-1.13,4.53-1.13.82.31,1.54,4.22,1.54,4.22-.31,1.44-3,2.06-3,2.06,1.23,3.6,5.76,9.16,5.76,9.16.21-.72,1.85-1.75,1.85-1.75,1-.62,3.91,3,3.91,3,.82.6,0,1.52-.56,2a4.54,4.54,0,0,0,2.93-.1,4.51,4.51,0,0,0,2.23-2.3l0-.1.06-.1A13.33,13.33,0,0,0,7,8.2,13.33,13.33,0,0,0,17.86,30.3,1.34,1.34,0,0,1,18,33c-.35,0-.7,0-1,0A16,16,0,0,1,5,6.43a16,16,0,0,1,26,18.4Zm-6-3.34a1.34,1.34,0,0,0,1.73-.76A10.34,10.34,0,0,0,20.74,7.35a1.34,1.34,0,0,0-1,2.49,7.68,7.68,0,0,1,4.38,9.92A1.34,1.34,0,0,0,24.91,21.5Zm-7.26-9.88a1.34,1.34,0,0,0,.76,1.73,3.91,3.91,0,0,1,2.23,5.06,1.34,1.34,0,1,0,2.49,1,6.59,6.59,0,0,0-3.76-8.52A1.34,1.34,0,0,0,17.65,11.62Z"/></svg>