<svg xmlns="http://www.w3.org/2000/svg" viewBox="0 0 26 26"><title>icon-human</title><path d="M17.21,13.85l-2.3-2.6a2.12,2.12,0,0,1-.3-.7l-.1-2.7v-.1a.68.68,0,0,0-.7-.7h-3.2a1,1,0,0,0-.9.6l-3.1,6.5a.64.64,0,0,0,0,.6.78.78,0,0,0,.4.4l.5.2c.1,0,.2.1.3.1a.84.84,0,0,0,.7-.4l1.4-2.9v2.9h0l-2.4,7.6a.94.94,0,0,0,.1.9,1.34,1.34,0,0,0,.7.6h.5a1.2,1.2,0,0,0,1.2-.9l2.3-7.1.8,2a12.09,12.09,0,0,1,.5,1.8l.4,3.6a1.09,1.09,0,0,0,1.1,1h.5a1.33,1.33,0,0,0,1-1.5l-.6-4.4a14.62,14.62,0,0,0-.5-2l-.8-1.8v-1.3l1.4,1.5a.73.73,0,0,0,1,0l.3-.3a.85.85,0,0,0-.2-.9Z"/><path d="M12.41,6.45a2.48,2.48,0,0,0,2.5-2.5,2.5,2.5,0,0,0-5,0,2.54,2.54,0,0,0,2.5,2.5Z"/></svg>