<?xml version="1.0" encoding="utf-8"?>
<!-- Generator: Adobe Illustrator 21.1.0, SVG Export Plug-In . SVG Version: 6.00 Build 0)  -->
<svg version="1.1" id="Ebene_1" xmlns="http://www.w3.org/2000/svg" xmlns:xlink="http://www.w3.org/1999/xlink" x="0px" y="0px"
	 viewBox="0 0 45 45" style="enable-background:new 0 0 45 45;" xml:space="preserve">
<title>wechat</title>
<path d="M31.8,15.4c-0.8-2.9-2.6-5.4-5.1-7.2c-3.8-2.7-8.5-3.9-13.1-3.4C9.7,5.2,6,7,3.3,9.9c-4.2,4.5-4.4,11.4-0.4,16
	c1.1,1.3,2.3,2.1,3.4,3.4c-0.4,1.5-1.1,3-1.7,4.6c1.9-0.8,3.6-1.7,5.3-2.5c0.2-0.2,0.5-0.2,0.8-0.2c1.1,0.2,1.9,0.4,3,0.6
	c1.3,0.2,2.5,0.2,3.8,0c-2.3-8.2,4.4-16.7,14.6-15.8C32,15.8,31.8,15.6,31.8,15.4z M12.6,14.3c-0.3,0.8-1,1.3-1.9,1.3h-0.4
	c-0.9-0.1-1.7-0.8-1.9-1.7c-0.1-0.7,0.2-1.5,0.8-1.9c0.8-0.6,1.9-0.6,2.7,0C12.7,12.5,12.9,13.5,12.6,14.3z M21.9,15.6
	c-1.2,0.1-2.2-0.7-2.3-1.9c0.1-1.2,1.2-2,2.3-1.9c1-0.1,1.8,0.7,1.9,1.6c0,0.1,0,0.2,0,0.3C24,14.7,23.1,15.6,21.9,15.6z"/>
<path d="M42.3,21.5c-5.1-5.9-15-6.5-20.7-1.2c-3.5,2.9-4.7,7.8-3,12c1.3,3.1,3.9,5.4,7,6.5c3.1,1.2,6.5,1.3,9.7,0.4
	c0.5-0.2,1-0.1,1.5,0.2c1.2,0.6,2.4,1.3,3.6,2.1c-0.4-1.3-0.6-2.5-1.1-3.6c0-0.4,0-0.4,0.2-0.6c0.9-0.8,1.7-1.6,2.5-2.5
	C45.9,30.8,45.9,25.7,42.3,21.5z M27.1,26.4c-0.9,0-1.7-0.8-1.7-1.7c0-0.9,0.8-1.7,1.7-1.7c1,0,1.8,0.7,1.9,1.7c0,1-0.8,1.7-1.8,1.7
	C27.2,26.4,27.2,26.4,27.1,26.4z M36,26.4c-0.9,0-1.7-0.8-1.7-1.7c0-0.9,0.8-1.7,1.7-1.7c0.9-0.1,1.8,0.5,1.9,1.5
	C37.9,25.5,37.1,26.4,36,26.4C36,26.4,36,26.4,36,26.4z"/>
</svg>
