<svg xmlns="http://www.w3.org/2000/svg" viewBox="0 0 75 75"><title>ship</title><path d="M19.68,55.09c.93,1.16,2.08,2.55,4.4,2.55s3.47-1.39,4.4-2.55c.93-.93,1.39-1.62,2.31-1.62s1.39.46,2.31,1.62,2.08,2.55,4.4,2.55,3.47-1.39,4.4-2.55c.93-.93,1.39-1.62,2.31-1.62s1.39.46,2.31,1.62,2.08,2.55,4.4,2.55,3.47-1.39,4.4-2.55c.93-.93,1.39-1.62,2.31-1.62V50.69c-2.31,0-3.47,1.39-4.4,2.55-.46.46-.69.93-1.16,1.16l5.09-17.82-7.87-2.08V23.38h-6v-6h-12v6h-6V34.72l-7.87,1.85L22,53.7l-.23-.23c-.93-1.16-2.08-2.55-4.4-2.55V53.7C18.29,53.47,18.75,54.17,19.68,55.09Zm29.63-.93a3.2,3.2,0,0,1-.69-.93c-.93-1.16-2.08-2.55-4.4-2.55s-3.47,1.39-4.4,2.55c-.46.46-.69.93-1.16,1.16V34.72l15.28,3.7ZM34,20.14h6.48v3.24H34Zm-6,6H46.53V33.8l-9.26-2.31L28,33.8Zm7.87,8.56V53.94l-.69-.69c-.93-1.16-2.08-2.55-4.4-2.55s-3.47,1.39-4.4,2.55L25.23,54.4l-4.4-15.74Z"/><path d="M0,0V75H75V0ZM72.22,72.22H2.78V2.78H72.22Z"/></svg>
