<svg xmlns="http://www.w3.org/2000/svg" xmlns:xlink="http://www.w3.org/1999/xlink" width="0" height="0" style="position:absolute">
	
		<symbol id="icon-about" viewBox="0 0 38 38">
			<title>icon-about</title><path d="M24 20h-9.9a1 1 0 0 0-1 1 .94.94 0 0 0 1 1H24a1 1 0 0 0 0-2zm2-5.9H12.1a1 1 0 1 0 0 2H26a1 1 0 0 0 0-2zM19 3.15c-8.7 0-15.8 6.2-15.8 13.9a13.17 13.17 0 0 0 5.9 10.8v7l6.9-4.2a14.53 14.53 0 0 0 3 .3c8.7 0 15.8-6.2 15.8-13.9s-7-13.9-15.8-13.9zm0 25.7a11.49 11.49 0 0 1-3.3-.4l-4.7 2.8.1-4.6a11.18 11.18 0 0 1-5.9-9.6c0-6.6 6.2-11.9 13.9-11.9S33 10.45 33 17.05s-6.3 11.8-14 11.8z"></path>
		</symbol>
	
		<symbol id="icon-armchair-square" viewBox="0 0 75 75">
			<title>armchair</title><path d="M22.69 53.94h2.78v-5.56h24.07v5.56h2.78v-5.56h3v-16h-3v-12.7H22.69v12.73h-3v16h3.24v5.56zm2.78-31.48h24.07v10h-2.78v6.71H28.24v-6.76h-2.78zm-3 12.73h3v6.48h24.07V35h3v10.37H22.45z"></path><path d="M0 0v75h75V0zm72.22 72.22H2.78V2.78h69.44z"></path>
		</symbol>
	
		<symbol id="icon-arrow-down" viewBox="0 0 18 18">
			<title>icon-arrow-down</title><path d="M9 14a1.22 1.22 0 0 1-.87-.36L.59 6.1a1.23 1.23 0 0 1 1.74-1.74L9 11l6.67-6.67a1.23 1.23 0 0 1 1.74 1.77l-7.54 7.54A1.22 1.22 0 0 1 9 14z"></path>
		</symbol>
	
		<symbol id="icon-arrow-down-thick" viewBox="0 0 24 24">
			<title>icon-arrow-down-thick</title><path d="M24,24H0V0H24Z" fill="none"/>
  		<path data-name="Path" d="M5.582,4.173,1.7.292A1,1,0,0,0,.292,1.7l4.59,4.59a1,1,0,0,0,1.41,0l4.59-4.59a1,1,0,0,0,0-1.41,1.017,1.017,0,0,0-1.42,0Z" transform="translate(6.418 8.998)"/>
		</symbol>
	
		<symbol id="icon-arrow-left" viewBox="0 0 18 18">
			<title>icon-arrow-left</title><path d="M4 9a1.22 1.22 0 0 1 .36-.87L11.89.57a1.23 1.23 0 0 1 1.74 1.74L7 9l6.67 6.67a1.24 1.24 0 0 1-1.77 1.74L4.35 9.85A1.22 1.22 0 0 1 4 9z"></path>
		</symbol>
	
		<symbol id="icon-arrow-right" viewBox="0 0 18 18">
			<title>icon-arrow-right</title><path d="M14 9a1.22 1.22 0 0 1-.36.87L6.11 17.4a1.23 1.23 0 0 1-1.74-1.74L11 9 4.34 2.32A1.24 1.24 0 0 1 6.11.58l7.54 7.54A1.22 1.22 0 0 1 14 9z"></path>
		</symbol>
	
		<symbol id="icon-at" viewBox="0 0 22 22">
			<title>icon-at</title><path d="M14.6 5.5h1.69L15.13 12a3.54 3.54 0 0 0 0 1.64.76.76 0 0 0 .81.51 2.87 2.87 0 0 0 1.23-.29 3.13 3.13 0 0 0 1.07-.86 4.83 4.83 0 0 0 .76-1.52 7 7 0 0 0 .31-2.17 7.22 7.22 0 0 0-.61-3.09 5.77 5.77 0 0 0-1.65-2.11A6.76 6.76 0 0 0 14.6 2.9a11.66 11.66 0 0 0-3.06-.39A8.93 8.93 0 0 0 8 3.18 8.74 8.74 0 0 0 5.24 5a8.57 8.57 0 0 0-1.87 2.85 9.13 9.13 0 0 0-.67 3.53 9.66 9.66 0 0 0 .56 3.38 6.84 6.84 0 0 0 1.66 2.55 7.23 7.23 0 0 0 2.68 1.61 11 11 0 0 0 3.68.57 8.83 8.83 0 0 0 1.59-.17 6.86 6.86 0 0 0 1.61-.51l.75 2.32a7.88 7.88 0 0 1-2 .67 12.78 12.78 0 0 1-2.35.19 13.44 13.44 0 0 1-4.33-.68 9.71 9.71 0 0 1-3.44-2A9 9 0 0 1 .82 16 11.67 11.67 0 0 1 0 11.49a11.56 11.56 0 0 1 .94-4.76A11 11 0 0 1 7.16.81 12.18 12.18 0 0 1 11.59 0a12.89 12.89 0 0 1 4.12.64A9.8 9.8 0 0 1 19 2.47a8.44 8.44 0 0 1 2.2 2.92 9.26 9.26 0 0 1 .8 3.92 7.73 7.73 0 0 1-.54 2.9 7.2 7.2 0 0 1-3.71 3.91 6.45 6.45 0 0 1-2.75.58 4.42 4.42 0 0 1-1.12-.13 2 2 0 0 1-.87-.45 1.88 1.88 0 0 1-.52-.82 3.25 3.25 0 0 1-.1-1.25h-.09q-.36.51-.78 1a6.61 6.61 0 0 1-.93.86 4.43 4.43 0 0 1-1.11.59 3.9 3.9 0 0 1-1.33.22 2.5 2.5 0 0 1-1.1-.25 2.68 2.68 0 0 1-.92-.71 3.61 3.61 0 0 1-.62-1.11 4.42 4.42 0 0 1-.22-1.45 9 9 0 0 1 .48-2.91 8.76 8.76 0 0 1 1.31-2.5A6.94 6.94 0 0 1 9.05 6a4.43 4.43 0 0 1 2.32-.66 3.56 3.56 0 0 1 1.43.25 4.54 4.54 0 0 1 1.06.66zm-1.52 2.92a2.54 2.54 0 0 0-.65-.42 2.1 2.1 0 0 0-.84-.15 2.37 2.37 0 0 0-1.34.41 3.91 3.91 0 0 0-1.06 1.08 5.09 5.09 0 0 0-.68 1.46 5.56 5.56 0 0 0-.25 1.58 2.35 2.35 0 0 0 .33 1.3 1.23 1.23 0 0 0 1.12.5 1.53 1.53 0 0 0 .72-.2 3.42 3.42 0 0 0 .75-.54 6.94 6.94 0 0 0 .7-.77 7.87 7.87 0 0 0 .6-.92z"></path>
		</symbol>
	
		<symbol id="icon-balloon" viewBox="0 0 26 26">
			<title>icon-balloon</title><path d="M5 20l2.8 3.69a.84.84 0 0 0 1.3 0L12 20h11a1 1 0 0 0 1-1V6a1 1 0 0 0-1-1H3a1 1 0 0 0-1 1v13a.94.94 0 0 0 1 1zM6 9.2a.22.22 0 0 1 .2-.2h12.6a.22.22 0 0 1 .2.2v.6a.22.22 0 0 1-.2.2H6.2a.22.22 0 0 1-.2-.2v-.6zm0 3a.22.22 0 0 1 .2-.2h12.6a.22.22 0 0 1 .2.2v.6a.22.22 0 0 1-.2.2H6.2a.22.22 0 0 1-.2-.2v-.6zm0 3a.22.22 0 0 1 .2-.2h8.6a.22.22 0 0 1 .2.2v.6a.22.22 0 0 1-.2.2H6.2a.22.22 0 0 1-.2-.2v-.6z"></path>
		</symbol>
	
		<symbol id="icon-bar" viewBox="0 0 40 40">
			<title>icon-bar</title><path d="M35.7 9.9a1.06 1.06 0 0 0 .2-1.2 1.2 1.2 0 0 0-1-.7h-8.3l1.3-2.7a2.41 2.41 0 0 0 3-1.2 2.57 2.57 0 0 0-1-3.1l.3-.6a.37.37 0 0 0-.2-.5.37.37 0 0 0-.5.2l-.3.6a2.41 2.41 0 0 0-3 1.2 2.46 2.46 0 0 0 1 3.1l-1.4 3H5.1a1.2 1.2 0 0 0-1 .7 1.06 1.06 0 0 0 .2 1.2L19 25.3v12.8h-4.1a1 1 0 0 0-1 1 .94.94 0 0 0 1 1h10.2a1 1 0 0 0 1-1 .94.94 0 0 0-1-1H21V25.3zm-10.9.3l-1.4 3H12.1l7.9 8.3 7.9-8.3h-3.7l1.4-3h6.7L20 23.2l-12.4-13z"></path>
		</symbol>
	
		<symbol id="icon-bed" viewBox="0 0 26 26">
			<title>icon-bed</title><path d="M23.9 17.15v4.2H26v-6.2H2.1v-8.5a.91.91 0 0 0-.3-.7.91.91 0 0 0-.7-.3.91.91 0 0 0-.7.3.55.55 0 0 0-.4.6v14.8h2.1v-4.2h21.8z"></path><path d="M5.4 10.75a2 2 0 0 0 1.4-.6 1.76 1.76 0 0 0 .6-1.3 1.61 1.61 0 0 0-.6-1.3A1.82 1.82 0 0 0 5.4 7a1.49 1.49 0 0 0-1.3.6 1.76 1.76 0 0 0-.6 1.3 1.61 1.61 0 0 0 .6 1.3 1.29 1.29 0 0 0 1.3.55z"></path><path d="M26 13.45v-2.5a1.28 1.28 0 0 0-.4-1 2.22 2.22 0 0 0-1.1-.5L9.4 7.95h-.1a1 1 0 0 0-1 1v2.9H4.5c-.6 0-1 .3-1 .8s.3.8 1 .8z"></path>
		</symbol>
	
		<symbol id="icon-binoculars" viewBox="0 0 26 26">
			<title>icon-binoculars</title><path d="M6.6 8.05l1.3-2.2a2.23 2.23 0 0 1 1.8-1 2.1 2.1 0 0 1 1.8 1h2.9a2.23 2.23 0 0 1 1.8-1 2.1 2.1 0 0 1 1.8 1l1.3 2.2a5.9 5.9 0 0 0-1.4-.2 4.19 4.19 0 0 0-3.5 1.9h-3.2a4.19 4.19 0 0 0-3.5-1.9 1.68 1.68 0 0 0-1.1.2zm17.2 8.3a4.8 4.8 0 0 1-4.8 4.8 5 5 0 0 1-4.1-2.2 2.2 2.2 0 0 1-1.9.9 2.65 2.65 0 0 1-1.9-.9 5 5 0 0 1-4.1 2.2 4.8 4.8 0 0 1-4.8-4.8 4.46 4.46 0 0 1 .8-2.6l2.6-4.2a3.26 3.26 0 0 1 2.3-1 3.45 3.45 0 0 1 2.9 1.7l.1.2H15l.1-.2a3.24 3.24 0 0 1 2.9-1.7 2.9 2.9 0 0 1 2.3 1l2.6 4.2a3.46 3.46 0 0 1 .9 2.6zm-13.6 0a3 3 0 0 0-3-3 3 3 0 1 0 0 6 3 3 0 0 0 3-3zm4 1.2a1.1 1.1 0 1 0-1.1 1.1 1.11 1.11 0 0 0 1.1-1.1zm7.8-1.2a3 3 0 1 0-3 3 2.95 2.95 0 0 0 3-3z"></path>
		</symbol>
	
		<symbol id="icon-blue-heart" viewBox="0 0 24.68 22.96">
			<path d="M12.27 4.35A6.19 6.19 0 0 1 18 .5c3.42 0 5.88 2.93 6.19 6.42A6.38 6.38 0 0 1 24 9.34a10.76 10.76 0 0 1-3.27 5.45l-8.41 7.5L4 14.79A10.68 10.68 0 0 1 .74 9.34a6.39 6.39 0 0 1-.2-2.42C.85 3.43 3.32.5 6.74.5a6 6 0 0 1 5.53 3.85z"></path>
		</symbol>
	
		<symbol id="icon-bus-square" viewBox="0 0 75 75">
			<title>bus</title><path d="M36.81 44.91a6 6 0 0 0-6 6 6 6 0 1 0 6-6zm0 9.49A3.24 3.24 0 1 1 40 51.16a3.16 3.16 0 0 1-3.19 3.24z"></path><path d="M56 24.31H42.13l3.7 17.59H56v2.78h-4.4v2.78H56v3H45.37v2.78H58.8V18.06H17.59v2.78H56zm-7.85 14.81l-2.55-12H56v12zM17.59 50.23h10.65v2.78H17.59z"></path><path d="M39.35 24.07h-11.8v15.74h11.8zM36.57 37h-6.25V26.85h6.25zM24.77 24.07h-7.18v2.78h4.4v10.19h-4.4v2.77h7.18V24.07z"></path><path d="M0 0v75h75V0zm72.22 72.22H2.78V2.78h69.44z"></path>
		</symbol>
	
		<symbol id="icon-calendar" viewBox="0 0 24 24">
			<title>icon-calender</title><path d="M8.95 13.16a.51.51 0 0 0-.51-.51H6.66a.51.51 0 0 0-.51.51v1.78a.51.51 0 0 0 .51.51h1.78a.51.51 0 0 0 .51-.51v-1.78zM13.4 13.16a.51.51 0 0 0-.51-.51h-1.78a.51.51 0 0 0-.51.51v1.78a.51.51 0 0 0 .51.51h1.78a.51.51 0 0 0 .51-.51zM17.86 13.16a.51.51 0 0 0-.51-.51h-1.79a.51.51 0 0 0-.51.51v1.78a.51.51 0 0 0 .51.51h1.78a.51.51 0 0 0 .51-.51zM8.95 17.62a.51.51 0 0 0-.51-.51H6.66a.51.51 0 0 0-.51.51v1.78a.51.51 0 0 0 .51.51h1.78a.51.51 0 0 0 .51-.51v-1.78zM13.4 17.62a.51.51 0 0 0-.51-.51h-1.78a.51.51 0 0 0-.51.51v1.78a.51.51 0 0 0 .51.51h1.78a.51.51 0 0 0 .51-.51zM17.86 17.62a.51.51 0 0 0-.51-.51h-1.79a.51.51 0 0 0-.51.51v1.78a.51.51 0 0 0 .51.51h1.78a.51.51 0 0 0 .51-.51v-1.78z"></path><path d="M21 3v2.73A2.22 2.22 0 0 1 18.81 8h-1.4a2.23 2.23 0 0 1-2.24-2.22V3H8.83v2.73A2.23 2.23 0 0 1 6.59 8h-1.4A2.22 2.22 0 0 1 3 5.73V3a2 2 0 0 0-2 2v16a2 2 0 0 0 2 2h18a2 2 0 0 0 2-2V5a2 2 0 0 0-2-2zm-.5 17.13a.88.88 0 0 1-.88.87H4.38a.88.88 0 0 1-.88-.87v-8.26a.88.88 0 0 1 .88-.87h15.24a.88.88 0 0 1 .88.87z"></path><path d="M5.18 6.74h1.39A.76.76 0 0 0 7.34 6V1.51a.76.76 0 0 0-.77-.76H5.18a.76.76 0 0 0-.76.76V6a.76.76 0 0 0 .76.74zM17.39 6.74h1.39a.76.76 0 0 0 .76-.74V1.51a.76.76 0 0 0-.76-.76h-1.39a.76.76 0 0 0-.76.76V6a.76.76 0 0 0 .76.74z"></path>
		</symbol>
	
		<symbol id="icon-camera" viewBox="0 0 32 32">
			<title>icon-camera</title><path d="M9.5 18a6.5 6.5 0 1 0 6.5-6.5A6.49 6.49 0 0 0 9.5 18zM30 7h-7c-.5-2-1-4-3-4h-8c-2 0-2.5 2-3 4H2a2 2 0 0 0-2 2v18a2 2 0 0 0 2 2h28a2 2 0 0 0 2-2V9a2 2 0 0 0-2-2zM16 26.9a8.9 8.9 0 1 1 8.9-8.9 8.92 8.92 0 0 1-8.9 8.9zM30 13h-4v-2h4z"></path>
		</symbol>
	
		<symbol id="icon-checkmark" viewBox="0 0 20 20">
			<title>icon-checkmark</title><path d="M7.057,12.39a1.328,1.328,0,0,1-1.88,0L.39,7.6a1.329,1.329,0,0,1,1.88-1.88l3.84,3.84L15.283.39a1.329,1.329,0,1,1,1.88,1.88Z"></path>
		</symbol>
	
		<symbol id="icon-chef-hat" viewBox="0 0 34 34">
			<title>icon-chef-hat</title><path d="M2.34 11.75a5.29 5.29 0 0 1 2.95-3.22c.34-.14.69-.21 1.1-.34 0-.14-.07-.21-.07-.27a4.44 4.44 0 0 1 1.51-6 7.33 7.33 0 0 1 8.37 0 1.54 1.54 0 0 0 1.85 0c3.09-1.85 6-1.78 8.64.27A4.39 4.39 0 0 1 28 7.91c-.07.07-.07.21-.14.34.34.14.69.21 1 .34a4.57 4.57 0 0 1 2.88 2.95 4.69 4.69 0 0 1-2 5.08 7.19 7.19 0 0 1-3.7 1c-.55 0-.69.21-.69.75v11.36a2.64 2.64 0 0 1-1.58 2.54 12.33 12.33 0 0 1-4.46 1.23 17.9 17.9 0 0 1-7.13-.55 15.18 15.18 0 0 1-2.4-1.1 2 2 0 0 1-1-1.85V18.34c0-.55-.14-.75-.69-.75a7.65 7.65 0 0 1-3.43-.82C2 15.12 2.27 13.26 2.2 13.13a4.9 4.9 0 0 1 .14-1.38zm21.2 3.85a2.32 2.32 0 0 1 .55.21 4.34 4.34 0 0 0 5-1.17 2.81 2.81 0 0 0 .91-2.47A2.51 2.51 0 0 0 28.47 10c-1.1-.41-2.26-.62-3.5-1a3.44 3.44 0 0 1 .48-.55c1.58-1.44 1.78-3.22.27-4.73a4.51 4.51 0 0 0-4-1.65 7.64 7.64 0 0 0-4.22 2.35c-.14.14-.27.21-.27.27-.75-.55-1.44-1.1-2.13-1.58a5.14 5.14 0 0 0-3.57-1 4.9 4.9 0 0 0-2.74 1.3 3.23 3.23 0 0 0-1.3 2.79 4 4 0 0 0 1.3 2.4c.14.21.21.41.34.62a17.78 17.78 0 0 0-2.88.62 2.86 2.86 0 0 0-1.85 3.77 4.57 4.57 0 0 0 4.66 2.47c.55-.14 1.1-.34 1.71-.48v12.14a18.35 18.35 0 0 1 12.69.07c.08-4.05.08-8.1.08-12.21zM17 28.15c-.41 0-1.23.07-1.71.07a13.54 13.54 0 0 0-3.09.89c-.41.21-.82.41-.82 1s.41.75.75 1a6.44 6.44 0 0 0 1 .41 15.12 15.12 0 0 0 6.31.34 9.2 9.2 0 0 0 2.79-.86c.82-.41.82-1.1.07-1.58a4.19 4.19 0 0 0-1-.48 12.71 12.71 0 0 0-4.3-.79z"></path>
		</symbol>
	
		<symbol id="icon-coin-stack" viewBox="0 0 27 27">
			<title>icon-coin-stack</title><path d="M7.74 14.31a16.54 16.54 0 0 0 2.154-.14V6.33a16.54 16.54 0 0 0-2.154-.14C3.472 6.19.012 7.83.012 9.85v.8c0 2.02 3.46 3.66 7.728 3.66zm0 4.09a16.54 16.54 0 0 0 2.154-.14v-2.3a14.927 14.927 0 0 1-2.154.15c-3.725 0-6.835-1.25-7.566-2.92a1.876 1.876 0 0 0-.162.75v.8c0 2.02 3.46 3.66 7.728 3.66zm2.154 1.83v-.18a16.5 16.5 0 0 1-2.154.15c-3.725 0-6.835-1.25-7.566-2.92a1.84 1.84 0 0 0-.162.75v.8c0 2.02 3.46 3.66 7.728 3.66a15.838 15.838 0 0 0 2.442-.19 2.959 2.959 0 0 1-.288-1.28v-.79zm8.99-20.24c-4.269 0-7.729 1.64-7.729 3.66v.79c0 2.03 3.46 3.67 7.729 3.67s7.728-1.64 7.728-3.67v-.79c0-2.02-3.46-3.66-7.728-3.66zm0 9.91c-3.726 0-6.836-1.25-7.566-2.91a1.825 1.825 0 0 0-.163.75v.79c0 2.03 3.46 3.67 7.729 3.67s7.728-1.64 7.728-3.67v-.79a1.825 1.825 0 0 0-.163-.75c-.73 1.66-3.837 2.91-7.565 2.91zm0 4.09c-3.726 0-6.836-1.25-7.566-2.91a1.825 1.825 0 0 0-.163.75v.79c0 2.03 3.46 3.67 7.729 3.67s7.728-1.64 7.728-3.67v-.79a1.825 1.825 0 0 0-.163-.75c-.73 1.66-3.837 2.91-7.565 2.91zm0 4.31c-3.726 0-6.836-1.25-7.566-2.91a1.825 1.825 0 0 0-.163.75v.79c0 2.03 3.46 3.67 7.729 3.67s7.728-1.64 7.728-3.67v-.79a1.825 1.825 0 0 0-.163-.75c-.73 1.66-3.837 2.91-7.565 2.91zm0 4.09c-3.726 0-6.836-1.25-7.566-2.91a1.825 1.825 0 0 0-.163.75v.79c0 2.03 3.46 3.67 7.729 3.67s7.728-1.64 7.728-3.67v-.79a1.825 1.825 0 0 0-.163-.75c-.73 1.66-3.837 2.91-7.565 2.91z"></path>
		</symbol>
	
		<symbol id="icon-convention" viewBox="0 0 38 38">
			<title>icon-convention</title><path d="M37 8.76v11.3s-2.3.5-2.8.5a3.13 3.13 0 0 1-3.1-.5c-1.7-1.7-7.7-7.8-7.7-7.8a2.26 2.26 0 0 0-2.7-.1c-1.5.8-3.8 2-4.7 2.5a2.14 2.14 0 0 1-1.2.4 2.11 2.11 0 0 1-.7-4.1c2.2-1.4 6.7-4 8.5-5 1.1-.6 2-.7 3.5.7 1.9 1.7 3.7 3.2 3.7 3.2a3 3 0 0 0 1.5.3c1.4-.3 5.7-1.4 5.7-1.4zM13.2 28a2 2 0 0 0-.4-2.2 1.9 1.9 0 0 0-1.9-.5 2 2 0 0 0-.4-2 1.9 1.9 0 0 0-1.9-.5 2 2 0 0 0-.4-2 2.09 2.09 0 0 0-3 .1c-.9.9-1.5 2.5-.7 3.4s1.7.4 2.4.2c-.2.7-.8 1.4-.1 2.3s1.7.4 2.4.2c-.2.7-.7 1.4-.1 2.3s1.8.4 2.6.2c-.3.8-.9 1.6-.1 2.5s2.6.5 3.5-.4a2.22 2.22 0 0 0 .2-3.1 2 2 0 0 0-2.1-.5zm16.3-5.9c-6.4-6.7-3.4-3.5-6.9-7.1a2.17 2.17 0 0 0-2.4-.5 29.62 29.62 0 0 0-3.1 1.5 4.7 4.7 0 0 1-2.1.7 3.67 3.67 0 0 1-3.6-3.7 4 4 0 0 1 1.7-3.2c1.4-1 4.7-2.9 4.7-2.9a4.09 4.09 0 0 0-3.2-1.3c-2.2 0-6.8 3.1-6.8 3.1a3.44 3.44 0 0 1-3.2.1L1 7.56v12.9a18.48 18.48 0 0 1 1.9.7 4.25 4.25 0 0 1 1-1.7 3.92 3.92 0 0 1 5.5 0 4.17 4.17 0 0 1 .9 1.6 3.77 3.77 0 0 1 1.5.9 4.17 4.17 0 0 1 .9 1.6 3.77 3.77 0 0 1 1.5.9 3.15 3.15 0 0 1 .9 1.7 3.07 3.07 0 0 1 1.5 1 4.36 4.36 0 0 1 1 3.3s.5.6.8.9a1.57 1.57 0 0 0 2.2 0 1.69 1.69 0 0 0 0-2.3l-.1-.1c-2.1-2.2-2.2-2.3-2-2.5s.5.3 2.8 2.7c0 .1.1.1.2.2a1.57 1.57 0 0 0 2.2 0 1.69 1.69 0 0 0 0-2.3l-.1-.1-.1-.1c-2.1-2.2-2.4-2.6-2.2-2.8s1.2.9 3.3 3.1a1.49 1.49 0 0 0 2.2-.1 1.67 1.67 0 0 0 .1-2.2.1.1 0 0 0-.1-.1c-2.7-2.8-2.6-2.8-2.4-3s.2-.2 2.8 2.5a1.57 1.57 0 0 0 2.2 0 1.35 1.35 0 0 0 .1-2.2z"></path>
		</symbol>
	
		<symbol id="icon-cross" viewBox="0 0 14 14">
			<title>icon-cross</title><path d="M1.18875 12.8112C1.672 13.2944 2.4555 13.2944 2.93874 12.8112L7.53246 8.21743L12.0168 12.7018C12.4397 13.1247 13.1252 13.1247 13.5481 12.7018V12.7018C13.9709 12.279 13.9709 11.5934 13.5481 11.1706L9.06368 6.6862L13.4387 2.31117C13.922 1.82792 13.922 1.04442 13.4387 0.561176V0.561176C12.9555 0.077927 12.172 0.0779262 11.6887 0.561175L7.31369 4.93621L2.82928 0.451822C2.40645 0.0289872 1.7209 0.0289885 1.29806 0.451825V0.451825C0.875224 0.874662 0.875225 1.56022 1.29806 1.98305L5.78247 6.46743L1.18875 11.0612C0.705505 11.5444 0.705505 12.3279 1.18875 12.8112V12.8112Z" fill="black"/>
		</symbol>

		<symbol id="icon-lightbox-cross" viewBox="0 0 14 14">
			<title>icon-cross</title><path d="M1.18875 12.8112C1.672 13.2944 2.4555 13.2944 2.93874 12.8112L7.53246 8.21743L12.0168 12.7018C12.4397 13.1247 13.1252 13.1247 13.5481 12.7018V12.7018C13.9709 12.279 13.9709 11.5934 13.5481 11.1706L9.06368 6.6862L13.4387 2.31117C13.922 1.82792 13.922 1.04442 13.4387 0.561176V0.561176C12.9555 0.077927 12.172 0.0779262 11.6887 0.561175L7.31369 4.93621L2.82928 0.451822C2.40645 0.0289872 1.7209 0.0289885 1.29806 0.451825V0.451825C0.875224 0.874662 0.875225 1.56022 1.29806 1.98305L5.78247 6.46743L1.18875 11.0612C0.705505 11.5444 0.705505 12.3279 1.18875 12.8112V12.8112Z"></path>
		</symbol>
	
		<symbol id="icon-cutlery" viewBox="0 0 26 26">
			<title>icon-cutlery</title><path d="M17 12.44c1.2.7 3.6.5 5.3-1.3s2.4-4.3.8-6.1c-1.7-1.7-4.3-1-6.1.8s-2 4.1-1.3 5.3c-.2 1-1.5 2.1-2.8 2.8a4.72 4.72 0 0 1-2.3-3.7 2.86 2.86 0 0 0-.8-2.3l-.2-.2L5 4.14l-.4.4 5 4.7-.6.5-4.8-4.8-.4.4 4.8 4.8-.5.5-4.8-4.8-.4.4L7.69 11l-.6.6-4.7-5-.4.5 3.8 4.8.1.1a3 3 0 0 0 1.9.7 4.66 4.66 0 0 1 3.7 2.1l-7.1 7.1a1.21 1.21 0 0 0 0 1.6l.1.1a1.21 1.21 0 0 0 1.6 0l6.9-6.9 6.9 6.9a1.21 1.21 0 0 0 1.6 0 1.12 1.12 0 0 0 0-1.6l-7.1-7.1c.7-1.06 1.7-2.26 2.61-2.46zm-.6-3.3a4.4 4.4 0 0 1 .2-1c.1-.2.1-.4.2-.5l.3-.6a3.45 3.45 0 0 1 .8-.9 5.55 5.55 0 0 0 .8-.6 4.88 4.88 0 0 0 .7-.3.77.77 0 0 1 .3-.1l-.2.2-.5.5a10.28 10.28 0 0 0-1.4 1.5c-.1.1-.2.3-.3.4s-.2.3-.2.5-.3.6-.4.9a2.54 2.54 0 0 0-.2.7v.3a.44.44 0 0 1-.1-.3z"></path>
		</symbol>
	
		<symbol id="icon-disabled" viewBox="0 0 40 40">
			<title>icon-disabled</title><path d="M12.5 37.7a13.7 13.7 0 0 1-6.9-18 13.08 13.08 0 0 1 6.6-6.7l.1 3.8a10.17 10.17 0 0 0-3.6 4.3 10.3 10.3 0 0 0 18.8 8.4c.1-.1.1-.3.2-.4l2 3.4a13.85 13.85 0 0 1-17.2 5.2zm20-3.4l-7-12.1H14L13.5 6a3.12 3.12 0 1 1 4.8-1.2 3.32 3.32 0 0 1-1.8 1.7l.6 6.3h7.7c3.2 0 3.2 3 .5 3h-7.7l.4 3.1h9.5L33.7 30l1.7-.9c2.7-1.4 4.4 1.3 1.4 2.9s-4.3 2.3-4.3 2.3z"></path>
		</symbol>
	
		<symbol id="icon-drink-square" viewBox="0 0 75 75">
			<title>drink</title><path d="M21.06 24.54a5.15 5.15 0 0 0 1.85 3 4.45 4.45 0 0 0 2.78.93h.69a3.29 3.29 0 0 0 1.4-.47l1.85 2.08h-9L38 48.84v6h-5.82v2.78H46.3v-2.76h-5.79v-6.25l16.43-18.52H33.33l-3.7-3.94a6.41 6.41 0 0 0 .69-3 5.15 5.15 0 0 0-1.85-3 4.69 4.69 0 0 0-3.47-.94 3.29 3.29 0 0 0-1.39.46L22 17.82l-2.08 1.85 1.62 1.85a4.41 4.41 0 0 0-.48 3.02zm29.86 8.33l-11.8 13.19-12.27-13.19h5.32l6.48 6.94L40.74 38l-4.86-5.09zm-23.37-9.26a2 2 0 0 1-.47 1.39h-.23c0 .23-.23.23-.46.23s-.46.23-.69.23a1.8 1.8 0 0 1-2.08-1.62V22.92a.81.81 0 0 1 .23-.46 1.27 1.27 0 0 1 1.15-.7h.46a2.49 2.49 0 0 1 2.09 1.85z"></path><path d="M0 0v75h75V0zm72.22 72.22H2.78V2.78h69.44z"></path>
		</symbol>
	
		<symbol id="icon-envelope-square" viewBox="0 0 75 75">
			<title>icon-envelope-square</title><path d="M0 0v75h75V0H0zm72.22 72.22H2.78V2.78h69.45l-.01 69.44z"></path><path d="M57.93 19.46H17.07c-2.58.01-4.67 2.1-4.68 4.68v26.72c.01 2.58 2.1 4.67 4.68 4.68h40.86c2.58-.01 4.67-2.1 4.68-4.68V24.14a4.699 4.699 0 0 0-4.68-4.68zm1.6 31.55a1.52 1.52 0 0 1-1.52 1.46H16.92a1.52 1.52 0 0 1-1.46-1.52V24.76l14.2 12.41-8.39 7.84-.16.21c-.1.23-.29.53-.31 1.02-.01.35.16.76.45 1.03l.01.01c.28.26.64.41 1.02.41l.11-.01h.07c.37 0 .74-.14 1.01-.4l8.58-8.02 2 1.75.06.05c.98.7 2.16 1.09 3.37 1.12h.19c1.23 0 2.43-.4 3.41-1.13l.04-.03 1.92-1.66 8.48 7.93c.27.26.64.4 1.01.4l.09-.01.09.01c.38 0 .74-.15 1.02-.41l.01-.01.15-.15.07-.08c.2-.26.3-.58.3-.89 0-.42-.19-.84-.54-1.13l-8.27-7.73 14.07-12.15v25.74l.01.13zM39.02 38.66c-.43.29-.92.44-1.42.44-.5 0-.99-.15-1.42-.44L17.72 22.53h39.97L39.02 38.66z"></path>
		</symbol>
	
		<symbol id="icon-facebook" viewBox="0 0 41 41">
			<title>facebook</title><path d="M29.3 13.8h-6V9.9c-.1-.9.5-1.8 1.4-1.9h4.4l.2-6.5h-5.8c-6.5 0-8.1 4.9-8.1 8.1V14h-3.7v6.7h3.7v19h7.9v-19h5.3l.7-6.9z"></path>
		</symbol>
	
		<symbol id="icon-facebook-square" viewBox="0 0 75 75">
			<title>facebook</title><path d="M72.22 2.78v69.44H2.78V2.78h69.44M75 0H0v75h75V0z"></path><path d="M46.3 30.79h-6v-3.94A1.64 1.64 0 0 1 41.9 25h4.17l.23-6.48h-5.79c-6.48 0-8.1 4.86-8.1 8.1V31H28.7v6.71h3.7v19h7.87v-19h5.33z"></path>
		</symbol>
	
		<symbol id="icon-gift-box" viewBox="0 0 34 34">
			<title>icon-gift-box</title><path d="M20 31h7.18A1.8 1.8 0 0 0 29 29.26V15.14h-9zM5 29.25A1.8 1.8 0 0 0 6.83 31H14V15.14H5zM29.14 9H20v5.1h9.15A1.8 1.8 0 0 0 31 12.36v-1.6A1.81 1.81 0 0 0 29.14 9zM3 10.76v1.61a1.8 1.8 0 0 0 1.85 1.75H14V9H4.87A1.81 1.81 0 0 0 3 10.76zM26.55 7.11a2.21 2.21 0 0 0 .51-2C26.76 3.8 25.29 3 23.2 3a9.91 9.91 0 0 0-2.7.39 8.05 8.05 0 0 0-1.61.66 3.43 3.43 0 0 0-1.12-.48 3.77 3.77 0 0 0-.77-.11 3.81 3.81 0 0 0-.81.12 3.35 3.35 0 0 0-1.09.47 8.15 8.15 0 0 0-1.57-.66A9.93 9.93 0 0 0 10.81 3C8.72 3 7.25 3.8 7 5.08a2.21 2.21 0 0 0 .51 2c.81.88 2.38 1.32 4.94 1.32h9.15c2.57.03 4.15-.4 4.95-1.29zm-12.77-.76h-1.36c-2.56 0-3.11-.45-3.19-.55s-.09-.08 0-.32.52-.41 1.63-.41a7.61 7.61 0 0 1 2 .31 5.56 5.56 0 0 1 1 .39 2.85 2.85 0 0 0-.08.58zm6.39-.59a5.74 5.74 0 0 1 1-.39 7.6 7.6 0 0 1 2-.3c1.11 0 1.59.32 1.63.41a.51.51 0 0 1 0 .31s-.64.55-3.19.55h-1.4a2.85 2.85 0 0 0-.09-.59z"></path>
		</symbol>
	
		<symbol id="icon-globe" viewBox="0 0 31.416 31.416">
			<path d="M28.755 6.968l-.47.149-2.503.223-.707 1.129-.513-.163L22.57 6.51l-.289-.934-.387-.996-1.252-1.123-1.477-.289-.034.676 1.447 1.412.708.834-.796.416-.648-.191-.971-.405.033-.783-1.274-.524-.423 1.841-1.284.291.127 1.027 1.673.322.289-1.641 1.381.204.642.376h1.03l.705 1.412 1.869 1.896-.137.737-1.507-.192-2.604 1.315-1.875 2.249-.244.996h-.673l-1.254-.578-1.218.578.303 1.285.53-.611.932-.029-.065 1.154.772.226.771.866 1.259-.354 1.438.227 1.67.449.834.098 1.414 1.605 2.729 1.605-1.765 3.372-1.863.866-.707 1.927-2.696 1.8-.287 1.038c6.892-1.66 12.019-7.851 12.019-15.253a15.639 15.639 0 0 0-2.66-8.739z"></path><path d="M17.515 23.917l-1.144-2.121 1.05-2.188-1.05-.314-1.179-1.184-2.612-.586-.867-1.814v1.077h-.382L9.08 13.735v-2.507L7.43 8.545l-2.62.467H3.045l-.888-.582 1.133-.898-1.13.261a15.61 15.61 0 0 0-2.156 7.916c0 8.673 7.031 15.707 15.705 15.707.668 0 1.323-.059 1.971-.137l-.164-1.903s.721-2.826.721-2.922c-.001-.097-.722-2.537-.722-2.537zM5.84 5.065l2.79-.389 1.286-.705 1.447.417 2.312-.128.792-1.245 1.155.19 2.805-.263.773-.852 1.09-.728 1.542.232.562-.085A15.65 15.65 0 0 0 15.708 0 15.662 15.662 0 0 0 3.596 5.711h.008l2.236-.646zm10.532-3.503l1.604-.883 1.03.595-1.491 1.135-1.424.143-.641-.416.922-.574zm-4.751.129l.708.295.927-.295.505.875-2.14.562-1.029-.602c-.001 0 1.006-.648 1.029-.835z"></path>
		</symbol>
	
		<symbol id="icon-googleplus" viewBox="0 0 45 45">
			<title>google+</title><path d="M14.7 21.6v4.9h8.1c-.2 2.1-2.5 6.3-8.1 6.3-4.9-.1-8.9-4.1-9-9-.1-4.9 3.9-8.9 8.8-9h.2c2.2-.1 4.3.7 5.8 2.3l3.9-3.7c-2.6-2.4-6.1-3.8-9.7-3.7C6.8 9.5.4 16 .4 23.9c0 7.9 6.4 14.4 14.3 14.4 8.3 0 13.9-5.8 13.9-14.1 0-.8 0-1.6-.2-2.3l-13.7-.3zM44.6 21.6h-4.2v-4.2h-3.9v4.2h-4.2v3.9h4.2v4.2h3.9v-4.2h4.2z"></path>
		</symbol>
	
		<symbol id="icon-googleplus-square" viewBox="0 0 75 75">
			<title>google+</title><path d="M72.22 2.78v69.44H2.78V2.78h69.44M75 0H0v75h75V0z"></path><path d="M32.18 36.57v4.86h8.1c-.23 2.08-2.55 6.25-8.1 6.25a9.19 9.19 0 0 1-9-9 8.89 8.89 0 0 1 9-9A7.92 7.92 0 0 1 38 31.94l3.94-3.7a14.06 14.06 0 0 0-9.72-3.7 14.35 14.35 0 1 0 0 28.7c8.33 0 13.89-5.79 13.89-14.12a7.14 7.14 0 0 0-.23-2.31l-13.66-.23zM62.04 36.57h-4.17v-4.16h-3.93v4.16h-4.17v3.94h4.17v4.17h3.93v-4.17h4.17v-3.94z"></path>
		</symbol>
	
		<symbol id="icon-hamburger" viewBox="0 0 22.5 18">
			<path class="st0" d="M5.2 1.1h17.3v3H5.2zM5.2 7.5h17.3v3H5.2zM5.2 13.9h17.3v3H5.2v-3z"></path><g><path class="st0" d="M0 1.1h3v3H0zM0 7.5h3v3H0z"></path><path d="M0 13.9h3v3H0v-3z"></path></g>
		</symbol>
	
		<symbol id="icon-home" viewBox="0 0 26 26">
			<title>icon-home</title><path d="M24.6 12L13.5 2.3c-.3-.2-.7-.2-1 0l-4 3.4V4.3c0-.8-.7-1.5-1.5-1.5s-1.5.7-1.5 1.5v4l-4.2 3.6c-.3.3-.3.7-.1 1 .3.3.7.3 1 .1l10.7-9.2L23.6 13c.1.1.3.2.5.2s.4-.1.6-.3c.3-.2.2-.6-.1-.9z"></path><path d="M14 7.9c-.3-.2-.6-.3-1-.3s-.7.1-1.1.3L4.5 14c-.3.3-.5.7-.5 1.1v7.3c0 .8.7 1.5 1.5 1.5H10v-7h6v7h4.5c.8 0 1.5-.7 1.5-1.5v-7.3c0-.4-.2-.8-.5-1.1L14 7.9z"></path>
		</symbol>
	
		<symbol id="icon-human" viewBox="0 0 26 26">
			<title>icon-human</title><path d="M17.21 13.85l-2.3-2.6a2.12 2.12 0 0 1-.3-.7l-.1-2.7v-.1a.68.68 0 0 0-.7-.7h-3.2a1 1 0 0 0-.9.6l-3.1 6.5a.64.64 0 0 0 0 .6.78.78 0 0 0 .4.4l.5.2c.1 0 .2.1.3.1a.84.84 0 0 0 .7-.4l1.4-2.9v2.9l-2.4 7.6a.94.94 0 0 0 .1.9 1.34 1.34 0 0 0 .7.6h.5a1.2 1.2 0 0 0 1.2-.9l2.3-7.1.8 2a12.09 12.09 0 0 1 .5 1.8l.4 3.6a1.09 1.09 0 0 0 1.1 1h.5a1.33 1.33 0 0 0 1-1.5l-.6-4.4a14.62 14.62 0 0 0-.5-2l-.8-1.8v-1.3l1.4 1.5a.73.73 0 0 0 1 0l.3-.3a.85.85 0 0 0-.2-.9zM12.41 6.45a2.48 2.48 0 0 0 2.5-2.5 2.5 2.5 0 0 0-5 0 2.54 2.54 0 0 0 2.5 2.5z"></path>
		</symbol>
	
		<symbol id="icon-info" viewBox="0 0 35 35">
			<title>info</title><path d="M25.17.623H2.175A2.174 2.174 0 0 0 0 2.799v21.747c0 1.199.972 2.175 2.175 2.175H25.17a2.178 2.178 0 0 0 2.174-2.175V2.799A2.177 2.177 0 0 0 25.17.623zm.043 22.243a1.841 1.841 0 0 1-1.838 1.837H3.937A1.837 1.837 0 0 1 2.1 22.866V4.479c0-1.013.819-1.837 1.837-1.837h19.438a1.84 1.84 0 0 1 1.838 1.837v18.387z" fill="#0080c8"></path><path d="M15.873 19.939c-1.076.81-1.82 1.216-2.229 1.216-.269 0-.401-.19-.401-.57 0-.706.52-2.985 1.559-6.839.383-1.431.623-2.381.722-2.85.1-.475.151-.838.151-1.097 0-.562-.195-.844-.588-.844-.398 0-.95.188-1.652.562-.699.378-1.697 1.032-2.994 1.967l-.043.189.143.326.158.058a96.714 96.714 0 0 1 1.803-1.035.86.86 0 0 1 .412-.106c.221 0 .33.161.33.487 0 .275-.133 1.031-.393 2.271-.262 1.24-.704 2.967-1.324 5.177a47.878 47.878 0 0 0-.437 1.638 5.924 5.924 0 0 0-.177 1.377c0 .337.08.628.243.876a.76.76 0 0 0 .673.373c.198 0 .447-.064.75-.194.299-.128.803-.433 1.508-.907a41.245 41.245 0 0 0 2.06-1.49l.028-.168-.156-.372-.146-.045zM15.345 4.231c-.459 0-.847.193-1.166.581a2.039 2.039 0 0 0-.479 1.337c0 .36.112.658.336.887s.502.343.836.343c.449 0 .82-.204 1.116-.607.298-.407.443-.868.443-1.382 0-.369-.101-.657-.299-.857-.2-.199-.466-.302-.787-.302z" fill="#0080c8"></path>
		</symbol>
	
		<symbol id="icon-instagram" viewBox="0 0 45 45">
			<title>instagram</title><path d="M34.3 3.5H10.7c-4 0-7.2 3.2-7.2 7.2v23.4c-.1 4 3.2 7.4 7.2 7.4H34.3c4 .1 7.4-3.2 7.4-7.2V10.7c-.2-4-3.4-7.1-7.4-7.2zm2.1 4.4h.9v6.5h-6.5V7.9h5.6zM16.9 18.6c1.3-1.8 3.4-2.8 5.6-2.8 2.2 0 4.2 1.1 5.6 2.8.7 1.2 1.1 2.5 1.2 3.9a6.7 6.7 0 0 1-13.4 0c-.1-1.4.3-2.8 1-3.9zm20.9 15.7c0 2-1.6 3.7-3.6 3.7H10.7c-2 0-3.7-1.6-3.7-3.6V18.8h5.8c-.5 1.3-.7 2.6-.7 3.9.2 5.8 5 10.3 10.7 10.1 5.5-.2 9.9-4.6 10.1-10.1 0-1.3-.2-2.7-.7-3.9H38v15.5h-.2z"></path>
		</symbol>
	
		<symbol id="icon-instagram-square" viewBox="0 0 75 75">
			<title>instagram</title><path d="M72.22 2.78v69.44H2.78V2.78h69.44M75 0H0v75h75V0z"></path><path d="M49.31 18.52H25.69a7.21 7.21 0 0 0-7.18 7.18v23.37a7.31 7.31 0 0 0 7.41 7.41h23.39a7.31 7.31 0 0 0 7.41-7.41V25.69a7.57 7.57 0 0 0-7.41-7.17zm2.08 4.4h.93v6.48h-6.49v-6.48zM31.94 33.56a6.9 6.9 0 0 1 5.56-2.78 7.25 7.25 0 0 1 5.56 2.78 7.8 7.8 0 0 1 1.16 3.94 6.71 6.71 0 1 1-13.43 0 7.8 7.8 0 0 1 1.15-3.94zm20.84 15.75a3.66 3.66 0 0 1-3.7 3.7H25.69a3.66 3.66 0 0 1-3.7-3.7V33.8h5.79a10.81 10.81 0 0 0-.69 3.94 10.42 10.42 0 0 0 20.83 0 10.81 10.81 0 0 0-.69-3.94H53v15.51z"></path>
		</symbol>
	
		<symbol id="icon-landscape" viewBox="0 0 315.58 315.58">
			<path d="M310.58 33.331H5a5 5 0 0 0-5 5v238.918a5 5 0 0 0 5 5h305.58c2.763 0 5-2.238 5-5V38.331c0-2.762-2.237-5-5-5zm-25 209.055l-68.766-71.214a2.047 2.047 0 0 0-2.823-.114l-47.695 41.979-60.962-75.061a2.007 2.007 0 0 0-1.63-.756 2.043 2.043 0 0 0-1.597.822L30 234.797V63.331h255.58v179.055z"></path><path d="M210.059 135.555c13.538 0 24.529-10.982 24.529-24.531 0-13.545-10.991-24.533-24.529-24.533-13.549 0-24.528 10.988-24.528 24.533 0 13.548 10.98 24.531 24.528 24.531z"></path>
		</symbol>
	
		<symbol id="icon-linkedin-square" viewBox="0 0 75 75">
			<title>linkedin</title><path d="M72.22 2.78v69.44H2.78V2.78h69.44M75 0H0v75h75V0z"></path><path d="M29.86 23.61a3.72 3.72 0 0 1-3.94 3.7 3.71 3.71 0 1 1 0-7.41 3.59 3.59 0 0 1 3.94 3.7zm-7.41 27.55h6.95V30.09h-6.95zm24.31-21.53a6.93 6.93 0 0 0-6.25 3.47v-3h-6.95v21.06h6.94V39.35a3.43 3.43 0 0 1 .23-1.62 3.91 3.91 0 0 1 3.7-2.55C47 35.19 47.92 37 47.92 40v11.39h6.94v-12c0-6.71-3.47-9.72-8.1-9.72z"></path>
		</symbol>
	
		<symbol id="icon-loop" viewBox="0 0 20 20">
			<title>icon-loop</title><path d="M18.6 16.64l-3.71-3.71a7.4 7.4 0 0 0 1.34-4.32 7.46 7.46 0 0 0-.6-3 7.46 7.46 0 0 0-4.06-4.01 7.58 7.58 0 0 0-5.92 0A7.46 7.46 0 0 0 1.6 5.66a7.58 7.58 0 0 0 0 5.92 7.46 7.46 0 0 0 4.06 4.06 7.49 7.49 0 0 0 3 .6 7.4 7.4 0 0 0 4.32-1.34l3.71 3.7a1.29 1.29 0 0 0 1 .41 1.38 1.38 0 0 0 1-2.36zM12 12a4.67 4.67 0 0 1-3.42 1.42A4.67 4.67 0 0 1 5.19 12a4.67 4.67 0 0 1-1.42-3.38 4.67 4.67 0 0 1 1.42-3.43 4.66 4.66 0 0 1 3.43-1.42A4.67 4.67 0 0 1 12 5.19a4.67 4.67 0 0 1 1.42 3.42A4.67 4.67 0 0 1 12 12z"></path>
		</symbol>
	
		<symbol id="icon-map-pin" viewBox="0 0 14.16 21.37">
			<title>icon-map-pin</title><path d="M7.08 0A7.23 7.23 0 0 0 0 7.35a7.56 7.56 0 0 0 1.25 4.18l5.83 9.84 5.83-9.84a7.56 7.56 0 0 0 1.25-4.18A7.22 7.22 0 0 0 7.08 0zm0 11.17a4.09 4.09 0 0 1-4.16-4 4.09 4.09 0 0 1 4.16-4 4.09 4.09 0 0 1 4.16 4 4.09 4.09 0 0 1-4.16 4z"></path>
		</symbol>
	
		<symbol id="icon-media" viewBox="0 0 38 38">
			<title>icon-media</title><path d="M36.75 21.7l-6.5 6.5a.37.37 0 0 1-.3.1l-28.1 3.5A.79.79 0 0 1 1 31V14.1L1.15 7a.79.79 0 0 1 .8-.8l4.9.3a.66.66 0 0 1 .7.6l.7 2.8h15.4a.79.79 0 0 1 .8.8v6l-9.3.8a1.56 1.56 0 0 0-1.2.6L3.25 29.7a2.19 2.19 0 0 0-.3.5l2.8-1.3 9.2-10c.1-.1.2-.2.3-.2l17.2-1.5a.55.55 0 0 1 .5.3.47.47 0 0 1-.1.6l-2.1 2.5-11.6 1.2a1.61 1.61 0 0 0-.9.3l-9.8 5.6 10.4-4.9c.1-.1.2-.1.4-.1l17.2-1.8a.55.55 0 0 1 .5.3c.05.2.05.4-.2.5z"></path>
		</symbol>
	
		<symbol id="icon-michelin" viewBox="0 0 34 34">
			<title>icon-michelin</title><path d="M19.82 6.52c.76-.51.51-.89 0-1.27-1.4-1-4.71-1-5.85.13-.25.25-.13.64-.25 1.15a13.71 13.71 0 0 0-2.54.76 8.58 8.58 0 0 0-5.6 8.27A6.35 6.35 0 0 1 4 20c-2 2.54-1.53 5.47.13 8a11.07 11.07 0 0 0 1.65 1.91c.64.76 1.15 1.91.64 2a3.5 3.5 0 0 1-2.29-.13c-2.42-1.65-3.44-4.07-3.69-7a9.25 9.25 0 0 1 1.78-6.74 1.37 1.37 0 0 0 .25-1c0-5 3.05-10.43 8.52-12.21.25-.13.64-.25.76-.51 2.16-2.8 8.14-2.93 10.31 0a2.77 2.77 0 0 0 1 .64A11.61 11.61 0 0 1 31 17.08a1.78 1.78 0 0 0 .38 1.15c3.56 3.82 2 10.69-1.65 13.61a2.39 2.39 0 0 1-1.91.25 1.25 1.25 0 0 1-.38-1 5.65 5.65 0 0 1 1-1.4c1.78-1.91 3.18-4.07 2.67-6.87a6.17 6.17 0 0 0-2.42-3.94 1.39 1.39 0 0 1-.25-1.27 9.16 9.16 0 0 0-7.35-10.84 5.6 5.6 0 0 1-1.27-.25z"></path><path d="M24.4 27.26a7.72 7.72 0 0 1 .89-1.26c.25-.25.64-.25.89-.51a3.93 3.93 0 0 1 .25 1 7.62 7.62 0 0 1-4.43 4.2 11.28 11.28 0 0 1-11.58-1.78 1.71 1.71 0 0 1-.78-.91 1.12 1.12 0 0 1 .13-.89.6.6 0 0 1 .76.13 10.36 10.36 0 0 0 5.34 2.8 5.51 5.51 0 0 1 .64.13c1.91.13 1.91.13 2.16-1.78a7.36 7.36 0 0 1 1.78-4.33 2 2 0 0 1 2.29-.64c.89.25 1.15 1 1.27 1.91a9.63 9.63 0 0 1 .13 1.91zM16.39 15.8a17.82 17.82 0 0 1-.76 3.05 3.4 3.4 0 0 1-3.05 2.54A3.71 3.71 0 0 1 9 19.49a7.35 7.35 0 0 1 .64-8 3.15 3.15 0 0 1 5.47.76 19.94 19.94 0 0 1 1.28 3.55zm-2.16 3.44l.38-.38a6.57 6.57 0 0 0-.38-6.49 2.34 2.34 0 0 0-4.07.25 5.88 5.88 0 0 0-.76 4.83 10.72 10.72 0 0 0 .76 1.78c.13 0 .25-.13.38-.13v-2a1.94 1.94 0 0 1 1.78-1.91 1.74 1.74 0 0 1 1.91 1.65zM26.06 16.06a29.71 29.71 0 0 1-.89 3.18 3.44 3.44 0 0 1-2.93 2.29 3.35 3.35 0 0 1-3.31-1.91 7.1 7.1 0 0 1 .51-8 8.23 8.23 0 0 1 1.15-1 3.08 3.08 0 0 1 3.56.51c1.4 1.37 1.65 3.02 1.91 4.93zm-6.23 3.05h.25c0-.38-.13-.76-.13-1.15s.13-.76.13-1.15A2 2 0 0 1 22 15.17a1.8 1.8 0 0 1 1.91 1.53 5.22 5.22 0 0 1 .13 1.4 3.16 3.16 0 0 0 .13 1c1.65-2.16 1.27-5.85-.64-7.38a2 2 0 0 0-2.93 0 6.24 6.24 0 0 0-1.4 2.54 5 5 0 0 0 .62 4.85z"></path>
		</symbol>
	
		<symbol id="icon-minus-square" viewBox="0 0 52 42">
			<title>icon-minus-square</title><path d="M0 0v42h52V0zm50 40H2V2h48z"></path><path d="M18 20h16v2H18z"></path>
		</symbol>
	
		<symbol id="icon-parking" viewBox="0 0 40 40">
			<title>icon-parking</title><path d="M27.3 8.6c-1.8-1.4-4.4-2.1-8.1-2.1a58.64 58.64 0 0 0-6.6.3 1.75 1.75 0 0 0-1.5 1.8v21.9a3 3 0 0 0 3 3 3 3 0 0 0 3-3v-6.6a12.12 12.12 0 0 0 2 .1c3.5 0 6.6-.9 8.6-2.8a8.45 8.45 0 0 0 2.4-6.4 7.77 7.77 0 0 0-2.8-6.2zm-8.2 10.8a5.57 5.57 0 0 1-2-.2v-7.9a12.14 12.14 0 0 1 2.5-.2c3 0 4.7 1.5 4.7 3.9-.1 2.8-2 4.4-5.2 4.4z"></path><path d="M33.9 0H6.1A6.15 6.15 0 0 0 0 6.2v27.7A6.12 6.12 0 0 0 6.1 40h27.8a6.15 6.15 0 0 0 6.1-6.2V6.2A6.15 6.15 0 0 0 33.9 0zM36 33.8a2.05 2.05 0 0 1-2.1 2.1H6.1A2 2 0 0 1 4 33.8V6.2a2.05 2.05 0 0 1 2.1-2.1h27.8A2.05 2.05 0 0 1 36 6.2v27.6z"></path>
		</symbol>
	
		<symbol id="icon-pdf" viewBox="0 0 30 30">
			<path d="M28.595 7.562l-5.438-6.309-1.078-1.25H9.228a3.122 3.122 0 0 0-3.124 3.124v3.971H8.04l-.001-3.21a1.756 1.756 0 0 1 1.752-1.756l10.994-.01V7.33a3.507 3.507 0 0 0 3.507 3.51h3.807l-.189 15.02a1.76 1.76 0 0 1-1.752 1.754l-16.506-.008c-.883 0-1.594-.866-1.6-1.935V24.4H6.114v1.896c0 1.907 1.277 3.455 2.845 3.455l17.763-.005a3.127 3.127 0 0 0 3.124-3.126V9.016l-1.251-1.454"></path><path d="M20.145 25.368H0V6.129h20.145v19.239M1.934 23.432h16.274V8.065H1.934" fill="#EA4C3A"></path><path d="M10.314 9.069c.305.141.242.328.148 1.201-.097.905-.414 2.554-1.032 4.173-.616 1.622-1.529 3.21-2.325 4.39-.797 1.178-1.478 1.943-1.998 2.386-.519.441-.882.559-1.115.599-.233.04-.339 0-.405-.117-.063-.118-.084-.315-.031-.551.053-.234.181-.51.542-.863.36-.354.956-.785 1.785-1.188.829-.402 1.891-.775 2.762-1.031s1.551-.393 2.146-.5a15.856 15.856 0 0 1 1.604-.226 8.981 8.981 0 0 1 2.815.216c.406.097.745.217 1.042.402.299.187.552.441.681.726.127.286.127.6.021.825-.105.227-.318.364-.563.441-.246.08-.522.099-.851 0-.33-.098-.712-.314-1.115-.599-.404-.284-.829-.638-1.381-1.187a24.627 24.627 0 0 1-1.807-2.023c-.573-.727-1.041-1.434-1.358-2.033a7.476 7.476 0 0 1-.627-1.582 8.414 8.414 0 0 1-.287-1.422 5.019 5.019 0 0 1 .021-1.149c.042-.315.106-.55.213-.708.106-.157.256-.235.362-.275s.169-.04.234-.049c.063-.009.126-.029.222 0 .094.03.216.104.34.18" fill="none" stroke="#EA4C3A" stroke-linejoin="round" stroke-miterlimit="10" stroke-width=".75"></path>
		</symbol>
	
		<symbol id="icon-phone-receiver" viewBox="0 0 34 34">
			<title>icon-phone-receiver</title><path d="M31 24.84a7.2 7.2 0 0 1-3.66 3.71 8 8 0 0 1-6.37-.39 4.74 4.74 0 0 1-3.51.67c-6-4.32-9.88-15-9.88-15a4.43 4.43 0 0 1 1.7-5.17c3.5-2.06 4.53-1.13 4.53-1.13.82.31 1.54 4.22 1.54 4.22-.31 1.44-3 2.06-3 2.06 1.23 3.6 5.76 9.16 5.76 9.16.21-.72 1.85-1.75 1.85-1.75 1-.62 3.91 3 3.91 3 .82.6 0 1.52-.56 2a4.54 4.54 0 0 0 2.93-.1 4.51 4.51 0 0 0 2.23-2.3v-.1l.06-.1A13.33 13.33 0 0 0 7 8.2a13.33 13.33 0 0 0 10.86 22.1A1.34 1.34 0 0 1 18 33h-1A16 16 0 0 1 5 6.43a16 16 0 0 1 26 18.4zm-6-3.34a1.34 1.34 0 0 0 1.73-.76 10.34 10.34 0 0 0-5.99-13.39 1.34 1.34 0 0 0-1 2.49 7.68 7.68 0 0 1 4.38 9.92 1.34 1.34 0 0 0 .79 1.74zm-7.26-9.88a1.34 1.34 0 0 0 .76 1.73 3.91 3.91 0 0 1 2.23 5.06 1.34 1.34 0 1 0 2.49 1 6.59 6.59 0 0 0-3.76-8.52 1.34 1.34 0 0 0-1.81.73z"></path>
		</symbol>
	
		<symbol id="icon-pinterest" viewBox="0 0 45 45">
			<title>pinterest</title><path d="M23.6 2C12.5 2 6.7 10.1 6.7 16.8c0 4.2 1.6 7.6 4.9 9 .5.2.9 0 1.2-.7 0-.5.5-1.4.5-1.8.2-.7 0-.7-.2-1.4-1.1-1.3-1.7-2.9-1.6-4.6-.2-6.2 4.7-11.2 10.8-11.3h.6c6.3 0 9.7 3.9 9.7 9 0 6.7-3 12.5-7.4 12.5-2 .1-3.7-1.4-3.8-3.4 0-.4 0-.8.1-1.2.7-3 2.1-6.3 2.1-8.3 0-1.9-.9-3.5-3.2-3.5-2.5 0-4.6 2.5-4.6 6 0 1.3.2 2.5.7 3.7 0 0-2.5 10.9-3 13-.6 3-.6 6 0 9 0 .2.5.2.5.2 1.9-2.2 3.3-4.8 4.2-7.6.2-1.2 1.6-6.5 1.6-6.5 1.3 1.9 3.5 3 5.8 3 7.6 0 12.7-6.9 12.7-16.2C38.7 8.5 32.7 2 23.6 2z"></path>
		</symbol>
	
		<symbol id="icon-pinterest-square" viewBox="0 0 75 75">
			<title>pinterest</title><path d="M72.22 2.78v69.67H2.78V2.78h69.44M75 0H0v75.23h75.23V0z"></path><path d="M38.43 16.9c-11.11 0-16.9 8.1-16.9 14.81 0 4.17 1.62 7.64 4.86 9 .46.23.93 0 1.16-.69 0-.46.46-1.39.46-1.85.23-.69 0-.69-.23-1.39a7 7 0 0 1-1.62-4.63 11.13 11.13 0 0 1 11.57-11.32c6.25 0 9.72 3.94 9.72 9 0 6.71-3 12.5-7.41 12.5a3.62 3.62 0 0 1-3.7-4.63c.69-3 2.08-6.25 2.08-8.33 0-1.85-.93-3.47-3.24-3.47-2.55 0-4.63 2.55-4.63 6a8.94 8.94 0 0 0 .69 3.7s-2.55 10.88-3 13a22 22 0 0 0 0 9c0 .23.46.23.46.23a22.17 22.17 0 0 0 4.17-7.64c.23-1.16 1.62-6.48 1.62-6.48a6.86 6.86 0 0 0 5.79 3c7.64 0 12.73-6.94 12.73-16.2.46-7.13-5.56-13.61-14.58-13.61z"></path>
		</symbol>
	
		<symbol id="icon-plain-square" viewBox="0 0 75 75">
			<title>plain</title><path d="M36.11 49.77h2.55v5.56h-2.55z"></path><path d="M31.48 45.37v2.78l-7.87 3.94v5.56h8.8l.69.69a5.2 5.2 0 0 0 3.7 1.39h.2q3.47 0 4.86-2.08h9v-5.57l-8.1-4.17v-4.85l18.06 1.85-1.62-6-3.94-2.08v-6.27h-7.34v2.31l-4.63-2.78v-9.26a5.22 5.22 0 0 0-5.56-5.56c-3.7 0-6 2.08-6 5.56v8.8l-5.09 2.78v-2.09h-7.43v6.25l-3.94 2.31-1.62 6 17.82-1.85zm-5.32 9.72v-1.62l5.32-2.78v4.17h-5.32zm22.69-1.62v1.62h-5.56v-4.4zm2.08-20.6h2.31v2.31L50.93 34zm6.71 7.64l.46 1.39-14.58-1.62v-7.41zM34 20.83c0-2.08 1.16-3 3.47-3a2.69 2.69 0 0 1 3 3v33.1c0 2.08-1.16 3-3.47 3a4.42 4.42 0 0 1-2.31-.69 3.54 3.54 0 0 1-.93-2.31v-33.1zm-12.27 12h2.31v.93l-2.31 1.39zm-4.63 9l.46-1.39 8.8-4.86h.23v-.23l4.86-2.78v7.87z"></path><path d="M38.43 22l1.39-2.08a4.6 4.6 0 0 0-4.86 0L36.34 22a1.74 1.74 0 0 1 2.09 0z"></path><path d="M0 0v75h75V0zm72.22 72.22H2.78V2.78h69.44z"></path>
		</symbol>
	
		<symbol id="icon-play-square" viewBox="0 0 75 75">
			<title>play</title><path d="M72.22 2.78v69.44H2.78V2.78h69.44M75 0H0v75h75V0z"></path><path d="M20.37 22.45l30.09 15-30.09 15v-30m-3-5.09v40.28l40-20.14-40-20.14z"></path>
		</symbol>
	
		<symbol id="icon-plus-square" viewBox="0 0 52 42">
			<title>icon-plus-square</title><path d="M0 0v42h52V0zm50 40H2V2h48z"></path><path d="M18 20h16v2H18z"></path><path d="M27 13v16h-2V13z"></path>
		</symbol>
	
		<symbol id="icon-print" viewBox="0 0 20 18">
			<path d="M17 5H3C1.3 5 0 6.3 0 8v6h4v4h12v-4h4V8c0-1.7-1.3-3-3-3zm-3 11H6v-5h8v5zm3-7c-.6 0-1-.4-1-1s.4-1 1-1 1 .4 1 1-.4 1-1 1zm-1-9H4v4h12V0z"></path>
		</symbol>
	
		<symbol id="icon-reception-bell-square" viewBox="0 0 24 24">
			<g><path d="M5.63 17.407h12.741v.889H5.63zM18.371 15.703a6.37 6.37 0 0 0-12.741 0v.444h12.667v-.444zm-11.778-.444a5.407 5.407 0 1 1 10.815 0zM12.074 8.667a1.481 1.481 0 1 0-1.481-1.482 1.407 1.407 0 0 0 1.481 1.481zm0-2.074a.593.593 0 1 1-.593.593.593.593 0 0 1 .593-.593z"></path><path d="M0 0v24h24V0zm23.111 23.111H.889V.889h22.222z"></path></g>
		</symbol>
	
		<symbol id="icon-restaurant" viewBox="0 0 40 40">
			<title>icon-restaurant</title><path d="M21.7 30.1a9.3 9.3 0 1 0-9.3-9.3 9.35 9.35 0 0 0 9.3 9.3z"></path><path d="M21.7 32.6A11.8 11.8 0 1 0 9.9 20.8a11.82 11.82 0 0 0 11.8 11.8zm0-21.8a10 10 0 1 1-10 10 10 10 0 0 1 10-10zM40 33.7l-.6-26.5a1 1 0 0 0-1-1c-.2 0-.3 0-.4.1h-.1c-.1.1-.2.1-.3.2a9.72 9.72 0 0 0-3.4 6.6c-.3 5.2 2.2 7.3 3.1 9.2l-.7 11.3c0 .6 1.1 1 1.7 1s1.7-.4 1.7-.9zM1.9 17.6l1.8.9a1.45 1.45 0 0 0 .7.2l-.8 15.4c0 .5 1.1.9 1.7.9s1.7-.4 1.7-.9l-.6-15.5c.2-.1.5-.2.7-.3l1.3-.8a3.76 3.76 0 0 0 1.7-3V7.6a1 1 0 0 0-1-1 1.09 1.09 0 0 0-1.1 1v6.2h-.6V7.6a1 1 0 0 0-2 0v6.2h-.6V7.6a1 1 0 0 0-1-1 1.08 1.08 0 0 0-1 1v6.2h-.7v-6a1 1 0 0 0-1-1 1.08 1.08 0 0 0-1 1v6.8a3.49 3.49 0 0 0 1.8 3z"></path>
		</symbol>
	
		<symbol id="icon-security-lock" viewBox="0 0 34 34">
			<title>icon-security-lock</title><path d="M17 1a16 16 0 1 0 16 16A16 16 0 0 0 17 1zm0 29.5A13.5 13.5 0 1 1 30.5 17 13.5 13.5 0 0 1 17 30.5z"></path><path d="M22 16h-1v-2.89c0-1.72-1.78-3.11-4-3.11s-4 1.39-4 3.11V16h-1a1 1 0 0 0-1 .88v6.25a1 1 0 0 0 1 .87h10a1 1 0 0 0 1-.87v-6.25a1 1 0 0 0-1-.88zm-7-3c0-.86.91-1.44 2-1.44s2 .59 2 1.44v3h-4z"></path>
		</symbol>
	
		<symbol id="icon-share-square" viewBox="0 0 75 75">
			<title>icon-share-square</title><path d="M0 0v75h75V0H0zm72.22 72.22H2.78V2.78h69.45l-.01 69.44z"></path><path d="M60.38 34.96L42.33 19.45c-.4-.3-.92-.38-1.39-.23-.43.22-.7.67-.69 1.16v9.03c-14.58.46-21.53 7.64-24.77 13.66a35.66 35.66 0 0 0-3.7 12.51v.93c.07.7.69 1.21 1.39 1.16.75-.05 1.34-.64 1.39-1.39v-.46c.46-10.88 20.6-13.19 25.93-13.66v9.03c-.01.49.26.94.69 1.16.46.27 1.04.17 1.39-.23L60.62 36.6c.24-.25.41-.58.46-.93-.23-.24-.23-.47-.7-.71zM42.79 48.62v-7.63c-.1-.72-.67-1.29-1.39-1.39-.93 0-17.36.93-25.46 7.87 2.78-6.94 9.26-15.51 25.46-15.51.35-.06.67-.22.93-.46.29-.22.46-.56.46-.93v-7.4L57.61 35.9 42.79 48.62z"></path>
		</symbol>
	
		<symbol id="icon-ship-square" viewBox="0 0 75 75">
			<title>ship</title><path d="M19.68 55.09c.93 1.16 2.08 2.55 4.4 2.55s3.47-1.39 4.4-2.55c.93-.93 1.39-1.62 2.31-1.62s1.39.46 2.31 1.62 2.08 2.55 4.4 2.55 3.47-1.39 4.4-2.55c.93-.93 1.39-1.62 2.31-1.62s1.39.46 2.31 1.62 2.08 2.55 4.4 2.55 3.47-1.39 4.4-2.55c.93-.93 1.39-1.62 2.31-1.62v-2.78c-2.31 0-3.47 1.39-4.4 2.55-.46.46-.69.93-1.16 1.16l5.09-17.82-7.87-2.08V23.38h-6v-6h-12v6h-6v11.34l-7.87 1.85L22 53.7l-.23-.23c-.93-1.16-2.08-2.55-4.4-2.55v2.78c.92-.23 1.38.47 2.31 1.39zm29.63-.93a3.2 3.2 0 0 1-.69-.93c-.93-1.16-2.08-2.55-4.4-2.55s-3.47 1.39-4.4 2.55c-.46.46-.69.93-1.16 1.16V34.72l15.28 3.7zM34 20.14h6.48v3.24H34zm-6 6h18.53v7.66l-9.26-2.31L28 33.8zm7.87 8.56v19.24l-.69-.69c-.93-1.16-2.08-2.55-4.4-2.55s-3.47 1.39-4.4 2.55l-1.15 1.15-4.4-15.74z"></path><path d="M0 0v75h75V0zm72.22 72.22H2.78V2.78h69.44z"></path>
		</symbol>
	
		<symbol id="icon-star" viewBox="0 0 22 22">
			<title>icon-star</title><path d="M15.8 13.6l1.7 7.4-6.5-3.9L4.5 21l1.7-7.4-5.7-5L8 8l3-7 3 7 7.5.7z"></path>
		</symbol>
	
		<symbol id="icon-stoppwatch-square" viewBox="0 0 75 75">
			<title>stoppwatch</title><path d="M16 39.81a21.53 21.53 0 0 0 43.06 0 21.27 21.27 0 0 0-5.36-14.12l1.39-1.39.93.93 1.85-1.85-3.7-3.7-1.85 1.85.93.93-1.39 1.39a22.54 22.54 0 0 0-12.73-5.32v-2.09h1.16v-2.55h-5.1v2.78h1.16v1.85a21.06 21.06 0 0 0-12.73 5.32l-1.39-1.39.93-.93-2.08-1.85-3.7 3.47L19.21 25l.93-.93 1.39 1.39A21.36 21.36 0 0 0 16 39.81zm21.5-18.75a18.75 18.75 0 1 1-18.75 18.75A18.67 18.67 0 0 1 37.5 21.06z"></path><path d="M37.5 44.44a4.75 4.75 0 0 0 4.63-4.63 6.76 6.76 0 0 0-.46-2.08l7.41-7.41-1.85-1.85-7.41 7.41a4.5 4.5 0 0 0-5.32 7.18 3.73 3.73 0 0 0 3 1.38zm-1.16-6a1.7 1.7 0 0 1 1.39-.44 3.29 3.29 0 0 1 1.39.46 1.7 1.7 0 0 1 .46 1.39 3.29 3.29 0 0 1-.46 1.39 1.82 1.82 0 0 1-2.55 0 1.7 1.7 0 0 1-.46-1.39c-.46-.5-.23-.96.23-1.42z"></path><path d="M0 0v75h75V0zm72.22 72.22H2.78V2.78h69.44z"></path>
		</symbol>
	
		<symbol id="icon-terrace" viewBox="0 0 40 40">
			<title>icon-terrace</title><path d="M40 18.9C40 8.5 31 0 20 0S0 8.5 0 18.9V20h18.9v8.1h-6.7a1.1 1.1 0 1 0 0 2.2h6.7v8.5a1.2 1.2 0 0 0 2.4 0v-8.5h6.6a1.1 1.1 0 1 0 0-2.2h-6.6V20H40v-1.1zm-19.4-1.2a.9.9 0 0 0-.5-.1.75.75 0 0 0-.5.1H2.4C3 9.1 10.7 2.2 20 2.2s17 6.9 17.6 15.5zM1.8 27.1a1.13 1.13 0 0 0-1.2 1.1v10.7A1.13 1.13 0 0 0 1.8 40 1.13 1.13 0 0 0 3 38.9v-3.2h7v3.2a1.13 1.13 0 0 0 1.2 1.1 1.13 1.13 0 0 0 1.2-1.1v-5.4H3v-5.3a1.13 1.13 0 0 0-1.2-1.1zM39.4 38.9V28.2a1.2 1.2 0 0 0-2.4 0v5.3h-9.3v5.4a1.2 1.2 0 0 0 2.4 0v-3.2h7v3.2a1.13 1.13 0 0 0 1.2 1.1 1.18 1.18 0 0 0 1.1-1.1z"></path>
		</symbol>
	
		<symbol id="icon-thumbs-up" viewBox="0 0 34 34">
			<title>icon-thumbs-up</title><path d="M29 18.39c1.3-1 2.66-4.3-1.34-5.24-2.87-.67-4.8 1.37-6.17-1.63-1.25-2.76 2.61-7.76-1.6-10.12-1.55-.87-3-.32-2.82 2.06.28 4.77-2.6 5.45-4.74 9.91-2 1.2-3.71 1.85-5.76 3.07H3.63v13.89h2.76l2.11.62a22.39 22.39 0 0 0 10 2.05c1.67 0 5-.16 6.15-1a5.34 5.34 0 0 0 1.72-3.27 3.28 3.28 0 0 0 2-4.65 3.27 3.27 0 0 0 1.7-2.08c.43-1.73-.72-3.05-1.07-3.61z"></path>
		</symbol>
	
		<symbol id="icon-train-square" viewBox="0 0 75 75">
			<title>train</title><path d="M57.18 48.84c.46-5.09-5.09-18.06-9.49-20.6a17.26 17.26 0 0 0-10-2.55h-2.04l5.79-3.24-10.65-5.09-10.88 5.09 5.79 3.24h-8.34v2.78H37.5a16.77 16.77 0 0 1 8.56 2.08 5.35 5.35 0 0 1 1.62 1.62h-11.8l2.78 12.5h15.28a7.63 7.63 0 0 1 .46 3.7c0 .46-.93.93-2.08.93H17.59v2.78h35a4 4 0 0 0 4.59-3.24zM30.79 20.37l4.63 2.31-4.63 2.55-4.63-2.55zM41 42.13L39.35 35h10.42A51.49 51.49 0 0 1 53 42.13zM17.59 54.63h6.48v2.78h-6.48zM28.94 54.63h6.48v2.78h-6.48zM39.81 54.63h6.48v2.78h-6.48zM50.93 54.63h6.48v2.78h-6.48z"></path><path d="M29.86 32.18H17.59v2.77h9.49v6.95h-9.49v2.78h12.27v-12.5z"></path><path d="M0 0v75h75V0zm72.22 72.22H2.78V2.78h69.44z"></path>
		</symbol>
	
		<symbol id="icon-travel" viewBox="0 0 38 38">
			<title>marker travel trade</title><path d="M19 2.8A9.2 9.2 0 1 1 9.8 12 9.18 9.18 0 0 1 19 2.8m0-2.7A11.86 11.86 0 0 0 7.1 12C7.1 18.6 19 37.9 19 37.9S30.9 18.6 30.9 12A11.93 11.93 0 0 0 19 .1zm4.9 8.5h-1.5v-.1a3.5 3.5 0 1 0-7 0v.1H14l-.9 9.5h11.6zM19 5.4a3 3 0 0 1 2.8 1.9 3.36 3.36 0 0 0-5.6 0A3 3 0 0 1 19 5.4zm-2.9 3.2a2.89 2.89 0 0 1 2.8-2.3 2.81 2.81 0 0 1 2.8 2.3z"></path>
		</symbol>
	
		<symbol id="icon-tweak" viewBox="0 0 22.5 18">
			<circle cx="16.1" cy="3" r="3"></circle><path class="st0" d="M0 2.1h22.5v1.7H0z"></path><circle class="st0" cx="4.7" cy="9" r="3"></circle><path class="st0" d="M0 8.2h22.5v1.7H0z"></path><g><circle class="st0" cx="11.7" cy="15" r="3"></circle><path class="st0" d="M0 14.2h22.5v1.7H0z"></path></g>
		</symbol>
	
		<symbol id="icon-twitter" viewBox="0 0 45 45">
			<title>twitter</title><path d="M43.3 8.6c-1.5.8-3.2 1.3-4.9 1.5 1.9-1.2 3.3-3 3.9-5.1-1.7 1-3.5 1.8-5.4 2.3-1.6-1.8-3.8-2.8-6.2-2.8-4.6 0-8.5 4.1-8.5 9.3-.1.7 0 1.4.3 2.1-7.2-.4-13.4-4.2-17.8-9.9-.8 1.4-1.3 3-1.3 4.6 0 3 1.4 5.9 3.9 7.7-1.3-.1-2.7-.4-3.9-1-.1 4.3 2.8 8 7 9.1-.8.2-1.5.3-2.3.3-.5 0-1.1 0-1.5-.3 1 3.6 4.2 6.2 8 6.4-2.9 2.5-6.7 3.9-10.5 3.9-.7 0-1.4-.1-2-.3 3.9 2.7 8.4 4.1 13.1 4.1 15.7 0 24.4-14.1 24.4-26.2V13c1.4-1.2 2.7-2.7 3.7-4.4z"></path>
		</symbol>
	
		<symbol id="icon-twitter-comment" viewBox="0 0 13 13">
			<title>icon-twitter-comment</title><path d="M7.87.01L5.14 0C2.26 0 0 2.26 0 5.14c0 2.7 2.1 4.74 4.91 4.85v2.52c0 .07.03.19.08.27.1.14.26.22.42.22.09 0 .18-.03.26-.08.18-.11 4.26-2.72 5.33-3.62 1.25-1.06 2-2.61 2-4.15v-.01C13 2.26 10.74.01 7.87.01zm2.49 8.53c-.75.63-3.2 2.24-4.46 3.06V9.5a.49.49 0 0 0-.49-.49h-.26C2.74 9.01.99 7.38.99 5.14.99 2.81 2.81.99 5.14.99L7.87 1c2.33 0 4.15 1.82 4.15 4.14-.01 1.26-.63 2.53-1.66 3.4z"></path>
		</symbol>
	
		<symbol id="icon-twitter-like" viewBox="0 0 14 13">
			<title>icon-twitter-like</title><path d="M7 12.72s-.01 0 0 0C5.29 12.69.39 8.26.39 4.06.39 2.04 2.05.27 3.95.27c1.51 0 2.52 1.04 3.06 1.8.54-.76 1.55-1.8 3.06-1.8 1.9 0 3.56 1.77 3.56 3.79-.01 4.2-4.92 8.63-6.63 8.66.01 0 0 0 0 0zM3.94 1.26c-1.37 0-2.57 1.31-2.57 2.8C1.37 7.84 6 11.7 7 11.74c1-.04 5.63-3.89 5.63-7.67 0-1.49-1.2-2.8-2.57-2.8-1.66 0-2.59 1.93-2.6 1.95-.15.37-.76.37-.91 0-.01-.02-.94-1.96-2.61-1.96z"></path>
		</symbol>
	
		<symbol id="icon-twitter-retweet" viewBox="0 0 18 13">
			<title>icon-twitter-retweet</title><path d="M17.41 8.73a.501.501 0 0 0-.7 0l-1.68 1.67V3.24c0-1.36-1.11-2.47-2.47-2.47H8.19a.49.49 0 0 0 0 .98h4.38c.82 0 1.48.66 1.48 1.48v7.17l-1.67-1.67a.501.501 0 0 0-.7 0c-.19.19-.19.51 0 .7l2.52 2.52a.5.5 0 0 0 .35.14.5.5 0 0 0 .35-.14l2.52-2.52c.18-.19.18-.5-.01-.7zm-7.6 2.51H5.44c-.82 0-1.48-.66-1.48-1.48V2.59l1.68 1.68c.1.1.22.14.35.14.13 0 .25-.05.35-.14.19-.19.19-.51 0-.7L3.81 1.05a.501.501 0 0 0-.7 0L.59 3.57c-.19.19-.19.51 0 .7.19.19.51.19.7 0l1.68-1.68v7.17c0 1.36 1.11 2.47 2.47 2.47h4.38a.495.495 0 0 0-.01-.99z"></path>
		</symbol>
	
		<symbol id="icon-twitter-square" viewBox="0 0 75 75">
			<title>twitter</title><path d="M72.22 2.78v69.44H2.78V2.78h69.44M75 0H0v75h75V0z"></path><path d="M56.25 25a14 14 0 0 1-4.4 1.39 8 8 0 0 0 3.47-4.63 18.14 18.14 0 0 1-4.86 2.08 7.39 7.39 0 0 0-5.56-2.55c-4.17 0-7.64 3.7-7.64 8.33a4.51 4.51 0 0 0 .23 1.85c-6.48-.23-12-3.7-16-8.8a8 8 0 0 0-1.16 4.17 8.55 8.55 0 0 0 3.47 6.94 8.58 8.58 0 0 1-3.47-.93A8.26 8.26 0 0 0 26.62 41a6.41 6.41 0 0 1-2.08.23 2.94 2.94 0 0 1-1.39-.23 7.87 7.87 0 0 0 7.18 5.79 14.13 14.13 0 0 1-9.49 3.47A5.1 5.1 0 0 1 19 50a21 21 0 0 0 11.81 3.7c14.12 0 22-12.73 22-23.61v-1.15A14.58 14.58 0 0 0 56.25 25z"></path>
		</symbol>
	
		<symbol id="icon-view" viewBox="0 0 40 40">
			<title>icon-view</title><path d="M20 9.4A23.46 23.46 0 0 0 .9 19.2L0 20.4l.9 1.3A23.73 23.73 0 0 0 20 31.5a23.56 23.56 0 0 0 10.71-2.58 23.09 23.09 0 0 0 8.39-7.22l.9-1.3-.9-1.3A23.64 23.64 0 0 0 20 9.4zm5.9 8a2.2 2.2 0 1 1-2.2-2.2 2.36 2.36 0 0 1 2.2 2.2zM20 27.1a19.36 19.36 0 0 1-14.6-6.7 18.08 18.08 0 0 1 7.5-5.3 8.76 8.76 0 0 0-.7 3.2 7.8 7.8 0 1 0 15.6 0 7.11 7.11 0 0 0-.7-3.2 19.77 19.77 0 0 1 7.5 5.3A19.36 19.36 0 0 1 20 27.1z"></path>
		</symbol>
	
		<symbol id="icon-wechat" viewBox="0 0 45 45">
			<title>wechat</title><path d="M31.8 15.4c-.8-2.9-2.6-5.4-5.1-7.2-3.8-2.7-8.5-3.9-13.1-3.4C9.7 5.2 6 7 3.3 9.9c-4.2 4.5-4.4 11.4-.4 16C4 27.2 5.2 28 6.3 29.3c-.4 1.5-1.1 3-1.7 4.6 1.9-.8 3.6-1.7 5.3-2.5.2-.2.5-.2.8-.2 1.1.2 1.9.4 3 .6 1.3.2 2.5.2 3.8 0-2.3-8.2 4.4-16.7 14.6-15.8-.1-.2-.3-.4-.3-.6zm-19.2-1.1c-.3.8-1 1.3-1.9 1.3h-.4c-.9-.1-1.7-.8-1.9-1.7-.1-.7.2-1.5.8-1.9.8-.6 1.9-.6 2.7 0 .8.5 1 1.5.7 2.3zm9.3 1.3c-1.2.1-2.2-.7-2.3-1.9.1-1.2 1.2-2 2.3-1.9 1-.1 1.8.7 1.9 1.6v.3c.2 1-.7 1.9-1.9 1.9z"></path><path d="M42.3 21.5c-5.1-5.9-15-6.5-20.7-1.2-3.5 2.9-4.7 7.8-3 12 1.3 3.1 3.9 5.4 7 6.5 3.1 1.2 6.5 1.3 9.7.4.5-.2 1-.1 1.5.2 1.2.6 2.4 1.3 3.6 2.1-.4-1.3-.6-2.5-1.1-3.6 0-.4 0-.4.2-.6.9-.8 1.7-1.6 2.5-2.5 3.9-4 3.9-9.1.3-13.3zm-15.2 4.9c-.9 0-1.7-.8-1.7-1.7 0-.9.8-1.7 1.7-1.7 1 0 1.8.7 1.9 1.7 0 1-.8 1.7-1.8 1.7h-.1zm8.9 0c-.9 0-1.7-.8-1.7-1.7 0-.9.8-1.7 1.7-1.7.9-.1 1.8.5 1.9 1.5 0 1-.8 1.9-1.9 1.9z"></path>
		</symbol>
	
		<symbol id="icon-wechat-square" viewBox="0 0 75 75">
			<title>wechat</title><path d="M72.22 2.78v69.44H2.78V2.78h69.44M75 0H0v75h75V0z"></path><path d="M47.69 29.63a14.6 14.6 0 0 0-5.56-7.87 20.74 20.74 0 0 0-14.35-3.7 17.7 17.7 0 0 0-11.34 5.56A13.13 13.13 0 0 0 16 41.2c1.16 1.39 2.55 2.31 3.7 3.7-.46 1.62-1.16 3.24-1.85 5.09 2.08-.93 3.94-1.85 5.79-2.78a1.39 1.39 0 0 1 .93-.23c1.16.23 2.08.46 3.24.69a12.59 12.59 0 0 0 4.17 0c-2.55-9 4.86-18.29 16-17.36-.06-.22-.29-.45-.29-.68zm-21.07-1.16a2 2 0 0 1-2.08 1.39h-.46A2.49 2.49 0 0 1 22 28a2 2 0 0 1 .93-2.08 2.43 2.43 0 0 1 3 0 2.1 2.1 0 0 1 .69 2.55zm10.19 1.39a2.36 2.36 0 0 1-2.55-2.08 2.36 2.36 0 0 1 2.55-2.08 1.94 1.94 0 0 1 2.08 2.08c.23 1.16-.7 2.08-2.08 2.08z"></path><path d="M59.26 36.34C53.7 29.86 42.82 29.17 36.57 35a11.54 11.54 0 0 0-3.24 13.19A13 13 0 0 0 41 55.32a16.74 16.74 0 0 0 10.65.46 1.9 1.9 0 0 1 1.62.23 34.85 34.85 0 0 1 3.94 2.31c-.46-1.39-.69-2.78-1.16-3.94 0-.46 0-.46.23-.69A31.43 31.43 0 0 0 59 50.93c4.19-4.4 4.19-9.93.26-14.59zm-16.67 5.33a1.85 1.85 0 0 1 0-3.7 2 2 0 0 1 2.08 1.85 1.89 1.89 0 0 1-2.08 1.85zm9.72 0a1.85 1.85 0 0 1 0-3.7 1.87 1.87 0 0 1 2.08 1.62 2.07 2.07 0 0 1-2.08 2.08z"></path>
		</symbol>
	
		<symbol id="icon-weibo" viewBox="0 0 45 45">
			<title>weibo</title><path d="M19 37.5c-7.2.7-13.4-2.5-13.9-7.4s5.1-9.3 12.3-10 13.4 2.5 13.9 7.4-5.1 9.3-12.3 10m14.4-15.7c-.7-.2-.9-.2-.7-1.2.7-1.8.7-3.2 0-4.4-1.4-2.1-5.3-1.9-9.7 0 0 0-1.4.7-.9-.5.7-2.3.7-3.9-.5-5.1-2.3-2.3-8.8 0-14.4 5.6C3 20.4.7 24.8.7 28.5c0 7.2 9.2 11.6 18.2 11.6 11.8 0 19.9-6.9 19.9-12.5-.1-3-2.9-4.9-5.4-5.8M41.5 8.6c-2.8-3.1-7-4.5-11.1-3.5-1 0-1.4 1-1.4 1.9.3.9 1.1 1.5 2.1 1.4 4.4-1 8.8 1.8 9.7 6.2.3 1.5.2 3-.2 4.4-.3.9.2 1.8 1.1 2.1s1.8-.2 2.1-1.1c1.2-3.9.4-8.2-2.3-11.4"></path><path d="M37.1 12.5c-1.3-1.5-3.4-2.1-5.3-1.6-.7.2-1.4.9-1.2 1.6s.9 1.4 1.6 1.2c1-.3 2 .1 2.5.9.7.7.9 1.8.5 2.8-.3.8.2 1.6.9 1.9s1.6-.2 1.9-.9c.8-2 .4-4.2-.9-5.9M19.5 29c-.2.5-.9.7-1.2.5-.5-.2-.5-.7-.2-1.2.2-.4.7-.7 1.1-.5h.1c.3.3.4.8.2 1.2m-2.3 3c-.7 1.1-2 1.6-3.2 1.2-1-.5-1.4-1.7-.9-2.7.1-.1.1-.2.2-.3.6-1.1 2-1.6 3.2-1.2 1 .6 1.3 2 .7 3m2.5-7.9c-3.5-.9-7.1.8-8.8 3.9-1.6 3 0 6.5 3.5 7.6 3.6 1.1 7.6-.5 9.3-3.9 1.2-2.8 0-6-2.8-7.3l-1.2-.3"></path>
		</symbol>
	
		<symbol id="icon-weibo-square" viewBox="0 0 75 75">
			<title>weibo</title><path d="M72.22 2.78v69.67H2.78V2.78h69.44M75 0H0v75h75V0z"></path><path d="M34 52.55c-7.18.69-13.43-2.55-13.89-7.41s5.09-9.26 12.27-10 13.43 2.55 13.89 7.41-5.07 9.3-12.27 10m14.38-15.74c-.69-.23-.93-.23-.69-1.16.69-1.85.69-3.24 0-4.4-1.39-2.08-5.32-1.85-9.72 0 0 0-1.39.69-.93-.46.69-2.31.69-3.94-.46-5.09-2.31-2.31-8.8 0-14.35 5.56-4.17 4.17-6.48 8.56-6.48 12.27C15.74 50.69 25 55.09 34 55.09c11.81 0 19.91-6.94 19.91-12.5-.23-3-3-4.86-5.56-5.79M56.48 23.61a11.26 11.26 0 0 0-11.11-3.47c-.93 0-1.39.93-1.39 1.85a2 2 0 0 0 2.08 1.39A8.17 8.17 0 0 1 55.56 34a1.69 1.69 0 1 0 3.24 1 11.93 11.93 0 0 0-2.31-11.34"></path><path d="M52.08 27.55a5.25 5.25 0 0 0-5.32-1.62c-.69.23-1.39.93-1.16 1.62s.93 1.39 1.62 1.16a2.31 2.31 0 0 1 2.55.93 2.46 2.46 0 0 1 .46 2.78 1.46 1.46 0 1 0 2.78.93 5.77 5.77 0 0 0-.93-5.79M34.49 44c-.23.46-.93.69-1.16.46-.46-.23-.46-.69-.23-1.16a.85.85 0 0 1 1.16-.46 1 1 0 0 1 .23 1.16m-2.31 3a2.75 2.75 0 0 1-3.24 1.16 2 2 0 0 1-.69-3A2.66 2.66 0 0 1 31.48 44a2.2 2.2 0 0 1 .69 3m2.55-7.87a7.8 7.8 0 0 0-8.8 3.94c-1.62 3 0 6.48 3.47 7.64a7.74 7.74 0 0 0 9.26-3.94 5.51 5.51 0 0 0-3.94-7.64"></path>
		</symbol>
	
		<symbol id="icon-whatsapp-square" viewBox="0 0 75 75">
			<title>icon-whatsapp-square</title><path d="M0 0v75h75V0H0zm72.22 72.22H2.78V2.78h69.45l-.01 69.44z"></path><path d="M60.5 36.65c-.08 12.08-9.94 21.8-22.02 21.72-3.65-.02-7.23-.96-10.43-2.73l-12.13 3.84 3.96-11.63c-6.22-10.22-2.98-23.54 7.24-29.76 3.47-2.11 7.46-3.2 11.52-3.16 12.03-.04 21.81 9.67 21.85 21.7.01.01.01.01.01.02zM38.64 18.4c-10.13-.04-18.38 8.12-18.45 18.25 0 3.85 1.24 7.6 3.53 10.7l-2.29 6.75 7.06-2.23c8.38 5.65 19.75 3.44 25.41-4.94s3.44-19.75-4.94-25.41a18.312 18.312 0 0 0-10.32-3.12zm11.02 23.26c-.12-.25-.5-.37-1.05-.62-.56-.25-3.16-1.55-3.65-1.73s-.87-.25-1.18.25c-.37.56-1.36 1.73-1.67 2.1s-.62.37-1.18.12c-1.6-.6-3.07-1.5-4.33-2.66a15.205 15.205 0 0 1-2.97-3.71c-.31-.56 0-.8.25-1.11.25-.25.56-.62.8-.93.21-.27.39-.56.56-.87.14-.3.12-.65-.06-.93-.12-.25-1.18-2.91-1.67-3.96-.43-1.05-.87-.87-1.18-.87-.31 0-.68-.06-1.05-.06-.55.01-1.07.26-1.42.68a5.963 5.963 0 0 0-1.85 4.47c.19 2 .94 3.91 2.17 5.51 2.23 3.49 5.41 6.28 9.16 8.04 5.45 2.1 5.45 1.42 6.44 1.3a5.26 5.26 0 0 0 3.59-2.54c.32-.78.43-1.64.29-2.48z"></path>
		</symbol>
	
		<symbol id="icon-white-heart" viewBox="0 0 24.68 22.96">
			<path d="M12.27 23l-8.6-7.8A11.13 11.13 0 0 1 .25 9.46 6.89 6.89 0 0 1 0 6.86C.4 2.89 3.21 0 6.74 0a6.46 6.46 0 0 1 5.54 3.22A6.69 6.69 0 0 1 17.94 0c3.53 0 6.35 2.89 6.7 6.87a6.79 6.79 0 0 1-.21 2.61A11.15 11.15 0 0 1 21 15.16zM6.73 1C3.74 1 1.34 3.51 1 7a5.69 5.69 0 0 0 .18 2.25 10.12 10.12 0 0 0 3.12 5.21l7.93 7.2 8.08-7.2a10.18 10.18 0 0 0 3.11-5.2A5.9 5.9 0 0 0 23.65 7c-.31-3.46-2.71-6-5.7-6a5.7 5.7 0 0 0-5.22 3.54l-.47 1.16-.45-1.17A5.49 5.49 0 0 0 6.73 1z"></path>
		</symbol>
	
		<symbol id="icon-whiteboard-square" viewBox="0 0 24 24">
			<g><path d="M6.37 14.593H12v2.889H9.63v.889h5.63v-.889h-2.37v-2.889h5.111v-8h.963V5.63H5.037v.889H6.37zm10.741-8.074v7.111H7.259V6.519z"></path><path d="M10.889 7.185H7.926v2.963h2.963zm-.815 2.148H8.889V8.074h1.185zM11.926 7.185h4.222v.889h-4.222zM11.926 8.741h4.222v.889h-4.222zM11.926 10.222h4.222v.889h-4.222zM8 12.074h8.148v.889H8z"></path><path d="M0 0v24h24V0zm23.111 23.111H.889V.889h22.222z"></path></g>
		</symbol>
	
		<symbol id="icon-wifi" viewBox="0 0 40 40">
			<title>icon-wifi</title><path d="M26.7 29a2.5 2.5 0 0 1-1.8-.8 6.55 6.55 0 0 0-9.7-.1 2.48 2.48 0 0 1-3.7-3.3 11.41 11.41 0 0 1 17 0 2.51 2.51 0 0 1-.2 3.5 2 2 0 0 1-1.6.7z"></path><path d="M32.1 22.8a2.19 2.19 0 0 1-1.7-.7 14.73 14.73 0 0 0-20.8 0 2.51 2.51 0 0 1-3.5 0 2.42 2.42 0 0 1 0-3.5 19.56 19.56 0 0 1 27.6 0 2.42 2.42 0 0 1 0 3.5 1.86 1.86 0 0 1-1.6.7z"></path><path d="M37.5 16.7a2.34 2.34 0 0 1-1.7-.7A22.84 22.84 0 0 0 20 9.6 23.08 23.08 0 0 0 4.1 16a2.51 2.51 0 0 1-3.5-.1 2.51 2.51 0 0 1 .1-3.5 27.5 27.5 0 0 1 19.2-7.7 27.5 27.5 0 0 1 19.2 7.7 2.51 2.51 0 0 1 .1 3.5 1.88 1.88 0 0 1-1.7.8z"></path><circle cx="20" cy="32.6" r="3"></circle>
		</symbol>
	
		<symbol id="icon-wifi-square" viewBox="0 0 75 75">
			<title>wifi</title><path d="M37.5 56a4.2 4.2 0 0 1-3.24-1.39 4.71 4.71 0 0 1-1.39-3.47 4.85 4.85 0 0 1 4.63-4.84 5.1 5.1 0 0 1 3.5 1.39 4.71 4.71 0 0 1 1.39 3.47A5.43 5.43 0 0 1 37.5 56zm0-6.94a2.07 2.07 0 0 0-2.08 2.08c0 1.16.93 1.85 2.08 2.08a2.07 2.07 0 0 0 2.08-2.08 2.44 2.44 0 0 0-2.08-2.07zM30.09 44l-2.31-2.1c5.09-5.32 13.66-5.32 19.21-.23L44.91 44a10.34 10.34 0 0 0-14.82 0z"></path><path d="M24.77 36.81l-2.31-2.08a21 21 0 0 1 14.81-6.25 21.78 21.78 0 0 1 15 6l-2.08 2.31a18.44 18.44 0 0 0-12.69-5.08 16.59 16.59 0 0 0-12.73 5.1z"></path><path d="M20.83 29.17l-2.31-2.08a26.9 26.9 0 0 1 37.73-.46l-2.08 2.31a23.47 23.47 0 0 0-33.34.23z"></path><path d="M72.22 2.78v69.44H2.78V2.78h69.44M75 0H0v75h75V0z"></path>
		</symbol>
	
		<symbol id="icon-youtube" viewBox="0 0 45 45">
			<title>youtube</title><path d="M43.5 13.9s-.5-3-1.6-4.2c-1.2-1.1-2.8-1.7-4.4-1.9-6-.5-14.8-.5-14.8-.5s-8.8 0-14.8.5c-1.7 0-3.2.7-4.2 2-.9 1.2-1.4 2.7-1.7 4.1-.4 2.3-.7 4.6-.7 6.9V24c0 2.3.2 4.6.5 6.9 0 0 .5 3 1.6 4.2C5 36.7 7.1 36.7 8 36.9c3.5.2 14.3.5 14.3.5s9 0 14.8-.5c1.6.1 3.2-.6 4.2-1.8.8-1.3 1.4-2.7 1.6-4.2.3-2.3.4-4.6.5-6.9v-3.2c.3-2.2.3-4.6.1-6.9zM18.2 28.1V16.3l11.6 6-11.6 5.8z"></path>
		</symbol>
	
		<symbol id="icon-youtube-square" viewBox="0 0 75 75">
			<title>youtube</title><path d="M72.22 2.78v69.44H2.78V2.78h69.44M75 0H0v75h75V0z"></path><path d="M58.33 28.94s-.46-3-1.62-4.17a7.46 7.46 0 0 0-4.4-1.85c-6-.46-14.81-.46-14.81-.46s-8.8 0-14.81.46a5 5 0 0 0-4.17 1.85 10.75 10.75 0 0 0-1.62 4.17 40.6 40.6 0 0 0-.69 6.94v3.24a60.22 60.22 0 0 0 .46 6.94s.46 3 1.62 4.17c1.62 1.62 3.7 1.62 4.63 1.85 3.47.23 14.35.46 14.35.46s9 0 14.81-.46a5 5 0 0 0 4.17-1.85 10.75 10.75 0 0 0 1.62-4.17 60.22 60.22 0 0 0 .46-6.94v-3.24a30 30 0 0 0 0-6.94zM33.1 43.06V31.25l11.57 6z"></path>
		</symbol>
	
</svg>
