<svg id="Icons_Pinterest" data-name="Icons / Pinterest" xmlns="http://www.w3.org/2000/svg" width="40" height="40" viewBox="0 0 40 40">
  <g id="Icons_Pinterest-2" data-name="Icons / Pinterest">
    <circle id="Oval" cx="20" cy="20" r="20" fill="#cb2027"/>
    <path id="Path" d="M11.087,18.132c-1.487-.118-2.111-.872-3.277-1.6C7.169,19.977,6.386,23.276,4.066,25c-.717-5.2,1.051-9.109,1.872-13.256-1.4-2.411.168-7.265,3.12-6.069,3.633,1.471-3.145,8.967,1.405,9.9,4.75.978,6.69-8.438,3.744-11.5-4.256-4.421-12.39-.1-11.39,6.229.244,1.547,1.806,2.017.624,4.152C.717,13.841-.1,11.642.009,8.709A9.281,9.281,0,0,1,8.278.084c5.13-.588,9.946,1.928,10.61,6.868.748,5.575-2.316,11.613-7.8,11.18Z" transform="translate(11 8)" fill="#f1f2f2"/>
  </g>
</svg>
