<svg id="Icons_Twitter" data-name="Icons / Twitter" xmlns="http://www.w3.org/2000/svg" width="40" height="40" viewBox="0 0 40 40">
  <g id="Icons_Twitter-2" data-name="Icons / Twitter">
    <circle id="Oval" cx="20" cy="20" r="20" fill="#55acee"/>
    <path id="Path" d="M23,2.249A9.3,9.3,0,0,1,20.29,3,4.8,4.8,0,0,0,22.365.351a9.354,9.354,0,0,1-3,1.164A4.679,4.679,0,0,0,15.923,0,4.759,4.759,0,0,0,11.2,4.8a4.864,4.864,0,0,0,.123,1.093A13.324,13.324,0,0,1,1.6.877a4.854,4.854,0,0,0,1.46,6.4,4.628,4.628,0,0,1-2.137-.6c0,.02,0,.041,0,.061a4.78,4.78,0,0,0,3.785,4.7,4.662,4.662,0,0,1-2.131.083,4.734,4.734,0,0,0,4.408,3.331,9.371,9.371,0,0,1-5.861,2.053A9.35,9.35,0,0,1,0,16.845,13.191,13.191,0,0,0,7.233,19c8.679,0,13.426-7.309,13.426-13.648,0-.208,0-.415-.014-.62A9.658,9.658,0,0,0,23,2.249Z" transform="translate(9 12)" fill="#fff"/>
  </g>
</svg>
