<svg xmlns="http://www.w3.org/2000/svg" version="1.2" viewBox="0 0 390 679">
  <defs>
    <clipPath id="cp1" clipPathUnits="userSpaceOnUse">
      <path d="M88 45h228v78H88z"/>
    </clipPath>
  </defs>
  <style>
    .s1{fill:#426fbc}.s2{fill:#fafafa}
  </style>
  <path id="Layer" d="M0-1h390v680H0z" style="fill:#003da5"/>
  <path fill-rule="evenodd" d="M400.3 138.7h-59.6V185H338v-49h65v38.9h-2.7zM362.9 152q-.6-.3-.9-.9-.3-.6-.3-1.3c0-.7.3-1.4.8-1.9.5-.6 1.2-.9 1.9-.9s1.4.3 1.9.9c.5.5.8 1.2.8 1.9q0 .7-.3 1.3-.3.6-.9.9zm12.2 0q-.5-.3-.9-.9-.3-.6-.3-1.3c0-.7.3-1.4.8-1.9.5-.6 1.2-.9 1.9-.9.8 0 1.4.3 1.9.9.6.5.8 1.2.8 1.9q0 .7-.3 1.3-.3.6-.9.9zm12.2 0q-.5-.3-.8-.9-.3-.6-.4-1.3c0-.7.3-1.4.8-1.9.5-.6 1.2-.9 2-.9.7 0 1.4.3 1.9.9.5.5.8 1.2.8 1.9q0 .7-.4 1.3-.3.6-.8.9zm8.9 20.2V185h-2.7v-10.1h-46V185h-2.7v-12.8h2.7v-16.4h9.5v16.4h2.7v-16.4h9.5v16.4h2.7v-16.4h9.4v16.4h2.8v-16.4h9.4v16.4zm-41.9-13.7h-4.1v13.7h4.1zm12.1 0h-4v13.6h4zm12.2 0h-4v13.6h4zm8.1 13.6h4.1v-13.6h-4.1zm-36-20.1q-.6-.4-.9-1-.3-.6-.3-1.2c0-.8.3-1.5.8-2s1.2-.8 1.9-.8 1.4.3 1.9.8.8 1.2.8 2q0 .6-.3 1.2t-.9 1zm49.6 28.3h2.7v4.6h-2.7zM132.2 177.7h5.4v7.3h-2.7v-4.6h-8.2v4.6H124v-7.3h5.4V136h3l22.7 38.9H152L132.2 141zm26.1 2.8 2.7 4.6h-3.2l-2.6-4.6zM245.3 165.3h-13.7V185h-2.8v-10.1H221l5.1 3.4v6.7h-2.8v-5.2l-6.8-4.6-6.8 4.6v5.2h-2.8v-6.7l5.1-3.4h-7.8V185h-2.8v-19.7h-13.7V185H185v-27.9h2.7v3.3l6.9-7.5 6.8 7.5v-3.3h2.8v15.1h5.5v-9.8l5.4-18.4v-8h2.8v8l5.4 18.4v9.8h5.5v-15.1h2.8v3.3l6.8-7.5 6.9 7.5v-3.3h2.7v17.8h-2.7zm-8.3 4.1h2.8v5.5H237zm-43.8 0h2.8v5.5h-2.8zm6.5-6.9-5.1-5.6-5.1 5.6zm20.9.2-4.1-13.7-4.2 13.7v9.4h8.3zm22.9-.2-5.1-5.6-5.1 5.6zm1.7 17.8h2.7v4.6h-2.7zM96.4 182.3h5.6v2.7H63v-2.7h13.9v-15.6h-5.5v8.2h-2.8v-16.4h8.3V136h19.5v11.5h-2.8v-8.8h-2.7V153h5.5zm-19.5-21.1h-5.5v2.8h5.5zm8.4-8.2h2.8v-14.3h-2.8zm-5.6 0h2.8v-14.2h-2.8zm5.6 13.7h-5.6v15.5h5.6zm8.3 0h-5.5v15.6h5.5zm0-5.5H79.7v2.8h13.9zm0-5.5H79.7v2.7h13.9zM41 147v34.9H28.8v-2.8h9.5v-2.7h-4.1v-2.7h4.1v-2.8H27.6l-3.2-17h13.9v-4.2H0V147zm-2.7 21.2v-11.6H27.7l2.2 11.6zM24 174.3c1.3 1.3 2 3 2 4.8 0 1.4-.4 2.7-1.1 3.9-.8 1.1-1.8 2-3.1 2.5-1.2.5-2.6.6-3.9.4-1.4-.3-2.6-.9-3.5-1.9-1-1-1.7-2.2-1.9-3.5-.3-1.3-.1-2.7.4-4 .5-1.2 1.4-2.3 2.5-3.1 1.1-.7 2.4-1.1 3.8-1.1 1.8 0 3.5.7 4.8 2zm-1.9 7.8c.8-.8 1.2-1.9 1.2-3 0-.8-.2-1.6-.7-2.2-.4-.7-1.1-1.2-1.8-1.6-.8-.3-1.6-.3-2.4-.2-.8.2-1.5.6-2.1 1.1-.6.6-1 1.3-1.1 2.1-.2.8-.1 1.7.2 2.4.3.8.8 1.4 1.5 1.9.7.4 1.5.7 2.3.7 1.1 0 2.1-.5 2.9-1.2zm-22.1-3h9.6v2.8H0zm21.9-11H9.6v-14.3h12.3zm-2.7-11.6h-6.9v8.9h6.9zm-15.1 8.8v-8.8H0v-2.8h6.9V168H0v-2.7zM283.7 149.7H270V147h13.7zm25.6 32.4c1-.7 2.2-1.6 4.5-1.6v2.7c-1.4 0-2 .5-2.8 1.1-1 .7-2.2 1.7-4.5 1.7s-3.5-1-4.5-1.7c-.8-.6-1.4-1.1-2.8-1.1s-2 .5-2.8 1.1c-1 .7-2.2 1.7-4.5 1.7s-3.5-1-4.5-1.7c-.8-.6-1.4-1.1-2.8-1.1s-2 .5-2.8 1.1c-1 .7-2.2 1.7-4.5 1.7s-3.5-1-4.5-1.7c-.8-.6-1.4-1.1-2.8-1.1v-2.7c2.3 0 3.5.9 4.5 1.6.8.7 1.4 1.1 2.8 1.1s2-.4 2.8-1.1c1-.7 2.2-1.6 4.5-1.6s3.5.9 4.5 1.6c.8.7 1.4 1.1 2.8 1.1s2-.4 2.8-1.1c1-.7 2.2-1.6 4.5-1.6q.7 0 1.4.1l8.7-15.2H270v-2.8h6.8v-6H270v-2.8h24.7l2.3 8.8h17l-10.9 19.1.6.4c.8.7 1.4 1.1 2.8 1.1s2-.4 2.8-1.1zm-9.2-9.9H270v-2.7h30.1zm-20.5-9.6h14.6l-1.6-6.1h-13z" class="s1"/>
  <g id="Clip-Path" clip-path="url(#cp1)">
    <path d="M88 64.7C88 53.5 96.9 45 108.3 45c4.5-.1 9 1.4 12.6 4.2l-1.9 2.7c-3-2.4-6.8-3.7-10.7-3.7-9.6 0-16.7 7.2-16.7 16.5 0 9.4 7.1 16.6 16.7 16.6 3.9 0 7.7-1.3 10.7-3.7l1.9 2.7c-3.6 2.8-8.1 4.2-12.6 4.2-11.4 0-20.3-8.6-20.3-19.8zM128.5 45.4h3.5V84h-3.5zM148.7 48.6h-11.3v-3.2h26v3.2h-11.3V84h-3.4zM180.2 67.6l-14.4-22.2h3.9L182 64.5l12.3-19.1h3.9l-14.5 22.2V84h-3.5z" class="s2"/>
    <path fill-rule="evenodd" d="M202.9 45.4h10.4c8.6 0 13.7 4.1 13.7 11.3 0 7.2-5.1 11.2-13.7 11.2h-7V84h-3.4zm10.4 19.4c6.7 0 10.1-2.8 10.1-8.1s-3.4-8.2-10.1-8.2h-7v16.3zM242.8 45 262 84h-3.7l-5.8-11.8h-19.4L227.3 84h-3.6zm-8.2 24.1H251l-8.2-16.7z" class="s2"/>
    <path d="m262.9 79.1 2.6-2.3c1.2 1.4 2.7 2.5 4.4 3.3 1.6.7 3.5 1.2 5.3 1.2 5.4 0 9.1-2.6 9.1-6.7 0-4.3-2.8-6.3-7.3-8.2l-4.2-1.8c-6-2.5-8.4-5.8-8.4-10.5 0-5.5 5.6-9.1 11.3-9.1 2.1 0 4.1.4 6 1.3 2 .8 3.7 2 5 3.6l-2.5 2.3c-2.1-2.4-4.6-4-8.7-4s-7.7 2.3-7.7 6.1c0 3.2 1.7 5.4 6.2 7.2l4.2 1.8c5.3 2.2 9.6 5.3 9.6 10.8 0 6-4.7 10.4-12.6 10.4-2.3 0-4.6-.5-6.7-1.4-2.1-1-4-2.3-5.6-4zM291.1 79.1l2.7-2.3c1.1 1.4 2.6 2.5 4.3 3.3 1.6.7 3.5 1.2 5.3 1.2 5.4 0 9.1-2.6 9.1-6.7 0-4.3-2.8-6.3-7.3-8.2l-4.2-1.8c-6-2.5-8.4-5.8-8.4-10.5 0-5.5 5.6-9.1 11.3-9.1 2.1 0 4.2.4 6.1 1.3 1.9.8 3.6 2 4.9 3.6l-2.5 2.3c-2.1-2.4-4.6-4-8.7-4s-7.6 2.3-7.6 6.1c0 3.2 1.6 5.4 6.1 7.2l4.2 1.8c5.4 2.2 9.6 5.3 9.6 10.8 0 6-4.6 10.4-12.6 10.4-2.3 0-4.6-.5-6.7-1.4-2.1-1-4-2.3-5.6-4z" class="s2"/>
    <path fill-rule="evenodd" d="M159.2 110.9h6.6v8.9q-2.8 3.2-8.2 3.2c-2.7 0-5.3-1-7.2-2.9-1.9-1.9-3-4.4-3-7 0-2.7 1.1-5.2 3-7.1 1.9-1.8 4.5-2.9 7.2-2.9 1.8-.1 3.5.3 5 1.2l-2.3 3.5c-.8-.3-1.8-.5-2.7-.5q-1.1 0-2.2.4-1 .5-1.8 1.3c-1.1 1.1-1.7 2.6-1.7 4.1 0 1.5.6 2.9 1.7 4q.8.8 1.8 1.3 1.1.4 2.2.4c1.4 0 2.7-.3 3.9-1v-2.6h-2.3v-4.3zm11-7.5h12.2v4.3h-7.8v3.3h6.2v4.1h-6.2v3.3h7.8v4.3h-12.2zm20.8 9.2v10.1h-4.5v-19.5l12.5 10.3v-10.1h4.5v19.5zm17.7-9.2H221v4.3h-7.8v3.3h6.1v4.2h-6.1v3.2h7.8v4.3h-12.3zm14.6 0h5l4.4 9.7 4.4-9.7h5l-9.4 19.5zm24.7-.2 9.8 19.5h-4.7l-1.4-3h-7.3l-1.5 3h-4.7zm1.9 13-1.9-4-1.8 4z" class="s2"/>
  </g>
</svg>
