<svg xmlns="http://www.w3.org/2000/svg" viewBox="0 0 201.803 70.942">
  <g fill="#fff">
    <g data-name="Groupe 1548">
      <path d="M0 17.951A17.672 17.672 0 0 1 17.951 0 17.331 17.331 0 0 1 29.08 3.808L27.396 6.28a14.46 14.46 0 0 0-9.445-3.363c-8.456 0-14.786 6.527-14.786 15.033s6.33 15.033 14.786 15.033a14.694 14.694 0 0 0 9.495-3.363l1.634 2.47A18 18 0 0 1 0 17.951Z" data-name="Tracé 1"/>
      <path d="M35.852.396h3.066v35.11h-3.066Z" data-name="Tracé 2"/>
      <path d="M53.699 3.314h-9.94V.396h22.99v2.918H56.76v32.192h-3.061Z" data-name="Tracé 3"/>
      <path d="M81.638 20.572 68.83.396h3.511L83.22 17.704 94.05.396h3.462L84.704 20.572v14.934h-3.066Z" data-name="Tracé 4"/>
      <path d="M101.666.396h9.2c7.615 0 12.165 3.709 12.165 10.236s-4.549 10.236-12.165 10.236h-6.132v14.638h-3.068Zm9.2 17.654c5.984 0 8.951-2.621 8.951-7.418s-2.967-7.467-8.951-7.467h-6.132V18.05Z" data-name="Tracé 5"/>
      <path d="m137.023 0 16.962 35.506h-3.214l-5.143-10.731h-17.209l-5.093 10.731h-3.215Zm-7.222 21.857h14.44l-7.22-15.181Z" data-name="Tracé 6"/>
      <path d="m154.825 31.006 2.324-2.126a11.132 11.132 0 0 0 8.555 4.1c4.8 0 8.011-2.374 8.011-6.033 0-3.907-2.423-5.736-6.429-7.517l-3.709-1.582c-5.341-2.275-7.467-5.341-7.467-9.593 0-4.995 4.945-8.258 9.989-8.258a12.767 12.767 0 0 1 9.791 4.451l-2.275 2.129a9.291 9.291 0 0 0-7.665-3.659c-3.61 0-6.775 2.077-6.775 5.538 0 2.918 1.434 4.9 5.44 6.577l3.709 1.582c4.747 2.027 8.506 4.846 8.506 9.89 0 5.39-4.1 9.4-11.126 9.4a14.686 14.686 0 0 1-10.879-4.899Z" data-name="Tracé 7"/>
      <path d="m179.798 31.006 2.324-2.126a11.132 11.132 0 0 0 8.555 4.1c4.8 0 8.011-2.374 8.011-6.033 0-3.907-2.423-5.736-6.429-7.517l-3.709-1.582c-5.34-2.271-7.462-5.337-7.462-9.59 0-4.995 4.945-8.258 9.989-8.258a12.768 12.768 0 0 1 9.791 4.451l-2.28 2.126a9.291 9.291 0 0 0-7.665-3.659c-3.61 0-6.775 2.077-6.775 5.538 0 2.918 1.434 4.9 5.44 6.577l3.709 1.582c4.747 2.027 8.506 4.846 8.506 9.89 0 5.39-4.1 9.4-11.126 9.4a14.686 14.686 0 0 1-10.879-4.899Z" data-name="Tracé 8"/>
    </g>
    <path d="M63.03 59.969h5.875v8.089a9.2 9.2 0 0 1-7.269 2.888 9.042 9.042 0 0 1 0-18.084 8.4 8.4 0 0 1 4.4 1.043l-2.052 3.249a5.413 5.413 0 0 0-2.354-.46 4.734 4.734 0 0 0-3.585 1.518 5.428 5.428 0 0 0 0 7.373 4.742 4.742 0 0 0 3.585 1.518 5.886 5.886 0 0 0 3.412-.87v-2.4h-2.018v-3.875Zm9.687 10.716h10.879v-3.907h-6.923v-2.967h5.443v-3.808h-5.44v-2.967h6.923v-3.907H72.716v17.555Zm29.512.2V53.13h-3.956v9.173l-11.077-9.371v17.753h3.956v-9.173Zm4.619-.2h10.879v-3.907h-6.923v-2.967h5.44v-3.808h-5.44v-2.967h6.923v-3.907h-10.879v17.555Zm21.214.2 8.283-17.753h-4.4l-3.882 8.777-3.882-8.777h-4.4Zm4.945-.2h4.154l1.261-2.72h6.478l1.261 2.72h4.155l-8.654-17.753-8.654 17.753Zm7-5.934 1.657-3.659 1.657 3.659Z"/>
  </g>
</svg>
