<svg xmlns="http://www.w3.org/2000/svg" viewBox="0 0 75 75"><title>bus</title><path d="M36.81,44.91a6,6,0,0,0-6,6,6,6,0,1,0,6-6Zm0,9.49A3.24,3.24,0,1,1,40,51.16,3.16,3.16,0,0,1,36.81,54.4Z"/><path d="M56,24.31H42.13l3.7,17.59H56v2.78h-4.4v2.78H56v3H45.37v2.78H58.8V18.06H17.59v2.78H56ZM48.15,39.12l-2.55-12H56v12Z"/><rect x="17.59" y="50.23" width="10.65" height="2.78"/><path d="M39.35,24.07H27.55V39.81H39.35ZM36.57,37H30.32V26.85h6.25Z"/><polygon points="24.77 24.07 17.59 24.07 17.59 26.85 21.99 26.85 21.99 37.04 17.59 37.04 17.59 39.81 24.77 39.81 24.77 24.07"/><path d="M0,0V75H75V0ZM72.22,72.22H2.78V2.78H72.22Z"/></svg>
