<svg xmlns="http://www.w3.org/2000/svg" viewBox="0 0 75 75"><title>youtube</title><path d="M72.22,2.78V72.22H2.78V2.78H72.22M75,0H0V75H75V0Z"/><path d="M58.33,28.94s-.46-3-1.62-4.17a7.46,7.46,0,0,0-4.4-1.85c-6-.46-14.81-.46-14.81-.46h0s-8.8,0-14.81.46a5,5,0,0,0-4.17,1.85,10.75,10.75,0,0,0-1.62,4.17,40.6,40.6,0,0,0-.69,6.94v3.24a60.22,60.22,0,0,0,.46,6.94s.46,3,1.62,4.17c1.62,1.62,3.7,1.62,4.63,1.85,3.47.23,14.35.46,14.35.46s9,0,14.81-.46a5,5,0,0,0,4.17-1.85,10.75,10.75,0,0,0,1.62-4.17,60.22,60.22,0,0,0,.46-6.94V35.88A30,30,0,0,0,58.33,28.94ZM33.1,43.06V31.25l11.57,6Z"/></svg>
