<svg xmlns="http://www.w3.org/2000/svg" width="18" height="13" viewBox="0 0 18 13">	
  <title>icon-twitter-retweet</title>
  <path d="M17.41 8.73c-.19-.19-.51-.19-.7 0l-1.68 1.67V3.24c0-1.36-1.11-2.47-2.47-2.47H8.19c-.27 0-.49.22-.49.49s.22.49.49.49h4.38c.82 0 1.48.66 1.48 1.48v7.17l-1.67-1.67c-.19-.19-.51-.19-.7 0-.19.19-.19.51 0 .7l2.52 2.52c.09.09.22.14.35.14.13 0 .26-.05.35-.14l2.52-2.52c.18-.19.18-.5-.01-.7zM9.81 11.24H5.44c-.82 0-1.48-.66-1.48-1.48V2.59l1.68 1.68c.1.1.22.14.35.14.13 0 .25-.05.35-.14.19-.19.19-.51 0-.7L3.81 1.05c-.19-.19-.51-.19-.7 0L.59 3.57c-.19.19-.19.51 0 .7.19.19.51.19.7 0l1.68-1.68v7.17c0 1.36 1.11 2.47 2.47 2.47h4.38c.27 0 .49-.22.49-.49 0-.28-.22-.5-.5-.5z"/>
</svg>