<svg xmlns="http://www.w3.org/2000/svg" viewBox="0 0 26 26"><title>icon-cutlery</title><path d="M17,12.44c1.2.7,3.6.5,5.3-1.3s2.4-4.3.8-6.1h0c-1.7-1.7-4.3-1-6.1.8s-2,4.1-1.3,5.3c-.2,1-1.5,2.1-2.8,2.8a4.72,4.72,0,0,1-2.3-3.7,2.86,2.86,0,0,0-.8-2.3l-.2-.2L5,4.14l-.4.4,5,4.7-.6.5-4.8-4.8-.4.4,4.8,4.8-.5.5-4.8-4.8-.4.4L7.69,11l-.6.6-4.7-5-.4.5,3.8,4.8.1.1a3,3,0,0,0,1.9.7h0a4.66,4.66,0,0,1,3.7,2.1l-7.1,7.1h0a1.21,1.21,0,0,0,0,1.6l.1.1a1.21,1.21,0,0,0,1.6,0h0l6.9-6.9,6.9,6.9h0a1.21,1.21,0,0,0,1.6,0,1.12,1.12,0,0,0,0-1.6h0l-7.1-7.1C15.09,13.84,16.09,12.64,17,12.44Zm-.6-3.3a4.4,4.4,0,0,1,.2-1c.1-.2.1-.4.2-.5l.3-.6a3.45,3.45,0,0,1,.8-.9,5.55,5.55,0,0,0,.8-.6,4.88,4.88,0,0,0,.7-.3.77.77,0,0,1,.3-.1l-.2.2-.5.5a10.28,10.28,0,0,0-1.4,1.5c-.1.1-.2.3-.3.4s-.2.3-.2.5-.3.6-.4.9a2.54,2.54,0,0,0-.2.7v.3a.44.44,0,0,1-.1-.3Z"/></svg>