<svg xmlns="http://www.w3.org/2000/svg" viewBox="0 0 20 20"><title>icon-loop</title><path d="M18.6,16.64l-3.71-3.71a7.4,7.4,0,0,0,1.34-4.32,7.46,7.46,0,0,0-.6-3A7.46,7.46,0,0,0,11.57,1.6a7.58,7.58,0,0,0-5.92,0A7.46,7.46,0,0,0,1.6,5.66a7.58,7.58,0,0,0,0,5.92,7.46,7.46,0,0,0,4.06,4.06,7.49,7.49,0,0,0,3,.6,7.4,7.4,0,0,0,4.32-1.34l3.71,3.7a1.29,1.29,0,0,0,1,.41,1.38,1.38,0,0,0,1-2.36ZM12,12a4.67,4.67,0,0,1-3.42,1.42A4.67,4.67,0,0,1,5.19,12,4.67,4.67,0,0,1,3.77,8.62,4.67,4.67,0,0,1,5.19,5.19,4.66,4.66,0,0,1,8.62,3.77,4.67,4.67,0,0,1,12,5.19a4.67,4.67,0,0,1,1.42,3.42A4.67,4.67,0,0,1,12,12Z"/></svg>