<svg id="Layer_1" data-name="Layer 1" xmlns="http://www.w3.org/2000/svg" viewBox="0 0 40 40"><title>icon-view</title><path d="M20,9.4A23.46,23.46,0,0,0,.9,19.2L0,20.4l.9,1.3A23.73,23.73,0,0,0,20,31.5a23.56,23.56,0,0,0,10.71-2.58A23.09,23.09,0,0,0,39.1,21.7l.9-1.3-.9-1.3A23.64,23.64,0,0,0,20,9.4Zm5.9,8a2.2,2.2,0,1,1-2.2-2.2A2.36,2.36,0,0,1,25.9,17.4ZM20,27.1A19.36,19.36,0,0,1,5.4,20.4a18.08,18.08,0,0,1,7.5-5.3,8.76,8.76,0,0,0-.7,3.2,7.8,7.8,0,1,0,15.6,0,7.11,7.11,0,0,0-.7-3.2,19.77,19.77,0,0,1,7.5,5.3A19.36,19.36,0,0,1,20,27.1Z"/></svg>