<svg xmlns="http://www.w3.org/2000/svg" viewBox="0 0 75 75"><title>twitter</title><path d="M72.22,2.78V72.22H2.78V2.78H72.22M75,0H0V75H75V0Z"/><path d="M56.25,25a14,14,0,0,1-4.4,1.39,8,8,0,0,0,3.47-4.63,18.14,18.14,0,0,1-4.86,2.08,7.39,7.39,0,0,0-5.56-2.55c-4.17,0-7.64,3.7-7.64,8.33a4.51,4.51,0,0,0,.23,1.85c-6.48-.23-12-3.7-16-8.8a8,8,0,0,0-1.16,4.17,8.55,8.55,0,0,0,3.47,6.94,8.58,8.58,0,0,1-3.47-.93h0A8.26,8.26,0,0,0,26.62,41a6.41,6.41,0,0,1-2.08.23A2.94,2.94,0,0,1,23.15,41a7.87,7.87,0,0,0,7.18,5.79,14.13,14.13,0,0,1-9.49,3.47A5.1,5.1,0,0,1,19,50a21,21,0,0,0,11.81,3.7c14.12,0,22-12.73,22-23.61V28.94A14.58,14.58,0,0,0,56.25,25Z"/></svg>
