<svg xmlns="http://www.w3.org/2000/svg" viewBox="0 0 24.68 22.96"><g><g><path d="M12.27,23l-8.6-7.8A11.13,11.13,0,0,1,.25,9.46,6.89,6.89,0,0,1,0,6.86C.4,2.89,3.21,0,6.74,0a6.46,6.46,0,0,1,5.54,3.22A6.69,6.69,0,0,1,17.94,0c3.53,0,6.35,2.89,6.7,6.87a6.79,6.79,0,0,1-.21,2.61A11.15,11.15,0,0,1,21,15.16ZM6.73,1C3.74,1,1.34,3.51,1,7a5.69,5.69,0,0,0,.18,2.25,10.12,10.12,0,0,0,3.12,5.21l7.93,7.2,8.08-7.2a10.18,10.18,0,0,0,3.11-5.2A5.9,5.9,0,0,0,23.65,7c-.31-3.46-2.71-6-5.7-6a5.7,5.7,0,0,0-5.22,3.54L12.26,5.7l-.45-1.17A5.49,5.49,0,0,0,6.73,1Z"/></g></g></svg>