<svg xmlns="http://www.w3.org/2000/svg" viewBox="0 0 38 38"><title>icon-media</title><path d="M36.75,21.7l-6.5,6.5a.37.37,0,0,1-.3.1L1.85,31.8A.79.79,0,0,1,1,31V14.1L1.15,7a.79.79,0,0,1,.8-.8l4.9.3a.66.66,0,0,1,.7.6l.7,2.8h15.4a.79.79,0,0,1,.8.8v6l-9.3.8a1.56,1.56,0,0,0-1.2.6L3.25,29.7a2.19,2.19,0,0,0-.3.5l2.8-1.3,9.2-10c.1-.1.2-.2.3-.2l17.2-1.5a.55.55,0,0,1,.5.3.47.47,0,0,1-.1.6l-2.1,2.5-11.6,1.2a1.61,1.61,0,0,0-.9.3l-9.8,5.6,10.4-4.9c.1-.1.2-.1.4-.1l17.2-1.8a.55.55,0,0,1,.5.3C37,21.4,37,21.6,36.75,21.7Z"/></svg>