<svg xmlns="http://www.w3.org/2000/svg" viewBox="0 0 24 24"><title>icon-calender</title><path d="M8.95,13.16a.51.51,0,0,0-.51-.51H6.66a.51.51,0,0,0-.51.51v1.78a.51.51,0,0,0,.51.51H8.44a.51.51,0,0,0,.51-.51V13.16Z"/><path d="M13.4,13.16a.51.51,0,0,0-.51-.51H11.11a.51.51,0,0,0-.51.51v1.78a.51.51,0,0,0,.51.51h1.78a.51.51,0,0,0,.51-.51Z"/><path d="M17.86,13.16a.51.51,0,0,0-.51-.51H15.56a.51.51,0,0,0-.51.51v1.78a.51.51,0,0,0,.51.51h1.78a.51.51,0,0,0,.51-.51Z"/><path d="M8.95,17.62a.51.51,0,0,0-.51-.51H6.66a.51.51,0,0,0-.51.51V19.4a.51.51,0,0,0,.51.51H8.44a.51.51,0,0,0,.51-.51V17.62Z"/><path d="M13.4,17.62a.51.51,0,0,0-.51-.51H11.11a.51.51,0,0,0-.51.51V19.4a.51.51,0,0,0,.51.51h1.78a.51.51,0,0,0,.51-.51Z"/><path d="M17.86,17.62a.51.51,0,0,0-.51-.51H15.56a.51.51,0,0,0-.51.51V19.4a.51.51,0,0,0,.51.51h1.78a.51.51,0,0,0,.51-.51V17.62Z"/><path d="M21,3V5.73A2.22,2.22,0,0,1,18.81,8H17.41a2.23,2.23,0,0,1-2.24-2.22V3H8.83V5.73A2.23,2.23,0,0,1,6.59,8H5.19A2.22,2.22,0,0,1,3,5.73V3A2,2,0,0,0,1,5V21a2,2,0,0,0,2,2H21a2,2,0,0,0,2-2V5A2,2,0,0,0,21,3ZM20.5,20.13a.88.88,0,0,1-.88.87H4.38a.88.88,0,0,1-.88-.87V11.87A.88.88,0,0,1,4.38,11H19.62a.88.88,0,0,1,.88.87Z"/><path d="M5.18,6.74H6.57A.76.76,0,0,0,7.34,6V1.51A.76.76,0,0,0,6.57.75H5.18a.76.76,0,0,0-.76.76V6A.76.76,0,0,0,5.18,6.74Z"/><path d="M17.39,6.74h1.39A.76.76,0,0,0,19.54,6V1.51a.76.76,0,0,0-.76-.76H17.39a.76.76,0,0,0-.76.76V6A.76.76,0,0,0,17.39,6.74Z"/></svg>