<svg xmlns="http://www.w3.org/2000/svg" viewBox="0 0 75 75"><title>train</title><path d="M57.18,48.84c.46-5.09-5.09-18.06-9.49-20.6a17.26,17.26,0,0,0-10-2.55H35.65l5.79-3.24L30.79,17.36,19.91,22.45l5.79,3.24H17.36v2.78H37.5a16.77,16.77,0,0,1,8.56,2.08,5.35,5.35,0,0,1,1.62,1.62H35.88l2.78,12.5H53.94a7.63,7.63,0,0,1,.46,3.7c0,.46-.93.93-2.08.93H17.59v2.78h35A4,4,0,0,0,57.18,48.84ZM30.79,20.37l4.63,2.31-4.63,2.55-4.63-2.55ZM41,42.13,39.35,35H49.77A51.49,51.49,0,0,1,53,42.13Z"/><rect x="17.59" y="54.63" width="6.48" height="2.78"/><rect x="28.94" y="54.63" width="6.48" height="2.78"/><rect x="39.81" y="54.63" width="6.48" height="2.78"/><rect x="50.93" y="54.63" width="6.48" height="2.78"/><polygon points="29.86 32.18 17.59 32.18 17.59 34.95 27.08 34.95 27.08 41.9 17.59 41.9 17.59 44.68 29.86 44.68 29.86 32.18"/><path d="M0,0V75H75V0ZM72.22,72.22H2.78V2.78H72.22Z"/></svg>
