<svg xmlns="http://www.w3.org/2000/svg" viewBox="0 0 75 75"><title>wechat</title><path d="M72.22,2.78V72.22H2.78V2.78H72.22M75,0H0V75H75V0Z"/><path d="M47.69,29.63a14.6,14.6,0,0,0-5.56-7.87,20.74,20.74,0,0,0-14.35-3.7,17.7,17.7,0,0,0-11.34,5.56A13.13,13.13,0,0,0,16,41.2c1.16,1.39,2.55,2.31,3.7,3.7-.46,1.62-1.16,3.24-1.85,5.09,2.08-.93,3.94-1.85,5.79-2.78a1.39,1.39,0,0,1,.93-.23c1.16.23,2.08.46,3.24.69a12.59,12.59,0,0,0,4.17,0c-2.55-9,4.86-18.29,16-17.36C47.92,30.09,47.69,29.86,47.69,29.63ZM26.62,28.47a2,2,0,0,1-2.08,1.39h-.46A2.49,2.49,0,0,1,22,28a2,2,0,0,1,.93-2.08,2.43,2.43,0,0,1,3,0A2.1,2.1,0,0,1,26.62,28.47Zm10.19,1.39a2.36,2.36,0,0,1-2.55-2.08,2.36,2.36,0,0,1,2.55-2.08,1.94,1.94,0,0,1,2.08,2.08C39.12,28.94,38.19,29.86,36.81,29.86Z"/><path d="M59.26,36.34C53.7,29.86,42.82,29.17,36.57,35a11.54,11.54,0,0,0-3.24,13.19A13,13,0,0,0,41,55.32a16.74,16.74,0,0,0,10.65.46,1.9,1.9,0,0,1,1.62.23,34.85,34.85,0,0,1,3.94,2.31c-.46-1.39-.69-2.78-1.16-3.94,0-.46,0-.46.23-.69A31.43,31.43,0,0,0,59,50.93C63.19,46.53,63.19,41,59.26,36.34ZM42.59,41.67a1.85,1.85,0,0,1,0-3.7,2,2,0,0,1,2.08,1.85A1.89,1.89,0,0,1,42.59,41.67Zm9.72,0a1.85,1.85,0,0,1,0-3.7,1.87,1.87,0,0,1,2.08,1.62A2.07,2.07,0,0,1,52.31,41.67Z"/></svg>
