<svg width="14" height="14" viewBox="0 0 14 14" fill="none" xmlns="http://www.w3.org/2000/svg">
<path d="M1.18875 12.8112C1.672 13.2944 2.4555 13.2944 2.93874 12.8112L7.53246 8.21743L12.0168 12.7018C12.4397 13.1247 13.1252 13.1247 13.5481 12.7018V12.7018C13.9709 12.279 13.9709 11.5934 13.5481 11.1706L9.06368 6.6862L13.4387 2.31117C13.922 1.82792 13.922 1.04442 13.4387 0.561176V0.561176C12.9555 0.077927 12.172 0.0779262 11.6887 0.561175L7.31369 4.93621L2.82928 0.451822C2.40645 0.0289872 1.7209 0.0289885 1.29806 0.451825V0.451825C0.875224 0.874662 0.875225 1.56022 1.29806 1.98305L5.78247 6.46743L1.18875 11.0612C0.705505 11.5444 0.705505 12.3279 1.18875 12.8112V12.8112Z" fill="black"/>
</svg>
