<svg xmlns="http://www.w3.org/2000/svg" viewBox="0 0 75 75"><title>wifi</title><path d="M37.5,56a4.2,4.2,0,0,1-3.24-1.39,4.71,4.71,0,0,1-1.39-3.47A4.85,4.85,0,0,1,37.5,46.3,5.1,5.1,0,0,1,41,47.69a4.71,4.71,0,0,1,1.39,3.47A5.43,5.43,0,0,1,37.5,56Zm0-6.94h0a2.07,2.07,0,0,0-2.08,2.08c0,1.16.93,1.85,2.08,2.08a2.07,2.07,0,0,0,2.08-2.08A2.44,2.44,0,0,0,37.5,49.07Z"/><path d="M30.09,44,27.78,41.9c5.09-5.32,13.66-5.32,19.21-.23L44.91,44A10.34,10.34,0,0,0,30.09,44Z"/><path d="M24.77,36.81l-2.31-2.08a21,21,0,0,1,14.81-6.25,21.78,21.78,0,0,1,15,6l-2.08,2.31A18.44,18.44,0,0,0,37.5,31.71,16.59,16.59,0,0,0,24.77,36.81Z"/><path d="M20.83,29.17l-2.31-2.08a26.9,26.9,0,0,1,37.73-.46l-2.08,2.31A23.47,23.47,0,0,0,20.83,29.17Z"/><path d="M72.22,2.78V72.22H2.78V2.78H72.22M75,0H0V75H75V0Z"/></svg>
