<svg xmlns="http://www.w3.org/2000/svg" viewBox="0 0 75 75"><title>google+</title><path d="M72.22,2.78V72.22H2.78V2.78H72.22M75,0H0V75H75V0Z"/><path d="M32.18,36.57v4.86h8.1c-.23,2.08-2.55,6.25-8.1,6.25a9.19,9.19,0,0,1-9-9,8.89,8.89,0,0,1,9-9A7.92,7.92,0,0,1,38,31.94l3.94-3.7a14.06,14.06,0,0,0-9.72-3.7,14.35,14.35,0,1,0,0,28.7c8.33,0,13.89-5.79,13.89-14.12a7.14,7.14,0,0,0-.23-2.31l-13.66-.23Z"/><polygon points="62.04 36.57 57.87 36.57 57.87 32.41 53.94 32.41 53.94 36.57 49.77 36.57 49.77 40.51 53.94 40.51 53.94 44.68 57.87 44.68 57.87 40.51 62.04 40.51 62.04 36.57"/></svg>
