<svg xmlns="http://www.w3.org/2000/svg" viewBox="0 0 26 26"><title>icon-binoculars</title><path d="M6.6,8.05l1.3-2.2h0a2.23,2.23,0,0,1,1.8-1,2.1,2.1,0,0,1,1.8,1h2.9a2.23,2.23,0,0,1,1.8-1,2.1,2.1,0,0,1,1.8,1h0l1.3,2.2a5.9,5.9,0,0,0-1.4-.2,4.19,4.19,0,0,0-3.5,1.9H11.2a4.19,4.19,0,0,0-3.5-1.9A1.68,1.68,0,0,0,6.6,8.05Zm17.2,8.3a4.8,4.8,0,0,1-4.8,4.8,5,5,0,0,1-4.1-2.2,2.2,2.2,0,0,1-1.9.9,2.65,2.65,0,0,1-1.9-.9A5,5,0,0,1,7,21.15a4.8,4.8,0,0,1-4.8-4.8,4.46,4.46,0,0,1,.8-2.6H3l2.6-4.2a3.26,3.26,0,0,1,2.3-1,3.45,3.45,0,0,1,2.9,1.7l.1.2H15l.1-.2A3.24,3.24,0,0,1,18,8.55a2.9,2.9,0,0,1,2.3,1l2.6,4.2h0A3.46,3.46,0,0,1,23.8,16.35Zm-13.6,0a3,3,0,0,0-3-3,3,3,0,1,0,0,6A3,3,0,0,0,10.2,16.35Zm4,1.2a1.1,1.1,0,1,0-1.1,1.1A1.11,1.11,0,0,0,14.2,17.55Zm7.8-1.2a3,3,0,1,0-3,3A2.95,2.95,0,0,0,22,16.35Z"/></svg>