<svg xmlns="http://www.w3.org/2000/svg" viewBox="0 0 22 22"><title>icon-at</title><path d="M14.6,5.5h1.69L15.13,12a3.54,3.54,0,0,0,0,1.64.76.76,0,0,0,.81.51,2.87,2.87,0,0,0,1.23-.29A3.13,3.13,0,0,0,18.24,13,4.83,4.83,0,0,0,19,11.48a7,7,0,0,0,.31-2.17,7.22,7.22,0,0,0-.61-3.09,5.77,5.77,0,0,0-1.65-2.11A6.76,6.76,0,0,0,14.6,2.9a11.66,11.66,0,0,0-3.06-.39A8.93,8.93,0,0,0,8,3.18,8.74,8.74,0,0,0,5.24,5,8.57,8.57,0,0,0,3.37,7.85a9.13,9.13,0,0,0-.67,3.53,9.66,9.66,0,0,0,.56,3.38,6.84,6.84,0,0,0,1.66,2.55A7.23,7.23,0,0,0,7.6,18.92a11,11,0,0,0,3.68.57,8.83,8.83,0,0,0,1.59-.17,6.86,6.86,0,0,0,1.61-.51l.75,2.32a7.88,7.88,0,0,1-2,.67,12.78,12.78,0,0,1-2.35.19,13.44,13.44,0,0,1-4.33-.68,9.71,9.71,0,0,1-3.44-2A9,9,0,0,1,.82,16,11.67,11.67,0,0,1,0,11.49,11.56,11.56,0,0,1,.94,6.73,11,11,0,0,1,7.16.81,12.18,12.18,0,0,1,11.59,0a12.89,12.89,0,0,1,4.12.64A9.8,9.8,0,0,1,19,2.47,8.44,8.44,0,0,1,21.2,5.39,9.26,9.26,0,0,1,22,9.31a7.73,7.73,0,0,1-.54,2.9,7.2,7.2,0,0,1-3.71,3.91A6.45,6.45,0,0,1,15,16.7a4.42,4.42,0,0,1-1.12-.13,2,2,0,0,1-.87-.45,1.88,1.88,0,0,1-.52-.82,3.25,3.25,0,0,1-.1-1.25h-.09q-.36.51-.78,1a6.61,6.61,0,0,1-.93.86,4.43,4.43,0,0,1-1.11.59,3.9,3.9,0,0,1-1.33.22,2.5,2.5,0,0,1-1.1-.25,2.68,2.68,0,0,1-.92-.71,3.61,3.61,0,0,1-.62-1.11,4.42,4.42,0,0,1-.22-1.45,9,9,0,0,1,.48-2.91,8.76,8.76,0,0,1,1.31-2.5A6.94,6.94,0,0,1,9.05,6a4.43,4.43,0,0,1,2.32-.66,3.56,3.56,0,0,1,1.43.25,4.54,4.54,0,0,1,1.06.66ZM13.08,8.42A2.54,2.54,0,0,0,12.43,8a2.1,2.1,0,0,0-.84-.15,2.37,2.37,0,0,0-1.34.41A3.91,3.91,0,0,0,9.19,9.34a5.09,5.09,0,0,0-.68,1.46,5.56,5.56,0,0,0-.25,1.58,2.35,2.35,0,0,0,.33,1.3,1.23,1.23,0,0,0,1.12.5,1.53,1.53,0,0,0,.72-.2,3.42,3.42,0,0,0,.75-.54,6.94,6.94,0,0,0,.7-.77,7.87,7.87,0,0,0,.6-.92Z"/></svg>