<?xml version="1.0" encoding="utf-8"?>
<!-- Generator: Adobe Illustrator 21.1.0, SVG Export Plug-In . SVG Version: 6.00 Build 0)  -->
<svg version="1.1" id="Ebene_1" xmlns="http://www.w3.org/2000/svg" xmlns:xlink="http://www.w3.org/1999/xlink" x="0px" y="0px"
	 viewBox="0 0 45 45" style="enable-background:new 0 0 45 45;" xml:space="preserve">
<title>google+</title>
<g>
	<path d="M14.7,21.6v4.9h8.1c-0.2,2.1-2.5,6.3-8.1,6.3c-4.9-0.1-8.9-4.1-9-9c-0.1-4.9,3.9-8.9,8.8-9c0.1,0,0.1,0,0.2,0
		c2.2-0.1,4.3,0.7,5.8,2.3l3.9-3.7c-2.6-2.4-6.1-3.8-9.7-3.7C6.8,9.5,0.4,16,0.4,23.9c0,7.9,6.4,14.4,14.3,14.4c0,0,0,0,0,0
		c8.3,0,13.9-5.8,13.9-14.1c0-0.8,0-1.6-0.2-2.3L14.7,21.6L14.7,21.6z"/>
	<polygon points="44.6,21.6 40.4,21.6 40.4,17.4 36.5,17.4 36.5,21.6 32.3,21.6 32.3,25.5 36.5,25.5 36.5,29.7 40.4,29.7 40.4,25.5 
		44.6,25.5 	"/>
</g>
</svg>
