<svg xmlns="http://www.w3.org/2000/svg" viewBox="0 0 34 34"><title>icon-chef-hat</title><path d="M2.34,11.75A5.29,5.29,0,0,1,5.29,8.53c.34-.14.69-.21,1.1-.34,0-.14-.07-.21-.07-.27a4.44,4.44,0,0,1,1.51-6,7.33,7.33,0,0,1,8.37,0,1.54,1.54,0,0,0,1.85,0c3.09-1.85,6-1.78,8.64.27A4.39,4.39,0,0,1,28,7.91c-.07.07-.07.21-.14.34.34.14.69.21,1,.34a4.57,4.57,0,0,1,2.88,2.95,4.69,4.69,0,0,1-2,5.08,7.19,7.19,0,0,1-3.7,1c-.55,0-.69.21-.69.75V29.73a2.64,2.64,0,0,1-1.58,2.54,12.33,12.33,0,0,1-4.46,1.23,17.9,17.9,0,0,1-7.13-.55,15.18,15.18,0,0,1-2.4-1.1,2,2,0,0,1-1-1.85V18.34c0-.55-.14-.75-.69-.75a7.65,7.65,0,0,1-3.43-.82C2,15.12,2.27,13.26,2.2,13.13A4.9,4.9,0,0,1,2.34,11.75ZM23.54,15.6a2.32,2.32,0,0,1,.55.21,4.34,4.34,0,0,0,5-1.17A2.81,2.81,0,0,0,30,12.17,2.51,2.51,0,0,0,28.47,10c-1.1-.41-2.26-.62-3.5-1a3.44,3.44,0,0,1,.48-.55c1.58-1.44,1.78-3.22.27-4.73a4.51,4.51,0,0,0-4-1.65A7.64,7.64,0,0,0,17.5,4.42c-.14.14-.27.21-.27.27-.75-.55-1.44-1.1-2.13-1.58a5.14,5.14,0,0,0-3.57-1,4.9,4.9,0,0,0-2.74,1.3A3.23,3.23,0,0,0,7.49,6.2a4,4,0,0,0,1.3,2.4c.14.21.21.41.34.62a17.78,17.78,0,0,0-2.88.62A2.86,2.86,0,0,0,4.4,13.61a4.57,4.57,0,0,0,4.66,2.47c.55-.14,1.1-.34,1.71-.48V27.74a18.35,18.35,0,0,1,12.69.07C23.54,23.76,23.54,19.71,23.54,15.6ZM17,28.15c-.41,0-1.23.07-1.71.07a13.54,13.54,0,0,0-3.09.89c-.41.21-.82.41-.82,1s.41.75.75,1a6.44,6.44,0,0,0,1,.41,15.12,15.12,0,0,0,6.31.34A9.2,9.2,0,0,0,22.23,31c.82-.41.82-1.1.07-1.58a4.19,4.19,0,0,0-1-.48A12.71,12.71,0,0,0,17,28.15Z"/></svg>