<svg xmlns="http://www.w3.org/2000/svg" width="75" height="75" viewBox="0 0 75 75">
  <title>icon-whatsapp-square</title>
  <path d="M0 0v75h75V0H0zm72.22 72.22H2.78V2.78h69.45l-.01 69.44z"/>
  <path d="M60.5 36.65c-.08 12.08-9.94 21.8-22.02 21.72-3.65-.02-7.23-.96-10.43-2.73l-12.13 3.84 3.96-11.63c-6.22-10.22-2.98-23.54 7.24-29.76 3.47-2.11 7.46-3.2 11.52-3.16 12.03-.04 21.81 9.67 21.85 21.7.01.01.01.01.01.02zM38.64 18.4c-10.13-.04-18.38 8.12-18.45 18.25 0 3.85 1.24 7.6 3.53 10.7l-2.29 6.75 7.06-2.23c8.38 5.65 19.75 3.44 25.41-4.94s3.44-19.75-4.94-25.41a18.312 18.312 0 0 0-10.32-3.12zm11.02 23.26c-.12-.25-.5-.37-1.05-.62-.56-.25-3.16-1.55-3.65-1.73s-.87-.25-1.18.25c-.37.56-1.36 1.73-1.67 2.1s-.62.37-1.18.12c-1.6-.6-3.07-1.5-4.33-2.66a15.205 15.205 0 0 1-2.97-3.71c-.31-.56 0-.8.25-1.11.25-.25.56-.62.8-.93.21-.27.39-.56.56-.87.14-.3.12-.65-.06-.93-.12-.25-1.18-2.91-1.67-3.96-.43-1.05-.87-.87-1.18-.87-.31 0-.68-.06-1.05-.06-.55.01-1.07.26-1.42.68a5.963 5.963 0 0 0-1.85 4.47c.19 2 .94 3.91 2.17 5.51 2.23 3.49 5.41 6.28 9.16 8.04 5.45 2.1 5.45 1.42 6.44 1.3a5.26 5.26 0 0 0 3.59-2.54c.32-.78.43-1.64.29-2.48z"/>
</svg>