<svg id="Layer_1" data-name="Layer 1" xmlns="http://www.w3.org/2000/svg" viewBox="0 0 40 40"><title>icon-wifi</title><path d="M26.7,29a2.5,2.5,0,0,1-1.8-.8,6.55,6.55,0,0,0-9.7-.1,2.48,2.48,0,0,1-3.7-3.3,11.41,11.41,0,0,1,17,0,2.51,2.51,0,0,1-.2,3.5A2,2,0,0,1,26.7,29Z"/><path d="M32.1,22.8a2.19,2.19,0,0,1-1.7-.7,14.73,14.73,0,0,0-20.8,0,2.51,2.51,0,0,1-3.5,0,2.42,2.42,0,0,1,0-3.5,19.56,19.56,0,0,1,27.6,0,2.42,2.42,0,0,1,0,3.5A1.86,1.86,0,0,1,32.1,22.8Z"/><path d="M37.5,16.7a2.34,2.34,0,0,1-1.7-.7A22.84,22.84,0,0,0,20,9.6,23.08,23.08,0,0,0,4.1,16a2.51,2.51,0,0,1-3.5-.1,2.51,2.51,0,0,1,.1-3.5A27.5,27.5,0,0,1,19.9,4.7a27.5,27.5,0,0,1,19.2,7.7,2.51,2.51,0,0,1,.1,3.5A1.88,1.88,0,0,1,37.5,16.7Z"/><circle cx="20" cy="32.6" r="3"/></svg>