<svg xmlns="http://www.w3.org/2000/svg" width="14" height="13" viewBox="0 0 14 13">
  <title>icon-twitter-like</title>
  <path d="M7 12.72s-.01 0 0 0C5.29 12.69.39 8.26.39 4.06.39 2.04 2.05.27 3.95.27c1.51 0 2.52 1.04 3.06 1.8.54-.76 1.55-1.8 3.06-1.8 1.9 0 3.56 1.77 3.56 3.79-.01 4.2-4.92 8.63-6.63 8.66.01 0 0 0 0 0zM3.94 1.26c-1.37 0-2.57 1.31-2.57 2.8C1.37 7.84 6 11.7 7 11.74c1-.04 5.63-3.89 5.63-7.67 0-1.49-1.2-2.8-2.57-2.8-1.66 0-2.59 1.93-2.6 1.95-.15.37-.76.37-.91 0-.01-.02-.94-1.96-2.61-1.96z"/>
</svg>