<svg id="Layer_1" data-name="Layer 1" xmlns="http://www.w3.org/2000/svg" viewBox="0 0 40 40"><title>icon-restaurant</title><path d="M21.7,30.1a9.3,9.3,0,1,0-9.3-9.3A9.35,9.35,0,0,0,21.7,30.1Z"/><path d="M21.7,32.6A11.8,11.8,0,1,0,9.9,20.8,11.82,11.82,0,0,0,21.7,32.6Zm0-21.8a10,10,0,1,1-10,10A10,10,0,0,1,21.7,10.8Z"/><path d="M40,33.7,39.4,7.2a1,1,0,0,0-1-1c-.2,0-.3,0-.4.1h-.1c-.1.1-.2.1-.3.2a9.72,9.72,0,0,0-3.4,6.6c-.3,5.2,2.2,7.3,3.1,9.2l-.7,11.3c0,.6,1.1,1,1.7,1S40,34.2,40,33.7Z"/><path d="M1.9,17.6l1.8.9a1.45,1.45,0,0,0,.7.2L3.6,34.1c0,.5,1.1.9,1.7.9S7,34.6,7,34.1L6.4,18.6c.2-.1.5-.2.7-.3l1.3-.8a3.76,3.76,0,0,0,1.7-3V7.6a1,1,0,0,0-1-1A1.09,1.09,0,0,0,8,7.6v6.2H7.4V7.6a1,1,0,0,0-2,0v6.2H4.8V7.6a1,1,0,0,0-1-1,1.08,1.08,0,0,0-1,1v6.2H2.1v-6a1,1,0,0,0-1-1,1.08,1.08,0,0,0-1,1v6.8A3.49,3.49,0,0,0,1.9,17.6Z"/></svg>