<svg xmlns="http://www.w3.org/2000/svg" viewBox="0 0 75 75"><title>plain</title><rect x="36.11" y="49.77" width="2.55" height="5.56"/><path d="M31.48,45.37v2.78l-7.87,3.94v5.56h8.8l.69.69a5.2,5.2,0,0,0,3.7,1.39H37q3.47,0,4.86-2.08h9V52.08l-8.1-4.17V43.06l18.06,1.85-1.62-6-3.94-2.08V30.56H47.92v2.31l-4.63-2.78V20.83a5.22,5.22,0,0,0-5.56-5.56c-3.7,0-6,2.08-6,5.56v8.8l-5.09,2.78V30.32H19.21v6.25l-3.94,2.31-1.62,6,17.82-1.85Zm-5.32,9.72V53.47l5.32-2.78v4.17H26.16Zm22.69-1.62v1.62H43.29v-4.4Zm2.08-20.6h2.31v2.31L50.93,34Zm6.71,7.64.46,1.39L43.52,40.28V32.87ZM34,20.83c0-2.08,1.16-3,3.47-3a2.69,2.69,0,0,1,3,3v33.1c0,2.08-1.16,3-3.47,3a4.42,4.42,0,0,1-2.31-.69,3.54,3.54,0,0,1-.93-2.31V20.83Zm-12.27,12h2.31v.93l-2.31,1.39Zm-4.63,9,.46-1.39,8.8-4.86h.23v-.23l4.86-2.78v7.87Z"/><path d="M38.43,22l1.39-2.08a4.6,4.6,0,0,0-4.86,0L36.34,22A1.74,1.74,0,0,1,38.43,22Z"/><path d="M0,0V75H75V0ZM72.22,72.22H2.78V2.78H72.22Z"/></svg>
