<svg xmlns="http://www.w3.org/2000/svg" viewBox="0 0 26 26"><title>icon-balloon</title><path d="M5,20l2.8,3.69a.84.84,0,0,0,1.3,0L12,20H23a1,1,0,0,0,1-1V6a1,1,0,0,0-1-1H3A1,1,0,0,0,2,6V19a.94.94,0,0,0,1,1ZM6,9.2A.22.22,0,0,1,6.2,9H18.8a.22.22,0,0,1,.2.2v.6a.22.22,0,0,1-.2.2H6.2A.22.22,0,0,1,6,9.8V9.2Zm0,3a.22.22,0,0,1,.2-.2H18.8a.22.22,0,0,1,.2.2v.6a.22.22,0,0,1-.2.2H6.2a.22.22,0,0,1-.2-.2v-.6Zm0,3a.22.22,0,0,1,.2-.2h8.6a.22.22,0,0,1,.2.2v.6a.22.22,0,0,1-.2.2H6.2a.22.22,0,0,1-.2-.2v-.6Z"/></svg>