<svg xmlns="http://www.w3.org/2000/svg" width="75" height="75" viewBox="0 0 75 75">
  <title>icon-envelope-square</title>
  <path d="M0 0v75h75V0H0zm72.22 72.22H2.78V2.78h69.45l-.01 69.44z"/>
  <path d="M57.93 19.46H17.07c-2.58.01-4.67 2.1-4.68 4.68v26.72c.01 2.58 2.1 4.67 4.68 4.68H57.93c2.58-.01 4.67-2.1 4.68-4.68V24.14a4.699 4.699 0 0 0-4.68-4.68zm1.6 31.55a1.52 1.52 0 0 1-1.52 1.46H16.92a1.52 1.52 0 0 1-1.46-1.52V24.76l14.2 12.41-8.39 7.84-.16.21c-.1.23-.29.53-.31 1.02-.01.35.16.76.45 1.03l.01.01c.28.26.64.41 1.02.41l.11-.01h.07c.37 0 .74-.14 1.01-.4l8.58-8.02 2 1.75.06.05c.98.7 2.16 1.09 3.37 1.12h.19c1.23 0 2.43-.4 3.41-1.13l.04-.03 1.92-1.66 8.48 7.93c.27.26.64.4 1.01.4l.09-.01.09.01c.38 0 .74-.15 1.02-.41l.01-.01.15-.15.07-.08c.2-.26.3-.58.3-.89 0-.42-.19-.84-.54-1.13l-8.27-7.73 14.07-12.15v25.74l.01.13zM39.02 38.66c-.43.29-.92.44-1.42.44-.5 0-.99-.15-1.42-.44L17.72 22.53h39.97L39.02 38.66z"/>
</svg>