<svg xmlns="http://www.w3.org/2000/svg" width="75.725" height="70" viewBox="0 0 75.725 70">
  <path id="Shape" d="M58.376,68.531V62.415a14.865,14.865,0,0,1-9.918-5.84,18.17,18.17,0,0,1-8.959,3.4v8.555a1.482,1.482,0,0,1-2.964,0V60a18.138,18.138,0,0,1-9.268-3.426,14.865,14.865,0,0,1-9.918,5.84v6.116a1.482,1.482,0,0,1-2.964,0V62.449C6.341,61.66,0,53.73,0,44.095c0-3.389,1.655-8.082,4.919-13.947a121.013,121.013,0,0,1,7.725-11.924,3.706,3.706,0,0,1,6.125,0c.726,1,1.721,2.39,2.823,4.019A142.113,142.113,0,0,1,34.187,1.952a4.436,4.436,0,0,1,7.35,0,142.194,142.194,0,0,1,12.595,20.29c1.1-1.629,2.1-3.022,2.822-4.019a3.706,3.706,0,0,1,6.125,0A120.684,120.684,0,0,1,70.8,30.147c3.264,5.865,4.92,10.558,4.92,13.947,0,9.635-6.341,17.565-14.386,18.355v6.082a1.482,1.482,0,0,1-2.964,0Z" fill="#fff"/>
</svg>
