<svg id="Group_312" data-name="Group 312" xmlns="http://www.w3.org/2000/svg" width="120.29" height="60.145" viewBox="0 0 120.29 60.145">
  <path id="Path" d="M10.017,20.193A10.1,10.1,0,1,0,0,10.1a10.057,10.057,0,0,0,10.017,10.1Z" transform="translate(45.993)" fill="#fff"/>
  <path id="Path-2" data-name="Path" d="M61.366,43.636a2.854,2.854,0,0,1,.694,2.687,2.733,2.733,0,0,1-1.895,1.967,2.613,2.613,0,0,1-2.588-.72l-5.745-5.963L36.365,25.566l-31.79,33a2.611,2.611,0,0,1-3.79,0,2.857,2.857,0,0,1,0-3.934L34.477,19.673a2.609,2.609,0,0,1,3.79,0l15.52,16.11,33.719-35a2.686,2.686,0,0,1,3.79,0l21.493,22.323a2.854,2.854,0,0,1,.694,2.687,2.733,2.733,0,0,1-1.895,1.967A2.613,2.613,0,0,1,109,27.04L89.394,6.69,57.576,39.716Z" transform="translate(0 0.765)" fill="#fff"/>
  <path id="Path-3" data-name="Path" d="M37.235,25.154a2.663,2.663,0,0,1-3.79,0L21.97,13.533,17.7,17.839a2.743,2.743,0,0,1-3.79,0L.785,4.611a2.716,2.716,0,0,1,0-3.82,2.665,2.665,0,0,1,3.79,0L15.8,12.183l4.272-4.306a2.743,2.743,0,0,1,3.79,0l13.391,13.5a2.715,2.715,0,0,1,.054,3.86Z" transform="translate(82.208 29.556)" fill="#fff"/>
</svg>
