<svg xmlns="http://www.w3.org/2000/svg" width="20.75" height="20.75" viewBox="0 0 20.75 20.75">
  <path id="Icon_ionic-ios-arrow-dropdown-circle" data-name="Icon ionic-ios-arrow-dropdown-circle" d="M3.375,13.75A10.375,10.375,0,1,0,13.75,3.375,10.373,10.373,0,0,0,3.375,13.75ZM17.8,11.585a.966.966,0,0,1,1.362,0,.951.951,0,0,1,.279.678.968.968,0,0,1-.284.683l-4.7,4.689a.962.962,0,0,1-1.327-.03L8.348,12.847A.963.963,0,0,1,9.71,11.485l4.045,4.085Z" transform="translate(-3.375 -3.375)" fill="#2572cc"/>
</svg>
