<svg xmlns="http://www.w3.org/2000/svg" xmlns:xlink="http://www.w3.org/1999/xlink" viewBox="0 0 34.65 34.65"><defs><style>.cls-1{fill:none;}.cls-2{clip-path:url(#clip-path);}.cls-3{fill:#000;}.cls-4{clip-path:url(#clip-path-2);}</style><clipPath id="clip-path" transform="translate(7.9 7.9)"><path class="cls-1" d="M15.43.59.59,15.44a2,2,0,0,0,0,2.82,2,2,0,0,0,2.82,0L18.26,3.41A2,2,0,0,0,16.85,0a2,2,0,0,0-1.42.59"/></clipPath><clipPath id="clip-path-2" transform="translate(7.9 7.9)"><path class="cls-1" d="M.59.59a2,2,0,0,0,0,2.82L15.43,18.26a2,2,0,0,0,2.83-2.82L3.41.59A2,2,0,0,0,.59.59"/></clipPath></defs><title>Asset 2</title><g id="Layer_2" data-name="Layer 2"><g id="Layer_1-2" data-name="Layer 1"><g class="cls-2"><rect class="cls-3" x="-8.08" y="2.43" width="35" height="14" transform="translate(4 17.32) rotate(-45)"/></g><g class="cls-4"><rect class="cls-3" x="2.42" y="-8.07" width="14" height="35" transform="translate(4 17.32) rotate(-45)"/></g></g></g></svg>
