<svg id="Desktop_close_search_bar" data-name="Desktop close search bar" xmlns="http://www.w3.org/2000/svg" width="14" height="14" viewBox="0 0 14 14">
  <g id="Groupe_1245" data-name="Groupe 1245" transform="translate(1 1)">
    <path id="Tracé_1452" data-name="Tracé 1452" d="M-2032.608-4496.079a1,1,0,0,1-.707-.293l-12-12a1,1,0,0,1,0-1.414,1,1,0,0,1,1.414,0l12,12a1,1,0,0,1,0,1.414A1,1,0,0,1-2032.608-4496.079Z" transform="translate(2044.608 4509.078)" fill="#7e7e7e"/>
    <path id="Tracé_1453" data-name="Tracé 1453" d="M12,13a1,1,0,0,1-.707-.293l-12-12a1,1,0,0,1,0-1.414,1,1,0,0,1,1.414,0l12,12A1,1,0,0,1,12,13Z" transform="translate(12 0) rotate(90)" fill="#7e7e7e"/>
  </g>
</svg>
