<svg xmlns="http://www.w3.org/2000/svg" width="20" height="20" viewBox="0 0 20 20">
  <g id="Icon" transform="translate(0 0)" opacity="0.4">
    <path id="Path" d="M10.24,11.809l2.816-2.817A5.269,5.269,0,0,0,5.605,1.541L1.541,5.605a5.266,5.266,0,0,0,.987,8.226L4.7,11.655a2.373,2.373,0,0,1-1.13-.631,2.4,2.4,0,0,1,0-3.387L7.637,3.573A2.395,2.395,0,0,1,11.024,6.96L9.83,8.154A6.455,6.455,0,0,1,10.24,11.809Z" transform="translate(5.403 0)"/>
    <path id="Path-2" data-name="Path" d="M4.357,2.022,1.541,4.839A5.269,5.269,0,0,0,8.992,12.29l4.064-4.064A5.267,5.267,0,0,0,12.07,0L9.894,2.176a2.39,2.39,0,0,1,1.13,4.018L6.96,10.258A2.395,2.395,0,0,1,3.573,6.871L4.767,5.677A6.452,6.452,0,0,1,4.357,2.022Z" transform="translate(0 6.169)"/>
  </g>
</svg>
