<svg id="Gallery_blue" data-name="Gallery blue" xmlns="http://www.w3.org/2000/svg" width="21" height="18.776" viewBox="0 0 21 18.776" fill="#999999">
  <path id="Path_1085" data-name="Path 1085" d="M289.808,413.885a.838.838,0,0,1,.587-.215l15.378-.114V413.2a1.111,1.111,0,0,0-1.106-1.085H289.111a1.113,1.113,0,0,0-1.111,1.11v13.333a1.112,1.112,0,0,0,1.092,1.108l.419,0,.1-13.334A.892.892,0,0,1,289.808,413.885Z" transform="translate(-288 -412.112)"/>
  <path id="Path_1086" data-name="Path 1086" d="M306.889,414.333H291.658a1.436,1.436,0,0,0-1.436,1.436v13.008a1.114,1.114,0,0,0,1.111,1.111h15.556A1.113,1.113,0,0,0,308,428.779V415.444A1.115,1.115,0,0,0,306.889,414.333Zm-10.308,3.026h0a1.667,1.667,0,1,1-1.667,1.667A1.667,1.667,0,0,1,296.582,417.359Zm9.2,9.79a.518.518,0,0,1-.519.518H292.963a.518.518,0,0,1-.519-.518v-1.958a.515.515,0,0,1,.106-.314l1.521-2a1.07,1.07,0,0,1,1.561-.152l1.4,1.248a.518.518,0,0,0,.749-.064l3.67-4.589a.519.519,0,0,1,.83.027l3.4,4.856a.519.519,0,0,1,.094.3Z" transform="translate(-287 -411.112)"/>
</svg>
