<?xml version="1.0" encoding="UTF-8" standalone="no"?>
<svg
   xmlns="http://www.w3.org/2000/svg"
   version="1.1"
   viewBox="0 0 20 18.35"
   height="18.35"
   width="20">
      <path
	  style="fill:transparent"
       d="M 10,18.35 8.55,17.03 C 3.4,12.36 0,9.28 0,5.5 A 5.447,5.447 0 0 1 5.5,0 5.988,5.988 0 0 1 10,2.09 5.988,5.988 0 0 1 14.5,0 5.447,5.447 0 0 1 20,5.5 c 0,3.78 -3.4,6.86 -8.55,11.54 z" />
    <path
       style="fill:#009fe3;stroke:none"
       d="m 10.003835,16.325033 0.437375,-0.395142 0.03948,-0.03587 C 15.30974,11.505691 18.5,8.6065998 18.5,5.5 c 0,-2.2429898 -1.75701,-3.9999998 -4,-3.9999998 -1.26949,0 -2.52481,0.5841201 -3.35797,1.5625101 L 10,4.4036102 8.8579702,3.0625103 C 8.0248098,2.0841203 6.7694898,1.5000002 5.5,1.5000002 c -2.24299,0 -4,1.75701 -4,3.9999998 0,3.1122103 3.2004499,6.01437 8.0449305,10.407331 l 0.014839,0.01345 0.4440655,0.404253 M 10,18.35 8.5500002,17.030001 C 3.4000001,12.360001 0,9.2799997 0,5.5 0,2.4200001 2.4200001,1.9073487e-7 5.5,1.9073487e-7 7.2399998,1.9073487e-7 8.9099998,0.81000018 10,2.0900002 11.09,0.81000018 12.76,1.9073487e-7 14.5,1.9073487e-7 17.58,1.9073487e-7 20,2.4200001 20,5.5 c 0,3.7799997 -3.4,6.860001 -8.55,11.540001 z" />
</svg>
