<svg width="15" height="15" viewBox="0 0 15 15" fill="none" xmlns="http://www.w3.org/2000/svg">
<path d="M15 7.50019C15 3.35769 11.6421 9.15527e-05 7.50012 9.15527e-05C3.3579 9.15527e-05 0 3.35769 0 7.50019C0 11.6421 3.3579 14.9999 7.50012 14.9999C11.6421 14.9999 15 11.6421 15 7.50019Z" fill="#009FE3"/>
<path d="M9.53072 10.8702C9.48879 10.8087 9.40834 10.7869 9.34116 10.8187C8.59799 11.1705 7.7545 11.5425 7.58895 11.575C7.58478 11.5713 7.57816 11.5645 7.56948 11.5527C7.54705 11.5223 7.53614 11.4826 7.53614 11.4313C7.53614 11.0109 7.85342 9.73212 8.47914 7.63055C9.00673 5.8648 9.06774 5.4992 9.06774 5.37782C9.06774 5.19044 8.996 5.03211 8.86019 4.91992C8.73119 4.81353 8.55095 4.75963 8.32451 4.75963C7.94784 4.75963 7.51128 4.90263 6.98987 5.19682C6.48459 5.482 5.92109 5.96502 5.31511 6.63246C5.26768 6.68473 5.26272 6.76288 5.30317 6.82075C5.34368 6.87864 5.41881 6.90068 5.48414 6.87408C5.69689 6.78725 6.76606 6.34927 6.9219 6.25138C7.04951 6.17139 7.15998 6.13078 7.25026 6.13078C7.25349 6.13078 7.25627 6.13091 7.2586 6.13109C7.25969 6.13707 7.26072 6.1462 7.26072 6.15929C7.26072 6.25141 7.24176 6.36046 7.20461 6.48287C6.29352 9.43478 5.85065 11.2444 5.85065 12.0152C5.85065 12.2872 5.92626 12.5062 6.07534 12.666C6.22725 12.8291 6.43217 12.9117 6.6844 12.9117C6.95319 12.9117 7.28034 12.7995 7.68449 12.5685C8.07557 12.345 8.67248 11.8534 9.50941 11.0654C9.56361 11.0144 9.57265 10.9316 9.53072 10.8702Z" fill="white"/>
<path d="M9.5015 2.31798C9.3526 2.16558 9.16208 2.0883 8.93528 2.0883C8.65291 2.0883 8.40697 2.19989 8.20438 2.41998C8.00503 2.63644 7.90393 2.90207 7.90393 3.20944C7.90393 3.45229 7.97839 3.65355 8.12523 3.80758C8.27403 3.96395 8.46199 4.04321 8.6838 4.04321C8.95462 4.04321 9.19923 3.92537 9.4108 3.69294C9.61868 3.4646 9.7241 3.19614 9.7241 2.89502C9.72413 2.66362 9.64924 2.4695 9.5015 2.31798Z" fill="white"/>
</svg>
