<svg xmlns="http://www.w3.org/2000/svg" xmlns:xlink="http://www.w3.org/1999/xlink" width="50" height="50" viewBox="0 0 50 50">
  <defs>
    <filter id="Ellipse_14" x="0" y="0" width="50" height="50" filterUnits="userSpaceOnUse">
      <feOffset dy="3" input="SourceAlpha"/>
      <feGaussianBlur stdDeviation="3" result="blur"/>
      <feFlood flood-opacity="0.161"/>
      <feComposite operator="in" in2="blur"/>
      <feComposite in="SourceGraphic"/>
    </filter>
  </defs>
  <g id="Next_arrow" data-name="Next arrow" transform="translate(9 6)">
    <g id="Groupe_1402" data-name="Groupe 1402" transform="translate(32 32) rotate(180)">
      <g transform="matrix(-1, 0, 0, -1, 41, 38)" filter="url(#Ellipse_14)">
        <circle id="Ellipse_14-2" data-name="Ellipse 14" cx="16" cy="16" r="16" transform="translate(41 38) rotate(180)" fill="rgba(255,255,255,0.9)"/>
      </g>
      <path id="Icon_metro-chevron-thin-right" data-name="Icon metro-chevron-thin-right" d="M13.413,11.7l6.643-6.9a.648.648,0,0,0,0-.911.633.633,0,0,0-.9,0L11.87,11.244a.648.648,0,0,0,0,.911l7.284,7.356a.633.633,0,0,0,.9,0,.648.648,0,0,0,0-.911l-6.643-6.9Z" transform="translate(-0.242 4.301)" stroke="#000" stroke-width="1"/>
    </g>
  </g>
</svg>
