<svg xmlns="http://www.w3.org/2000/svg" xmlns:xlink="http://www.w3.org/1999/xlink" viewBox="0 0 36.83 38" fill="#282828"><defs><style>.cls-1{fill:none;}.cls-2{clip-path:url(#clip-path);}.cls-3{clip-path:url(#clip-path-2);}</style><clipPath id="clip-path" transform="translate(-1957 -188)"><path class="cls-1" d="M1972.29,210.33a6.79,6.79,0,1,1,6.63-6.8,6.71,6.71,0,0,1-6.63,6.8Zm8.4-.72a10.67,10.67,0,0,0-2.45-14.67,10.15,10.15,0,0,0-14.35,2.51,10.68,10.68,0,0,0,2.46,14.67,10.09,10.09,0,0,0,11.18.48l7.59,7.71a2.11,2.11,0,0,0,3,.08,2.23,2.23,0,0,0,.08-3.11l-.08-.08Z"/></clipPath><clipPath id="clip-path-2" transform="translate(-1957 -188)"><rect class="cls-1" width="2380" height="1684"/></clipPath></defs><title>Asset 6</title><g id="Layer_2" data-name="Layer 2"><g id="Layer_1-2" data-name="Layer 1"><g class="cls-2"><g class="cls-3"><rect width="36.83" height="38"/></g></g></g></g></svg>