<?xml version="1.0" encoding="utf-8"?>
<!-- Generator: Adobe Illustrator 24.0.2, SVG Export Plug-In . SVG Version: 6.00 Build 0)  -->
<svg version="1.1" id="Layer_1" xmlns="http://www.w3.org/2000/svg" xmlns:xlink="http://www.w3.org/1999/xlink" x="0px" y="0px"
	 viewBox="0 0 30 24.6" style="enable-background:new 0 0 30 24.6;" xml:space="preserve">
<style type="text/css">
	.st0{fill:#009FE3;}
</style>
<path class="st0" d="M24.4,11.1l-5.8-5.8C18.4,5.1,18,5,17.7,5c-0.4,0-0.7,0.1-1,0.4c-0.5,0.5-0.5,1.3,0,1.8c0,0,0,0,0,0l3.8,3.3
	H6.3c-0.7,0.3-1.4,0.9-1.4,1.6c-0.1,0.7,0.5,1.4,1.2,1.4c0.1,0,0.2,0,0.2,0v0h14.1l-3.8,3.8c-0.5,0.5-0.5,1.3,0,1.8c0,0,0,0,0,0
	c0.5,0.5,1.4,0.5,1.9,0l6-6c0.1-0.1,0.1-0.1,0.2-0.2C25.3,12.2,25.1,12.1,24.4,11.1z"/>
</svg>
