<svg xmlns="http://www.w3.org/2000/svg" width="33.274" height="45.061" viewBox="0 0 33.274 45.061">
  <g id="Groupe_1140" data-name="Groupe 1140" transform="translate(-184 -13846.47)">
    <g id="Map_marker_Unselected" data-name="Map marker Unselected" transform="translate(185 13847.47)">
      <ellipse id="Ellipse_63" data-name="Ellipse 63" cx="8.5" cy="2.5" rx="8.5" ry="2.5" transform="translate(7.137 39.061)" opacity="0.25"/>
      <path id="Pin" d="M15.637,0A15.381,15.381,0,0,0,0,15.1a14.8,14.8,0,0,0,2.018,7.468l1.625,2.273L15.637,41.561,27.855,24.569l1.233-1.732a14.5,14.5,0,0,0,2.186-7.684A15.391,15.391,0,0,0,15.637,0Z" fill="#fff" stroke="#4a90e2" stroke-width="2"/>
    </g>
    <path id="Tracé_1315" data-name="Tracé 1315" d="M.869-7.171a2.067,2.067,0,0,1,1.848.807A3.79,3.79,0,0,1,3.262-4.21a14.505,14.505,0,0,1-.133,1.745Q3-1.407,2.824-.217T2.5,2.018a12.812,12.812,0,0,0-.146,1.706.979.979,0,0,0,.16.635.505.505,0,0,0,.4.185,1.064,1.064,0,0,0,.745-.489A5.321,5.321,0,0,0,4.433,2.3l1.2.344a6.212,6.212,0,0,1-.4,1.243,6.283,6.283,0,0,1-.758,1.309,4.063,4.063,0,0,1-1.13,1.031,2.83,2.83,0,0,1-1.516.41,2.284,2.284,0,0,1-1.941-.74A3.41,3.41,0,0,1-.674,3.8a14.641,14.641,0,0,1,.146-1.97Q-.381.762-.2-.336t.319-2.1a13.855,13.855,0,0,0,.133-1.8,1.211,1.211,0,0,0-.133-.635.44.44,0,0,0-.4-.212q-.319,0-.718.489a5.321,5.321,0,0,0-.771,1.759l-1.2-.344a5.137,5.137,0,0,1,.372-1.216A5.976,5.976,0,0,1-1.8-5.717,4.332,4.332,0,0,1-.647-6.761,2.83,2.83,0,0,1,.869-7.171Zm1.144-6.347a1.652,1.652,0,0,1,1.277.555,1.822,1.822,0,0,1,.452,1.4,1.911,1.911,0,0,1-.532,1.375,1.765,1.765,0,0,1-1.33.555,1.641,1.641,0,0,1-1.29-.555A2,2,0,0,1,.1-11.561a2.089,2.089,0,0,1,.612-1.4A1.791,1.791,0,0,1,2.012-13.518Z" transform="translate(198.747 13866.778) rotate(7)" fill="#4a90e2"/>
  </g>
</svg>
