<svg xmlns="http://www.w3.org/2000/svg" width="33.274" height="45.061" viewBox="0 0 33.274 45.061">
  <g id="Groupe_1138" data-name="Groupe 1138" transform="translate(-77.936 -13846.47)">
    <g id="Map_marker_Unselected" data-name="Map marker Unselected" transform="translate(78.936 13847.47)">
      <ellipse id="Ellipse_63" data-name="Ellipse 63" cx="8.5" cy="2.5" rx="8.5" ry="2.5" transform="translate(7.137 39.061)" opacity="0.25"/>
      <path id="Pin" d="M15.637,0A15.381,15.381,0,0,0,0,15.1a14.8,14.8,0,0,0,2.018,7.468l1.625,2.273L15.637,41.561,27.855,24.569l1.233-1.732a14.5,14.5,0,0,0,2.186-7.684A15.391,15.391,0,0,0,15.637,0Z" fill="#205faa" stroke="#205faa" stroke-width="2"/>
    </g>
    <path id="ic_local_hotel_24px" d="M6.162,11.883A2.581,2.581,0,1,0,3.581,9.3,2.578,2.578,0,0,0,6.162,11.883ZM16.486,6.721H9.6v6.022H2.721V5H1V17.905H2.721V15.324H18.207v2.581h1.721V10.162A3.44,3.44,0,0,0,16.486,6.721Z" transform="translate(84.109 13850.75)" fill="#fff"/>
  </g>
</svg>
