<svg xmlns="http://www.w3.org/2000/svg" xmlns:xlink="http://www.w3.org/1999/xlink" width="190" height="35.152" viewBox="0 0 190 35.152">
  <defs>
    <clipPath id="clip-path">
      <rect id="Rectangle_132" data-name="Rectangle 132" width="190" height="35.151" transform="translate(0 0)" fill="#fff"/>
    </clipPath>
  </defs>
  <g id="Groupe_1249" data-name="Groupe 1249" transform="translate(0 8)">
    <g id="Groupe_1248" data-name="Groupe 1248" transform="translate(0 -8)" clip-path="url(#clip-path)">
      <path id="Tracé_78" data-name="Tracé 78" d="M20.287,13.81H31.712V29.533q-4.99,5.618-14.136,5.618a16.926,16.926,0,0,1-12.42-5.16A16.924,16.924,0,0,1,0,17.572,16.938,16.938,0,0,1,5.156,5.152,16.933,16.933,0,0,1,17.576,0a16.336,16.336,0,0,1,8.56,2.03L22.148,8.349a10.53,10.53,0,0,0-4.572-.893,9.241,9.241,0,0,0-6.974,2.95,10.015,10.015,0,0,0-2.8,7.166,10.019,10.019,0,0,0,2.8,7.17,9.226,9.226,0,0,0,6.974,2.95A11.285,11.285,0,0,0,24.209,26V21.337H20.287ZM39.119,34.643H60.273v-7.6H46.812V21.278H57.389v-7.4H46.812V8.1H60.273V.509H39.119Zm57.384.385V.509H88.811V18.345L67.273.124V34.643h7.692V16.806Zm8.984-.385h21.154v-7.6H113.179V21.278h10.576v-7.4H113.179V8.1h13.461V.509H105.487Zm41.243.385L162.836.509h-8.558L146.73,17.576,139.182.509h-8.557Zm9.617-.385h8.077l2.452-5.289h12.6l2.452,5.289H190L173.173.124ZM169.953,23.1l3.221-7.115,3.221,7.115Z" transform="translate(0 0)" fill="#fff"/>
    </g>
  </g>
</svg>
