<?xml version="1.0" encoding="utf-8"?>
<!-- Generator: Adobe Illustrator 25.0.0, SVG Export Plug-In . SVG Version: 6.00 Build 0)  -->
<svg version="1.1" id="Calque_1" xmlns="http://www.w3.org/2000/svg" xmlns:xlink="http://www.w3.org/1999/xlink" x="0px" y="0px"
	 viewBox="0 0 607.3 116.1" style="enable-background:new 0 0 607.3 116.1;" xml:space="preserve">
<style type="text/css">
	.st0{fill:#0E91E8;}
</style>
<g>
	<g>
		<polygon class="st0" points="245.5,87.1 280.6,87.1 280.6,74.2 258.3,74.2 258.3,64.4 280.6,64.4 280.6,51.8 258.3,51.8 258.3,42 
			280.6,42 280.6,29.1 245.5,29.1 		"/>
		<polygon class="st0" points="357.2,29.1 357.2,59.4 321.4,28.4 321.4,87.1 334.2,87.1 334.2,56.8 369.9,87.7 369.9,29.1 		"/>
		<polygon class="st0" points="447.5,64.4 447.5,51.8 425.1,51.8 425.1,42 447.5,42 447.5,29.1 412.4,29.1 412.4,87.1 447.5,87.1 
			447.5,74.2 425.1,74.2 425.1,64.4 		"/>
		<polygon class="st0" points="507.4,58.1 494.9,29.1 480.7,29.1 507.4,87.7 534.2,29.1 519.9,29.1 		"/>
		<path class="st0" d="M579.4,28.4l-27.9,58.7h13.4l4.2-9l20.7,0l4.1,9h13.4L579.4,28.4z M573.9,67.5l5.5-12l5.5,12H573.9z"/>
		<path class="st0" d="M185,64.2h6.5v7.7c-2.6,1.9-6.3,2.8-10.9,2.8c-4.6,0-8.4-1.6-11.5-4.9c-3.1-3.2-4.6-7.2-4.6-11.8
			c0-4.6,1.5-8.6,4.6-11.8c3.1-3.2,6.9-4.9,11.5-4.9c3,0,5.5,0.5,7.5,1.5l6.6-10.4c-4.3-2.4-8.6-3.3-14.1-3.3
			c-8,0-14.8,2.8-20.5,8.5S151.5,50,151.5,58c0,8,2.8,14.8,8.5,20.5c5.7,5.7,12.5,8.5,20.5,8.5c10.1,0,17.8-3.1,23.3-9.3V64.2v-8.5
			v-3.9H185V64.2z"/>
	</g>
</g>
<path class="st0" d="M58.1,0C26,0,0,26,0,58.1c0,32,26,58.1,58.1,58.1c32,0,58.1-26,58.1-58.1C116.1,26,90.1,0,58.1,0z M64.4,14.9
	H23.8c9.7-7.8,21.8-12,34.3-12c4.3,0,8.7,0.5,12.9,1.5L64.4,14.9z M75.7,14.9V5.8c6,2,11.7,5.1,16.6,9.1H75.7z M75.7,47.2V34h31.9
	c2,4.2,3.5,8.6,4.4,13.2H75.7z M75.7,63.4V50.2h36.9c0.4,2.6,0.6,5.3,0.6,7.8c0,1.7-0.1,3.5-0.3,5.4H75.7z M75.7,79.5V66.3h36.8
	c-0.7,4.5-1.9,9-3.7,13.2H75.7z M107.4,82.5c-2.4,4.8-5.5,9.3-9.2,13.2H75.7V82.5H107.4z M75.7,31.1V17.9h20.1
	c4.1,3.8,7.5,8.3,10.3,13.2H75.7z M75.7,110.2V98.7h19.5C89.6,103.8,82.9,107.8,75.7,110.2z M52.5,34l-8.2,13.2H4
	c0.9-4.6,2.4-9,4.4-13.2H52.5z M3.5,50.2h38.9l-8.2,13.2H3.3C3.1,61.5,3,59.7,3,58C3,55.5,3.2,52.8,3.5,50.2z M32.3,66.3L24,79.5
	H7.4c-1.8-4.2-3-8.6-3.7-13.2H32.3z M27.8,104c-3.5-2.3-6.7-4.9-9.5-7.9c-0.2-0.2-0.5-0.5-0.7-0.7L72.8,7.2v103.9
	c-4.3,1.2-8.8,1.9-13.3,2V53.5L27.8,104z M20.3,17.9h42.3l-8.2,13.2H10C12.8,26.2,16.2,21.7,20.3,17.9z M22.2,82.5l-6.6,10.6
	c-2.7-3.3-5-6.8-6.9-10.6H22.2z M56.5,63.8v25l-13.9,22.2c-4.3-1.3-8.4-3-12.3-5.3L56.5,63.8z M56.5,94.3v18.8
	c-3.7-0.1-7.3-0.6-10.9-1.4L56.5,94.3z"/>
</svg>
