<svg xmlns="http://www.w3.org/2000/svg" viewBox="0 0 56 64"><defs><style>.cls-1{fill:#00bae8;}.cls-2{fill:#fff;}</style></defs><g id="Calque_2" data-name="Calque 2"><g id="Calque_1-2" data-name="Calque 1"><path id="Container" class="cls-1" d="M0,0H56V49.71H40.65V64L17.31,49.71H0Z"/><path id="Path-2" class="cls-2" d="M29,37.83a16.44,16.44,0,0,0,5.93-1,11.35,11.35,0,0,0,4.57-3.16h0V23.71H29.75L27.8,27.47H34V31a6,6,0,0,1-2.14,1A11.83,11.83,0,0,1,29,32.3a6.8,6.8,0,0,1-2.88-.6,7.29,7.29,0,0,1-2.31-1.61,7.83,7.83,0,0,1-1.52-8.22,7.64,7.64,0,0,1,1.52-2.4,7.29,7.29,0,0,1,2.31-1.61,7,7,0,0,1,2.88-.6,7.8,7.8,0,0,1,3.43.68A7.46,7.46,0,0,1,35,20.1h0l4.35-3.56A12.63,12.63,0,0,0,29,11.72a12.5,12.5,0,0,0-5.08,1,13.2,13.2,0,0,0-7,7,13.14,13.14,0,0,0,0,10.15,13.23,13.23,0,0,0,7,7A12.84,12.84,0,0,0,29,37.83Z"/></g></g></svg>