<?xml version="1.0" encoding="utf-8"?>
<!-- Generator: Adobe Illustrator 25.2.3, SVG Export Plug-In . SVG Version: 6.00 Build 0)  -->
<svg version="1.1" id="Calque_1" xmlns="http://www.w3.org/2000/svg" xmlns:xlink="http://www.w3.org/1999/xlink" x="0px" y="0px"
	 viewBox="0 0 275.9 54" style="enable-background:new 0 0 275.9 54;" xml:space="preserve">
<style type="text/css">
	.st0{fill:#0E79E3;}
</style>
<g>
	<path class="st0" d="M26,1C11.7,1,0,12.6,0,27c0,14.4,11.7,26,26,26c14.4,0,26-11.7,26-26C52.1,12.6,40.4,1,26,1z M28.9,7.7H10.6
		C15,4.2,20.4,2.3,26,2.3c1.9,0,3.9,0.2,5.8,0.7L28.9,7.7z M33.9,7.7V3.6c2.7,0.9,5.2,2.3,7.5,4.1H33.9z M33.9,22.1v-5.9h14.3
		c0.9,1.9,1.6,3.9,2,5.9H33.9z M33.9,29.4v-5.9h16.5c0.2,1.2,0.3,2.4,0.3,3.5c0,0.7,0,1.6-0.1,2.4H33.9z M33.9,36.6v-5.9h16.5
		c-0.3,2-0.9,4-1.7,5.9H33.9z M48.1,37.9c-1.1,2.2-2.5,4.1-4.1,5.9H33.9v-5.9H48.1z M33.9,14.9V9h9c1.8,1.7,3.4,3.7,4.6,5.9H33.9z
		 M33.9,50.4v-5.2h8.7C40.2,47.5,37.2,49.3,33.9,50.4z M23.5,16.2l-3.7,5.9h-18c0.4-2,1.1-4,2-5.9H23.5z M1.6,23.5H19l-3.7,5.9H1.5
		c-0.1-0.9-0.1-1.7-0.1-2.4C1.3,25.8,1.4,24.6,1.6,23.5z M14.5,30.7l-3.7,5.9H3.3c-0.8-1.9-1.4-3.9-1.7-5.9H14.5z M12.5,47.6
		c-1.6-1-3-2.2-4.3-3.5c-0.1-0.1-0.2-0.2-0.3-0.3L32.6,4.2v46.6c-1.9,0.5-3.9,0.8-5.9,0.9V24.9L12.5,47.6z M9.1,9H28l-3.7,5.9H4.5
		C5.7,12.7,7.3,10.7,9.1,9z M9.9,37.9l-3,4.7c-1.2-1.5-2.2-3-3.1-4.7H9.9z M25.3,29.5v11.2l-6.2,9.9c-1.9-0.6-3.8-1.4-5.5-2.4
		L25.3,29.5z M25.3,43.2v8.4c-1.6,0-3.3-0.3-4.9-0.6L25.3,43.2z"/>
	<g>
		<g>
			<path class="st0" d="M71.2,12.8L66.4,2.3h1.5l3.3,7.4l3.3-7.4H76L71.2,12.8z"/>
			<path class="st0" d="M81,12.7V2.3h1.3v10.3H81z"/>
			<path class="st0" d="M91.1,12.8c-0.7,0-1.4-0.1-2-0.5c-0.6-0.3-1.1-0.7-1.4-1.1l1-0.9c0.6,0.8,1.4,1.2,2.3,1.2
				c0.6,0,1.1-0.1,1.4-0.4c0.3-0.3,0.5-0.6,0.5-1.1c0-0.5-0.1-0.8-0.4-1.1c-0.3-0.3-0.7-0.6-1.3-0.8l-0.9-0.4
				c-1.5-0.6-2.3-1.6-2.3-2.9c0-0.8,0.3-1.4,0.9-1.9c0.6-0.5,1.3-0.7,2.1-0.7c1.2,0,2.2,0.4,2.9,1.3l-0.9,0.9c-0.6-0.7-1.2-1-2-1
				c-0.5,0-0.8,0.1-1.2,0.4c-0.3,0.2-0.5,0.6-0.5,1c0,0.4,0.1,0.7,0.4,1C90,6.1,90.4,6.3,91,6.6L91.9,7c0.8,0.3,1.4,0.8,1.8,1.2
				c0.4,0.5,0.6,1,0.6,1.7c0,0.9-0.3,1.5-0.9,2.1C92.9,12.5,92.1,12.8,91.1,12.8z"/>
			<path class="st0" d="M99.9,12.7V2.3h1.3v10.3H99.9z"/>
			<path class="st0" d="M109.3,12.7v-9h-2.9V2.3h7.2v1.3h-2.9v9H109.3z"/>
			<path class="st0" d="M119.3,12.5c-0.2,0.2-0.5,0.3-0.8,0.3c-0.3,0-0.5-0.1-0.8-0.3c-0.2-0.2-0.3-0.5-0.3-0.8
				c0-0.3,0.1-0.6,0.3-0.8c0.2-0.2,0.5-0.3,0.8-0.3c0.3,0,0.5,0.1,0.8,0.3c0.2,0.2,0.3,0.5,0.3,0.8C119.6,12,119.5,12.3,119.3,12.5z
				"/>
		</g>
		<g>
			<path class="st0" d="M87.2,31.5V21.1l5,5.5l5-5.5v10.4h-1.3v-7.2l-3.7,4.1l-3.7-4.1v7.2H87.2z"/>
			<path class="st0" d="M103.5,31.5V21.2h6v1.3h-4.6v3.1h3.8v1.3h-3.8v3.4h4.6v1.3H103.5z"/>
			<path class="st0" d="M115,31.5V21.2h6v1.3h-4.6v3.1h3.8v1.3h-3.8v3.4h4.6v1.3H115z"/>
			<path class="st0" d="M128.7,31.5v-9h-2.9v-1.3h7.2v1.3H130v9H128.7z"/>
			<path class="st0" d="M138.7,31.3c-0.2,0.2-0.5,0.3-0.8,0.3c-0.3,0-0.5-0.1-0.8-0.3s-0.3-0.5-0.3-0.8c0-0.3,0.1-0.6,0.3-0.8
				c0.2-0.2,0.5-0.3,0.8-0.3c0.3,0,0.5,0.1,0.8,0.3c0.2,0.2,0.3,0.5,0.3,0.8C139,30.9,138.9,31.1,138.7,31.3z"/>
		</g>
		<g>
			<path class="st0" d="M66.4,50.4V40.1h3.1c1,0,1.8,0.3,2.4,0.8c0.6,0.5,0.9,1.2,0.9,2.1c0,0.7-0.2,1.3-0.6,1.8s-1,0.9-1.9,1
				l3.6,4.6h-1.6l-3.4-4.5h-1.1v4.5H66.4z M67.7,44.7h1.7c0.7,0,1.2-0.1,1.5-0.4c0.3-0.3,0.5-0.7,0.5-1.3c0-0.6-0.2-1-0.5-1.3
				c-0.3-0.3-0.9-0.4-1.5-0.4h-1.7V44.7z"/>
			<path class="st0" d="M79,50.4V40.1h6v1.3h-4.6v3.1h3.8v1.3h-3.8v3.4H85v1.3H79z"/>
			<path class="st0" d="M90.5,50.4V40.1h2.9c1.1,0,2,0.3,2.6,0.9c0.6,0.6,1,1.3,1,2.3c0,1-0.3,1.7-1,2.3c-0.6,0.6-1.5,0.9-2.6,0.9
				h-1.6v4H90.5z M91.8,45.2h1.6c0.7,0,1.3-0.2,1.7-0.5c0.4-0.3,0.6-0.8,0.6-1.4c0-0.6-0.2-1.1-0.6-1.4c-0.4-0.3-1-0.5-1.7-0.5h-1.6
				V45.2z"/>
			<path class="st0" d="M102.2,50.4V40.1h6v1.3h-4.6v3.1h3.8v1.3h-3.8v3.4h4.6v1.3H102.2z"/>
			<path class="st0" d="M112.8,50.4l5-10.4l5,10.4h-1.4l-1.3-2.7h-4.7l-1.3,2.7H112.8z M116.1,46.5h3.5l-1.7-3.7L116.1,46.5z"/>
			<path class="st0" d="M128.7,50.4v-9h-2.9v-1.3h7.2v1.3H130v9H128.7z"/>
			<path class="st0" d="M138.7,50.2c-0.2,0.2-0.5,0.3-0.8,0.3c-0.3,0-0.5-0.1-0.8-0.3c-0.2-0.2-0.3-0.5-0.3-0.8
				c0-0.3,0.1-0.6,0.3-0.8c0.2-0.2,0.5-0.3,0.8-0.3c0.3,0,0.5,0.1,0.8,0.3c0.2,0.2,0.3,0.5,0.3,0.8C139,49.8,138.9,50,138.7,50.2z"
				/>
		</g>
	</g>
</g>
</svg>
